<?xml version="1.0" encoding="utf-8" standalone="no"?>
<!DOCTYPE svg PUBLIC "-//W3C//DTD SVG 1.1//EN"
  "http://www.w3.org/Graphics/SVG/1.1/DTD/svg11.dtd">
<svg xmlns:xlink="http://www.w3.org/1999/xlink" width="389.291602pt" height="210.172131pt" viewBox="0 0 389.291602 210.172131" xmlns="http://www.w3.org/2000/svg" version="1.1">
 <metadata>
  <rdf:RDF xmlns:dc="http://purl.org/dc/elements/1.1/" xmlns:cc="http://creativecommons.org/ns#" xmlns:rdf="http://www.w3.org/1999/02/22-rdf-syntax-ns#">
   <cc:Work>
    <dc:type rdf:resource="http://purl.org/dc/dcmitype/StillImage"/>
    <dc:date>2026-07-19T18:39:51.182258</dc:date>
    <dc:format>image/svg+xml</dc:format>
    <dc:creator>
     <cc:Agent>
      <dc:title>Matplotlib v3.10.9, https://matplotlib.org/</dc:title>
     </cc:Agent>
    </dc:creator>
   </cc:Work>
  </rdf:RDF>
 </metadata>
 <defs>
  <style type="text/css">*{stroke-linejoin: round; stroke-linecap: butt}</style>
 </defs>
 <g id="figure_1">
  <g id="patch_1">
   <path d="M 0 210.172131 
L 389.291602 210.172131 
L 389.291602 0 
L 0 0 
z
" style="fill: #ffffff"/>
  </g>
  <g id="axes_1">
   <g id="patch_2">
    <path d="M 35.03479 178.29504 
L 389.291602 178.29504 
L 389.291602 0 
L 35.03479 0 
z
" style="fill: #ffffff"/>
   </g>
   <g id="matplotlib.axis_1">
    <g id="xtick_1">
     <g id="line2d_1">
      <path d="M 51.137372 178.29504 
L 51.137372 0 
" clip-path="url(#p4a547fc750)" style="fill: none; stroke-dasharray: 0.6,0.99; stroke-dashoffset: 0; stroke: #bfbfbf; stroke-opacity: 0.25; stroke-width: 0.6"/>
     </g>
     <g id="line2d_2">
      <defs>
       <path id="mded97d14c7" d="M 0 0 
L 0 -3 
" style="stroke: #000000; stroke-width: 0.5"/>
      </defs>
      <g>
       <use xlink:href="#mded97d14c7" x="51.137372" y="178.29504" style="stroke: #000000; stroke-width: 0.5"/>
      </g>
     </g>
     <g id="line2d_3">
      <defs>
       <path id="m548a077e54" d="M 0 0 
L 0 3 
" style="stroke: #000000; stroke-width: 0.5"/>
      </defs>
      <g>
       <use xlink:href="#m548a077e54" x="51.137372" y="0" style="stroke: #000000; stroke-width: 0.5"/>
      </g>
     </g>
     <g id="text_1">
      <!-- $\mathdefault{0}$ -->
      <g transform="translate(48.895778 189.374157) scale(0.09 -0.09)">
       <defs>
        <path id="NimbusRomNo9L-Regu-30" d="M 1626 4352 
C 1274 4352 1005 4244 768 4020 
C 397 3661 154 2925 154 2176 
C 154 1479 365 730 666 372 
C 902 90 1229 -64 1600 -64 
C 1926 -64 2202 45 2432 269 
C 2803 621 3046 1364 3046 2138 
C 3046 3450 2464 4352 1626 4352 
z
M 1606 4186 
C 2144 4186 2432 3463 2432 2125 
C 2432 788 2150 103 1600 103 
C 1050 103 768 788 768 2119 
C 768 3476 1056 4186 1606 4186 
z
" transform="scale(0.015625)"/>
       </defs>
       <use xlink:href="#NimbusRomNo9L-Regu-30" transform="scale(0.996264)"/>
      </g>
     </g>
    </g>
    <g id="xtick_2">
     <g id="line2d_4">
      <path d="M 115.547701 178.29504 
L 115.547701 0 
" clip-path="url(#p4a547fc750)" style="fill: none; stroke-dasharray: 0.6,0.99; stroke-dashoffset: 0; stroke: #bfbfbf; stroke-opacity: 0.25; stroke-width: 0.6"/>
     </g>
     <g id="line2d_5">
      <g>
       <use xlink:href="#mded97d14c7" x="115.547701" y="178.29504" style="stroke: #000000; stroke-width: 0.5"/>
      </g>
     </g>
     <g id="line2d_6">
      <g>
       <use xlink:href="#m548a077e54" x="115.547701" y="0" style="stroke: #000000; stroke-width: 0.5"/>
      </g>
     </g>
     <g id="text_2">
      <!-- $\mathdefault{20}$ -->
      <g transform="translate(111.064513 189.374157) scale(0.09 -0.09)">
       <defs>
        <path id="NimbusRomNo9L-Regu-32" d="M 3040 875 
L 2957 907 
C 2720 544 2637 486 2349 486 
L 819 486 
L 1894 1609 
C 2464 2202 2714 2687 2714 3185 
C 2714 3823 2195 4313 1530 4313 
C 1178 4313 845 4173 608 3918 
C 403 3700 307 3496 198 3043 
L 333 3011 
C 589 3636 819 3840 1261 3840 
C 1798 3840 2163 3476 2163 2940 
C 2163 2443 1869 1850 1331 1282 
L 192 77 
L 192 0 
L 2688 0 
L 3040 875 
z
" transform="scale(0.015625)"/>
       </defs>
       <use xlink:href="#NimbusRomNo9L-Regu-32" transform="scale(0.996264)"/>
       <use xlink:href="#NimbusRomNo9L-Regu-30" transform="translate(49.8132 0) scale(0.996264)"/>
      </g>
     </g>
    </g>
    <g id="xtick_3">
     <g id="line2d_7">
      <path d="M 179.958031 178.29504 
L 179.958031 0 
" clip-path="url(#p4a547fc750)" style="fill: none; stroke-dasharray: 0.6,0.99; stroke-dashoffset: 0; stroke: #bfbfbf; stroke-opacity: 0.25; stroke-width: 0.6"/>
     </g>
     <g id="line2d_8">
      <g>
       <use xlink:href="#mded97d14c7" x="179.958031" y="178.29504" style="stroke: #000000; stroke-width: 0.5"/>
      </g>
     </g>
     <g id="line2d_9">
      <g>
       <use xlink:href="#m548a077e54" x="179.958031" y="0" style="stroke: #000000; stroke-width: 0.5"/>
      </g>
     </g>
     <g id="text_3">
      <!-- $\mathdefault{40}$ -->
      <g transform="translate(175.474843 189.374157) scale(0.09 -0.09)">
       <defs>
        <path id="NimbusRomNo9L-Regu-34" d="M 3021 1497 
L 2368 1497 
L 2368 4352 
L 2086 4352 
L 77 1497 
L 77 1088 
L 1875 1088 
L 1875 32 
L 2368 32 
L 2368 1088 
L 3021 1088 
L 3021 1497 
z
M 1869 1497 
L 333 1497 
L 1869 3698 
L 1869 1497 
z
" transform="scale(0.015625)"/>
       </defs>
       <use xlink:href="#NimbusRomNo9L-Regu-34" transform="scale(0.996264)"/>
       <use xlink:href="#NimbusRomNo9L-Regu-30" transform="translate(49.8132 0) scale(0.996264)"/>
      </g>
     </g>
    </g>
    <g id="xtick_4">
     <g id="line2d_10">
      <path d="M 244.36836 178.29504 
L 244.36836 0 
" clip-path="url(#p4a547fc750)" style="fill: none; stroke-dasharray: 0.6,0.99; stroke-dashoffset: 0; stroke: #bfbfbf; stroke-opacity: 0.25; stroke-width: 0.6"/>
     </g>
     <g id="line2d_11">
      <g>
       <use xlink:href="#mded97d14c7" x="244.36836" y="178.29504" style="stroke: #000000; stroke-width: 0.5"/>
      </g>
     </g>
     <g id="line2d_12">
      <g>
       <use xlink:href="#m548a077e54" x="244.36836" y="0" style="stroke: #000000; stroke-width: 0.5"/>
      </g>
     </g>
     <g id="text_4">
      <!-- $\mathdefault{60}$ -->
      <g transform="translate(239.885172 189.374157) scale(0.09 -0.09)">
       <defs>
        <path id="NimbusRomNo9L-Regu-36" d="M 2854 4391 
C 2125 4327 1754 4205 1286 3879 
C 595 3386 218 2656 218 1802 
C 218 1248 390 688 666 370 
C 909 89 1254 -64 1651 -64 
C 2445 -64 2995 541 2995 1421 
C 2995 2236 2528 2752 1792 2752 
C 1510 2752 1376 2707 973 2464 
C 1146 3431 1862 4122 2867 4288 
L 2854 4391 
z
M 1549 2458 
C 2099 2458 2419 2000 2419 1204 
C 2419 504 2170 116 1722 116 
C 1158 116 813 714 813 1700 
C 813 2025 864 2203 992 2299 
C 1126 2400 1325 2458 1549 2458 
z
" transform="scale(0.015625)"/>
       </defs>
       <use xlink:href="#NimbusRomNo9L-Regu-36" transform="scale(0.996264)"/>
       <use xlink:href="#NimbusRomNo9L-Regu-30" transform="translate(49.8132 0) scale(0.996264)"/>
      </g>
     </g>
    </g>
    <g id="xtick_5">
     <g id="line2d_13">
      <path d="M 308.77869 178.29504 
L 308.77869 0 
" clip-path="url(#p4a547fc750)" style="fill: none; stroke-dasharray: 0.6,0.99; stroke-dashoffset: 0; stroke: #bfbfbf; stroke-opacity: 0.25; stroke-width: 0.6"/>
     </g>
     <g id="line2d_14">
      <g>
       <use xlink:href="#mded97d14c7" x="308.77869" y="178.29504" style="stroke: #000000; stroke-width: 0.5"/>
      </g>
     </g>
     <g id="line2d_15">
      <g>
       <use xlink:href="#m548a077e54" x="308.77869" y="0" style="stroke: #000000; stroke-width: 0.5"/>
      </g>
     </g>
     <g id="text_5">
      <!-- $\mathdefault{80}$ -->
      <g transform="translate(304.295502 189.374157) scale(0.09 -0.09)">
       <defs>
        <path id="NimbusRomNo9L-Regu-38" d="M 1856 2400 
C 2490 2740 2714 3008 2714 3444 
C 2714 3968 2253 4352 1613 4352 
C 915 4352 397 3924 397 3341 
C 397 2925 518 2740 1190 2151 
C 499 1626 358 1428 358 992 
C 358 372 864 -64 1587 -64 
C 2355 -64 2848 359 2848 1018 
C 2848 1511 2630 1824 1856 2400 
z
M 1741 1741 
C 2208 1408 2362 1178 2362 820 
C 2362 404 2074 116 1658 116 
C 1171 116 845 487 845 1044 
C 845 1453 986 1722 1357 2023 
L 1741 1741 
z
M 1670 2516 
C 1101 2887 870 3181 870 3540 
C 870 3911 1158 4173 1562 4173 
C 1997 4173 2272 3892 2272 3450 
C 2272 3085 2093 2797 1728 2554 
C 1696 2535 1696 2535 1670 2516 
z
" transform="scale(0.015625)"/>
       </defs>
       <use xlink:href="#NimbusRomNo9L-Regu-38" transform="scale(0.996264)"/>
       <use xlink:href="#NimbusRomNo9L-Regu-30" transform="translate(49.8132 0) scale(0.996264)"/>
      </g>
     </g>
    </g>
    <g id="xtick_6">
     <g id="line2d_16">
      <path d="M 373.189019 178.29504 
L 373.189019 0 
" clip-path="url(#p4a547fc750)" style="fill: none; stroke-dasharray: 0.6,0.99; stroke-dashoffset: 0; stroke: #bfbfbf; stroke-opacity: 0.25; stroke-width: 0.6"/>
     </g>
     <g id="line2d_17">
      <g>
       <use xlink:href="#mded97d14c7" x="373.189019" y="178.29504" style="stroke: #000000; stroke-width: 0.5"/>
      </g>
     </g>
     <g id="line2d_18">
      <g>
       <use xlink:href="#m548a077e54" x="373.189019" y="0" style="stroke: #000000; stroke-width: 0.5"/>
      </g>
     </g>
     <g id="text_6">
      <!-- $\mathdefault{100}$ -->
      <g transform="translate(366.464237 189.374157) scale(0.09 -0.09)">
       <defs>
        <path id="NimbusRomNo9L-Regu-31" d="M 1862 4339 
L 710 3757 
L 710 3667 
C 787 3699 858 3725 883 3738 
C 998 3783 1107 3808 1171 3808 
C 1306 3808 1363 3711 1363 3505 
L 1363 592 
C 1363 379 1312 232 1210 173 
C 1114 116 1024 96 755 96 
L 755 0 
L 2522 0 
L 2522 96 
C 2016 96 1914 160 1914 470 
L 1914 4327 
L 1862 4339 
z
" transform="scale(0.015625)"/>
       </defs>
       <use xlink:href="#NimbusRomNo9L-Regu-31" transform="scale(0.996264)"/>
       <use xlink:href="#NimbusRomNo9L-Regu-30" transform="translate(49.8132 0) scale(0.996264)"/>
       <use xlink:href="#NimbusRomNo9L-Regu-30" transform="translate(99.626401 0) scale(0.996264)"/>
      </g>
     </g>
    </g>
    <g id="text_7">
     <!-- time [$\mu s$] -->
     <g transform="translate(187.769633 207.096248) scale(0.13 -0.13)">
      <defs>
       <path id="NimbusRomNo9L-Regu-74" d="M 1632 2880 
L 986 2880 
L 986 3622 
C 986 3686 979 3706 941 3706 
C 896 3648 858 3590 813 3526 
C 570 3174 294 2867 192 2841 
C 122 2794 83 2748 83 2715 
C 83 2695 90 2682 109 2682 
L 448 2682 
L 448 751 
C 448 212 640 -64 1018 -64 
C 1331 -64 1574 90 1786 423 
L 1702 493 
C 1568 333 1459 269 1318 269 
C 1082 269 986 443 986 847 
L 986 2682 
L 1632 2682 
L 1632 2880 
z
" transform="scale(0.015625)"/>
       <path id="NimbusRomNo9L-Regu-69" d="M 1120 2929 
L 128 2579 
L 128 2484 
L 179 2490 
C 256 2502 339 2509 397 2509 
C 550 2509 608 2406 608 2125 
L 608 640 
C 608 179 544 109 102 109 
L 102 0 
L 1619 0 
L 1619 96 
C 1197 128 1146 191 1146 650 
L 1146 2910 
L 1120 2929 
z
M 819 4352 
C 646 4352 499 4205 499 4026 
C 499 3847 640 3699 819 3699 
C 1005 3699 1152 3840 1152 4026 
C 1152 4205 1005 4352 819 4352 
z
" transform="scale(0.015625)"/>
       <path id="NimbusRomNo9L-Regu-6d" d="M 122 2547 
C 205 2566 256 2573 326 2573 
C 493 2573 550 2470 550 2162 
L 550 539 
C 550 192 461 96 102 96 
L 102 0 
L 1523 0 
L 1523 96 
C 1184 96 1088 166 1088 418 
L 1088 2234 
C 1088 2246 1139 2310 1184 2355 
C 1344 2502 1619 2611 1843 2611 
C 2125 2611 2266 2385 2266 1932 
L 2266 528 
C 2266 167 2195 96 1830 96 
L 1830 0 
L 3264 0 
L 3264 96 
C 2899 96 2803 205 2803 603 
L 2803 2221 
C 2995 2496 3206 2611 3501 2611 
C 3866 2611 3981 2438 3981 1907 
L 3981 557 
C 3981 192 3930 141 3558 96 
L 3558 0 
L 4960 0 
L 4960 96 
L 4794 115 
C 4602 115 4518 230 4518 480 
L 4518 1802 
C 4518 2559 4269 2944 3776 2944 
C 3405 2944 3078 2778 2733 2407 
C 2618 2771 2400 2944 2054 2944 
C 1773 2944 1594 2854 1062 2451 
L 1062 2931 
L 1018 2944 
C 691 2822 474 2752 122 2656 
L 122 2547 
z
" transform="scale(0.015625)"/>
       <path id="NimbusRomNo9L-Regu-65" d="M 2611 1053 
C 2304 564 2029 378 1619 378 
C 1254 378 979 564 794 930 
C 678 1174 634 1386 621 1779 
L 2592 1779 
C 2541 2193 2477 2377 2317 2581 
C 2125 2811 1830 2944 1498 2944 
C 1178 2944 877 2829 634 2611 
C 333 2349 160 1894 160 1370 
C 160 486 621 -64 1357 -64 
C 1965 -64 2445 315 2714 1008 
L 2611 1053 
z
M 634 1984 
C 704 2479 922 2714 1312 2714 
C 1702 2714 1856 2535 1939 1984 
L 634 1984 
z
" transform="scale(0.015625)"/>
       <path id="NimbusRomNo9L-Regu-5b" d="M 1914 -864 
L 1363 -864 
C 1152 -864 1050 -756 1050 -531 
L 1050 3781 
C 1050 3981 1133 4064 1338 4064 
L 1914 4064 
L 1914 4224 
L 563 4224 
L 563 -1024 
L 1914 -1024 
L 1914 -864 
z
" transform="scale(0.015625)"/>
       <path id="StandardSymL-6d" d="M 2829 3168 
L 2259 3168 
L 2266 818 
C 2035 517 1818 388 1549 388 
C 1178 388 960 646 960 1086 
L 960 3168 
L 397 3168 
L 397 113 
C 397 -20 371 -179 326 -371 
C 218 -766 211 -804 211 -950 
C 211 -1218 346 -1408 531 -1408 
C 717 -1408 845 -1214 845 -928 
C 845 -791 826 -706 723 -330 
C 659 -96 646 -31 646 151 
L 646 229 
C 915 6 1062 -64 1280 -64 
C 1600 -64 1926 129 2266 513 
C 2317 314 2349 240 2413 148 
C 2509 17 2682 -64 2867 -64 
C 3264 -64 3539 204 3629 672 
L 3456 672 
C 3430 453 3296 280 3149 280 
C 2957 280 2829 506 2829 847 
L 2829 3168 
z
" transform="scale(0.015625)"/>
       <path id="NimbusRomNo9L-ReguItal-73" d="M 230 945 
L 102 -83 
L 205 -83 
C 256 29 294 64 358 64 
C 429 64 544 34 672 -5 
C 813 -60 922 -83 1024 -83 
C 1562 -83 1946 263 1946 749 
C 1946 992 1811 1274 1510 1645 
C 1267 1945 1165 2144 1165 2317 
C 1165 2528 1299 2663 1523 2663 
C 1856 2663 2048 2423 2112 1920 
L 2214 1920 
L 2342 2816 
L 2253 2816 
C 2202 2720 2150 2693 2061 2693 
C 2016 2693 1952 2708 1830 2744 
C 1670 2802 1574 2816 1472 2816 
C 1005 2816 698 2542 698 2114 
C 698 1910 832 1635 1101 1290 
C 1350 964 1459 741 1459 556 
C 1459 268 1267 64 986 64 
C 634 64 435 330 333 945 
L 230 945 
z
" transform="scale(0.015625)"/>
       <path id="NimbusRomNo9L-Regu-5d" d="M 218 -864 
L 218 -1024 
L 1568 -1024 
L 1568 4224 
L 218 4224 
L 218 4064 
L 768 4064 
C 979 4064 1082 3955 1082 3730 
L 1082 -582 
C 1082 -781 992 -864 794 -864 
L 218 -864 
z
" transform="scale(0.015625)"/>
      </defs>
      <use xlink:href="#NimbusRomNo9L-Regu-74" transform="scale(0.996264)"/>
      <use xlink:href="#NimbusRomNo9L-Regu-69" transform="translate(27.69517 0) scale(0.996264)"/>
      <use xlink:href="#NimbusRomNo9L-Regu-6d" transform="translate(55.390339 0) scale(0.996264)"/>
      <use xlink:href="#NimbusRomNo9L-Regu-65" transform="translate(132.898709 0) scale(0.996264)"/>
      <use xlink:href="#NimbusRomNo9L-Regu-5b" transform="translate(202.038878 0) scale(0.996264)"/>
      <use xlink:href="#StandardSymL-6d" transform="translate(237.704722 0) scale(0.996264)"/>
      <use xlink:href="#NimbusRomNo9L-ReguItal-73" transform="translate(303.357131 0) scale(0.996264)"/>
      <use xlink:href="#NimbusRomNo9L-Regu-5d" transform="translate(342.110837 0) scale(0.996264)"/>
     </g>
    </g>
   </g>
   <g id="matplotlib.axis_2">
    <g id="ytick_1">
     <g id="line2d_19">
      <path d="M 35.03479 170.656778 
L 389.291602 170.656778 
" clip-path="url(#p4a547fc750)" style="fill: none; stroke-dasharray: 0.6,0.99; stroke-dashoffset: 0; stroke: #bfbfbf; stroke-opacity: 0.25; stroke-width: 0.6"/>
     </g>
     <g id="line2d_20">
      <defs>
       <path id="m05ab3b4fc5" d="M 0 0 
L 3 0 
" style="stroke: #000000; stroke-width: 0.5"/>
      </defs>
      <g>
       <use xlink:href="#m05ab3b4fc5" x="35.03479" y="170.656778" style="stroke: #000000; stroke-width: 0.5"/>
      </g>
     </g>
     <g id="line2d_21">
      <defs>
       <path id="m5c300887ed" d="M 0 0 
L -3 0 
" style="stroke: #000000; stroke-width: 0.5"/>
      </defs>
      <g>
       <use xlink:href="#m5c300887ed" x="389.291602" y="170.656778" style="stroke: #000000; stroke-width: 0.5"/>
      </g>
     </g>
     <g id="text_8">
      <!-- $\mathdefault{0.0}$ -->
      <g transform="translate(18.584822 173.696337) scale(0.09 -0.09)">
       <defs>
        <path id="CMMI10-3a" d="M 1229 338 
C 1229 522 1075 675 890 675 
C 704 675 550 522 550 338 
C 550 153 704 0 890 0 
C 1075 0 1229 153 1229 338 
z
" transform="scale(0.015625)"/>
       </defs>
       <use xlink:href="#NimbusRomNo9L-Regu-30" transform="scale(0.996264)"/>
       <use xlink:href="#CMMI10-3a" transform="translate(49.8132 0) scale(0.996264)"/>
       <use xlink:href="#NimbusRomNo9L-Regu-30" transform="translate(77.408707 0) scale(0.996264)"/>
      </g>
     </g>
    </g>
    <g id="ytick_2">
     <g id="line2d_22">
      <path d="M 35.03479 135.911038 
L 389.291602 135.911038 
" clip-path="url(#p4a547fc750)" style="fill: none; stroke-dasharray: 0.6,0.99; stroke-dashoffset: 0; stroke: #bfbfbf; stroke-opacity: 0.25; stroke-width: 0.6"/>
     </g>
     <g id="line2d_23">
      <g>
       <use xlink:href="#m05ab3b4fc5" x="35.03479" y="135.911038" style="stroke: #000000; stroke-width: 0.5"/>
      </g>
     </g>
     <g id="line2d_24">
      <g>
       <use xlink:href="#m5c300887ed" x="389.291602" y="135.911038" style="stroke: #000000; stroke-width: 0.5"/>
      </g>
     </g>
     <g id="text_9">
      <!-- $\mathdefault{0.2}$ -->
      <g transform="translate(18.584822 138.950597) scale(0.09 -0.09)">
       <use xlink:href="#NimbusRomNo9L-Regu-30" transform="scale(0.996264)"/>
       <use xlink:href="#CMMI10-3a" transform="translate(49.8132 0) scale(0.996264)"/>
       <use xlink:href="#NimbusRomNo9L-Regu-32" transform="translate(77.408707 0) scale(0.996264)"/>
      </g>
     </g>
    </g>
    <g id="ytick_3">
     <g id="line2d_25">
      <path d="M 35.03479 101.165298 
L 389.291602 101.165298 
" clip-path="url(#p4a547fc750)" style="fill: none; stroke-dasharray: 0.6,0.99; stroke-dashoffset: 0; stroke: #bfbfbf; stroke-opacity: 0.25; stroke-width: 0.6"/>
     </g>
     <g id="line2d_26">
      <g>
       <use xlink:href="#m05ab3b4fc5" x="35.03479" y="101.165298" style="stroke: #000000; stroke-width: 0.5"/>
      </g>
     </g>
     <g id="line2d_27">
      <g>
       <use xlink:href="#m5c300887ed" x="389.291602" y="101.165298" style="stroke: #000000; stroke-width: 0.5"/>
      </g>
     </g>
     <g id="text_10">
      <!-- $\mathdefault{0.4}$ -->
      <g transform="translate(18.584822 104.204857) scale(0.09 -0.09)">
       <use xlink:href="#NimbusRomNo9L-Regu-30" transform="scale(0.996264)"/>
       <use xlink:href="#CMMI10-3a" transform="translate(49.8132 0) scale(0.996264)"/>
       <use xlink:href="#NimbusRomNo9L-Regu-34" transform="translate(77.408707 0) scale(0.996264)"/>
      </g>
     </g>
    </g>
    <g id="ytick_4">
     <g id="line2d_28">
      <path d="M 35.03479 66.419558 
L 389.291602 66.419558 
" clip-path="url(#p4a547fc750)" style="fill: none; stroke-dasharray: 0.6,0.99; stroke-dashoffset: 0; stroke: #bfbfbf; stroke-opacity: 0.25; stroke-width: 0.6"/>
     </g>
     <g id="line2d_29">
      <g>
       <use xlink:href="#m05ab3b4fc5" x="35.03479" y="66.419558" style="stroke: #000000; stroke-width: 0.5"/>
      </g>
     </g>
     <g id="line2d_30">
      <g>
       <use xlink:href="#m5c300887ed" x="389.291602" y="66.419558" style="stroke: #000000; stroke-width: 0.5"/>
      </g>
     </g>
     <g id="text_11">
      <!-- $\mathdefault{0.6}$ -->
      <g transform="translate(18.584822 69.459117) scale(0.09 -0.09)">
       <use xlink:href="#NimbusRomNo9L-Regu-30" transform="scale(0.996264)"/>
       <use xlink:href="#CMMI10-3a" transform="translate(49.8132 0) scale(0.996264)"/>
       <use xlink:href="#NimbusRomNo9L-Regu-36" transform="translate(77.408707 0) scale(0.996264)"/>
      </g>
     </g>
    </g>
    <g id="ytick_5">
     <g id="line2d_31">
      <path d="M 35.03479 31.673818 
L 389.291602 31.673818 
" clip-path="url(#p4a547fc750)" style="fill: none; stroke-dasharray: 0.6,0.99; stroke-dashoffset: 0; stroke: #bfbfbf; stroke-opacity: 0.25; stroke-width: 0.6"/>
     </g>
     <g id="line2d_32">
      <g>
       <use xlink:href="#m05ab3b4fc5" x="35.03479" y="31.673818" style="stroke: #000000; stroke-width: 0.5"/>
      </g>
     </g>
     <g id="line2d_33">
      <g>
       <use xlink:href="#m5c300887ed" x="389.291602" y="31.673818" style="stroke: #000000; stroke-width: 0.5"/>
      </g>
     </g>
     <g id="text_12">
      <!-- $\mathdefault{0.8}$ -->
      <g transform="translate(18.584822 34.713377) scale(0.09 -0.09)">
       <use xlink:href="#NimbusRomNo9L-Regu-30" transform="scale(0.996264)"/>
       <use xlink:href="#CMMI10-3a" transform="translate(49.8132 0) scale(0.996264)"/>
       <use xlink:href="#NimbusRomNo9L-Regu-38" transform="translate(77.408707 0) scale(0.996264)"/>
      </g>
     </g>
    </g>
    <g id="text_13">
     <!-- Coupling $\eta$ -->
     <g transform="translate(8.780945 118.780142) rotate(-90) scale(0.13 -0.13)">
      <defs>
       <path id="NimbusRomNo9L-Regu-43" d="M 3968 2906 
L 3910 4352 
L 3776 4352 
C 3738 4218 3635 4141 3507 4141 
C 3450 4141 3354 4160 3258 4199 
C 2944 4301 2624 4352 2323 4352 
C 1798 4352 1267 4154 870 3802 
C 422 3405 179 2810 179 2106 
C 179 1511 371 960 698 596 
C 1082 180 1670 -64 2304 -64 
C 3027 -64 3661 231 4051 749 
L 3936 864 
C 3462 410 3040 218 2509 218 
C 2106 218 1747 346 1472 589 
C 1120 903 922 1479 922 2189 
C 922 3348 1517 4096 2445 4096 
C 2810 4096 3142 3962 3398 3706 
C 3603 3501 3699 3322 3821 2906 
L 3968 2906 
z
" transform="scale(0.015625)"/>
       <path id="NimbusRomNo9L-Regu-6f" d="M 1600 2944 
C 768 2944 186 2330 186 1446 
C 186 582 781 -64 1587 -64 
C 2394 -64 3008 614 3008 1498 
C 3008 2336 2419 2944 1600 2944 
z
M 1517 2765 
C 2054 2765 2432 2150 2432 1274 
C 2432 550 2144 115 1664 115 
C 1414 115 1178 269 1043 525 
C 864 858 762 1306 762 1760 
C 762 2368 1062 2765 1517 2765 
z
" transform="scale(0.015625)"/>
       <path id="NimbusRomNo9L-Regu-75" d="M 3066 320 
L 3034 320 
C 2739 320 2669 390 2669 685 
L 2669 2880 
L 1658 2880 
L 1658 2758 
C 2054 2758 2131 2694 2131 2375 
L 2131 875 
C 2131 697 2099 607 2010 537 
C 1837 397 1638 320 1446 320 
C 1197 320 992 537 992 805 
L 992 2880 
L 58 2880 
L 58 2778 
C 365 2778 454 2682 454 2387 
L 454 770 
C 454 263 762 -64 1229 -64 
C 1466 -64 1715 38 1888 211 
L 2163 486 
L 2163 -45 
L 2189 -58 
C 2509 70 2739 141 3066 230 
L 3066 320 
z
" transform="scale(0.015625)"/>
       <path id="NimbusRomNo9L-Regu-70" d="M 58 2516 
C 115 2522 160 2522 218 2522 
C 435 2522 480 2458 480 2155 
L 480 -855 
C 480 -1189 410 -1261 32 -1299 
L 32 -1408 
L 1581 -1408 
L 1581 -1293 
C 1101 -1293 1018 -1222 1018 -816 
L 1018 199 
C 1242 -13 1395 -77 1664 -77 
C 2419 -77 3008 643 3008 1575 
C 3008 2372 2560 2944 1939 2944 
C 1581 2944 1299 2784 1018 2438 
L 1018 2931 
L 979 2944 
C 634 2810 410 2726 58 2618 
L 58 2516 
z
M 1018 2136 
C 1018 2329 1376 2560 1670 2560 
C 2144 2560 2458 2071 2458 1324 
C 2458 611 2144 128 1683 128 
C 1382 128 1018 359 1018 552 
L 1018 2136 
z
" transform="scale(0.015625)"/>
       <path id="NimbusRomNo9L-Regu-6c" d="M 122 4000 
L 160 4000 
C 230 4000 307 4000 358 4000 
C 563 4000 627 3910 627 3610 
L 627 557 
C 627 211 538 128 134 96 
L 134 0 
L 1645 0 
L 1645 109 
C 1242 109 1165 173 1165 528 
L 1165 4371 
L 1139 4384 
C 806 4275 563 4211 122 4103 
L 122 4000 
z
" transform="scale(0.015625)"/>
       <path id="NimbusRomNo9L-Regu-6e" d="M 102 2579 
C 141 2598 205 2605 275 2605 
C 454 2605 512 2509 512 2195 
L 512 608 
C 512 243 442 154 115 128 
L 115 32 
L 1472 32 
L 1472 128 
C 1146 154 1050 230 1050 461 
L 1050 2259 
C 1357 2547 1498 2624 1709 2624 
C 2022 2624 2176 2426 2176 2003 
L 2176 666 
C 2176 262 2093 154 1773 128 
L 1773 32 
L 3104 32 
L 3104 128 
C 2790 160 2714 237 2714 550 
L 2714 2016 
C 2714 2618 2432 2976 1958 2976 
C 1664 2976 1466 2867 1030 2458 
L 1030 2963 
L 986 2976 
C 672 2861 454 2790 102 2688 
L 102 2579 
z
" transform="scale(0.015625)"/>
       <path id="NimbusRomNo9L-Regu-67" d="M 3008 2496 
L 3008 2746 
L 2515 2746 
C 2387 2746 2291 2763 2163 2802 
L 2022 2847 
C 1850 2903 1677 2931 1510 2931 
C 915 2931 442 2467 442 1881 
C 442 1476 614 1230 1037 1018 
C 915 906 800 799 762 768 
C 550 588 467 463 467 338 
C 467 206 544 131 806 6 
C 352 -329 179 -543 179 -781 
C 179 -1124 678 -1408 1286 -1408 
C 1766 -1408 2266 -1238 2598 -962 
C 2842 -759 2950 -548 2950 -299 
C 2950 108 2650 384 2176 384 
L 1350 384 
C 1011 384 851 443 851 548 
C 851 678 1062 908 1235 960 
C 1293 953 1338 947 1357 947 
C 1478 934 1562 928 1600 928 
C 1837 928 2093 1026 2291 1203 
C 2502 1387 2598 1617 2598 1945 
C 2598 2135 2566 2286 2477 2496 
L 3008 2496 
z
M 941 -13 
C 1152 -58 1664 -96 1978 -96 
C 2560 -96 2771 -180 2771 -414 
C 2771 -791 2285 -1043 1562 -1043 
C 998 -1043 627 -855 627 -570 
C 627 -420 672 -336 941 -13 
z
M 973 2145 
C 973 2526 1152 2752 1446 2752 
C 1645 2752 1811 2642 1914 2449 
C 2029 2223 2106 1927 2106 1675 
C 2106 1314 1920 1088 1626 1088 
C 1242 1088 973 1507 973 2126 
L 973 2145 
z
" transform="scale(0.015625)"/>
       <path id="StandardSymL-68" d="M 762 3 
L 1325 3 
L 1325 2317 
C 1555 2660 1779 2819 2061 2819 
C 2426 2819 2650 2571 2650 2164 
L 2650 -626 
C 2650 -842 2688 -1083 2778 -1408 
L 3373 -1408 
C 3270 -1096 3232 -931 3232 -772 
L 3232 2349 
C 3232 2876 2848 3264 2317 3264 
C 1939 3264 1670 3092 1325 2616 
C 1293 2803 1261 2884 1203 2971 
C 1094 3113 909 3200 717 3200 
C 461 3200 218 3043 96 2793 
C 26 2642 0 2510 0 2279 
L 154 2279 
C 192 2663 282 2844 435 2844 
C 627 2844 768 2597 768 2255 
L 762 3 
z
" transform="scale(0.015625)"/>
      </defs>
      <use xlink:href="#NimbusRomNo9L-Regu-43" transform="scale(0.996264)"/>
      <use xlink:href="#NimbusRomNo9L-Regu-6f" transform="translate(66.450031 0) scale(0.996264)"/>
      <use xlink:href="#NimbusRomNo9L-Regu-75" transform="translate(116.263232 0) scale(0.996264)"/>
      <use xlink:href="#NimbusRomNo9L-Regu-70" transform="translate(166.076432 0) scale(0.996264)"/>
      <use xlink:href="#NimbusRomNo9L-Regu-6c" transform="translate(215.889633 0) scale(0.996264)"/>
      <use xlink:href="#NimbusRomNo9L-Regu-69" transform="translate(243.584802 0) scale(0.996264)"/>
      <use xlink:href="#NimbusRomNo9L-Regu-6e" transform="translate(271.279972 0) scale(0.996264)"/>
      <use xlink:href="#NimbusRomNo9L-Regu-67" transform="translate(321.093172 0) scale(0.996264)"/>
      <use xlink:href="#StandardSymL-68" transform="translate(395.812973 0) scale(0.996264)"/>
     </g>
    </g>
   </g>
   <g id="line2d_34">
    <path d="M 51.137372 8.10432 
L 52.755722 56.101332 
L 54.374072 85.02111 
L 55.992422 101.998454 
L 57.610772 114.643347 
L 59.229122 123.334529 
L 60.847472 129.471369 
L 62.465822 134.814214 
L 64.084172 138.830684 
L 65.702522 142.513317 
L 67.320872 145.650174 
L 68.939222 148.394979 
L 70.557572 150.440928 
L 75.412622 154.802297 
L 77.030972 156.004063 
L 81.886022 158.759284 
L 85.122722 160.172641 
L 86.741072 160.797721 
L 88.359422 161.269571 
L 89.977772 161.881348 
L 94.832822 163.025977 
L 96.451172 163.386257 
L 99.687872 163.853183 
L 109.397971 165.365345 
L 112.634671 165.8266 
L 115.871371 166.263738 
L 117.489721 166.312788 
L 119.108071 166.550021 
L 120.726421 166.545136 
L 123.963121 166.832378 
L 132.054871 167.334745 
L 133.673221 167.52375 
L 145.001671 167.950042 
L 146.620021 168.063485 
L 149.856721 168.123264 
L 190.315471 169.087244 
L 198.407221 169.14397 
L 203.262271 169.250837 
L 292.27152 169.961518 
L 301.98162 169.989191 
L 314.92842 170.017083 
L 327.87522 170.058497 
L 373.189019 170.188928 
L 373.189019 170.188928 
" clip-path="url(#p4a547fc750)" style="fill: none; stroke: #1f77b4; stroke-width: 1.8; stroke-linecap: square"/>
   </g>
   <g id="line2d_35">
    <path d="M 51.137372 10.268483 
L 52.755722 160.601678 
L 54.374072 161.352851 
L 55.992422 162.300914 
L 62.465822 164.259164 
L 64.084172 164.460325 
L 67.320872 165.03208 
L 68.939222 165.233448 
L 70.557572 165.638997 
L 73.794272 165.936735 
L 78.649322 166.474809 
L 85.122722 167.031174 
L 86.741072 166.976233 
L 88.359422 167.197865 
L 93.214472 167.497403 
L 94.832822 167.471614 
L 96.451172 167.705264 
L 98.069522 167.662319 
L 101.306222 167.968988 
L 104.542921 168.005068 
L 109.397971 168.136157 
L 111.016321 168.317105 
L 114.253021 168.315885 
L 115.871371 168.442902 
L 120.726421 168.526256 
L 122.344771 168.627041 
L 123.963121 168.533105 
L 178.987021 169.285263 
L 206.498971 169.542938 
L 212.972371 169.556014 
L 227.53752 169.696583 
L 238.86597 169.706587 
L 243.72102 169.765408 
L 248.57607 169.752955 
L 255.04947 169.776664 
L 267.99627 169.789286 
L 271.23297 169.806219 
L 292.27152 169.897912 
L 339.20367 169.988379 
L 350.532119 170.050912 
L 373.189019 170.086471 
L 373.189019 170.086471 
" clip-path="url(#p4a547fc750)" style="fill: none; stroke: #ff7f0e; stroke-width: 1.8; stroke-linecap: square"/>
   </g>
   <g id="line2d_36">
    <path d="M 51.137372 15.488998 
L 52.755722 154.901681 
L 54.374072 155.863523 
L 55.992422 157.32082 
L 57.610772 157.986652 
L 59.229122 158.165952 
L 60.847472 159.544634 
L 62.465822 159.59406 
L 65.702522 161.046899 
L 68.939222 161.74991 
L 70.557572 162.210572 
L 72.175922 162.530807 
L 73.794272 163.070682 
L 75.412622 163.164498 
L 77.030972 163.57026 
L 78.649322 163.820572 
L 80.267672 164.190516 
L 83.504372 164.474555 
L 85.122722 164.786061 
L 88.359422 164.958096 
L 89.977772 165.301427 
L 91.596122 165.316809 
L 93.214472 165.593311 
L 94.832822 165.566481 
L 96.451172 165.659924 
L 98.069522 165.636066 
L 99.687872 165.914743 
L 102.924572 166.038 
L 104.542921 166.268744 
L 106.161271 166.191449 
L 119.108071 166.841816 
L 120.726421 166.732671 
L 122.344771 166.953016 
L 128.818171 167.054192 
L 130.436521 167.198036 
L 135.291571 167.377636 
L 136.909921 167.559444 
L 138.528271 167.50862 
L 143.383321 167.7613 
L 145.001671 167.771101 
L 146.620021 167.956683 
L 149.856721 167.919872 
L 151.475071 167.962302 
L 153.093421 167.86136 
L 157.948471 168.080434 
L 162.803521 168.097068 
L 164.421871 168.261341 
L 167.658571 168.209701 
L 185.460421 168.537091 
L 188.697121 168.610705 
L 190.315471 168.527236 
L 193.552171 168.677183 
L 196.788871 168.605599 
L 198.407221 168.696615 
L 201.643921 168.648272 
L 230.77422 168.980344 
L 243.72102 169.099324 
L 250.19442 169.178319 
L 256.66782 169.094208 
L 261.52287 169.130098 
L 267.99627 169.187009 
L 290.65317 169.217208 
L 306.83667 169.383293 
L 310.07337 169.342888 
L 316.54677 169.409419 
L 321.40182 169.448479 
L 324.63852 169.527151 
L 337.58532 169.547232 
L 345.677069 169.494824 
L 350.532119 169.548267 
L 353.768819 169.599888 
L 358.623869 169.6274 
L 373.189019 169.625023 
L 373.189019 169.625023 
" clip-path="url(#p4a547fc750)" style="fill: none; stroke: #2ca02c; stroke-width: 1.8; stroke-linecap: square"/>
   </g>
   <g id="line2d_37">
    <path d="M 51.137372 40.996993 
L 52.755722 124.534167 
L 54.374072 127.677807 
L 55.992422 131.370553 
L 57.610772 132.78301 
L 60.847472 136.094759 
L 62.465822 138.717363 
L 64.084172 138.74047 
L 65.702522 141.109233 
L 67.320872 142.186617 
L 68.939222 143.99875 
L 70.557572 145.071447 
L 72.175922 145.410241 
L 75.412622 148.197943 
L 77.030972 149.372551 
L 78.649322 149.526154 
L 80.267672 150.072235 
L 83.504372 151.605621 
L 85.122722 152.483117 
L 86.741072 152.852143 
L 88.359422 153.503844 
L 89.977772 154.402016 
L 91.596122 154.359379 
L 93.214472 154.485299 
L 94.832822 154.400748 
L 96.451172 154.856188 
L 98.069522 155.642883 
L 99.687872 155.806971 
L 101.306222 156.758444 
L 102.924572 156.559866 
L 107.779621 157.506872 
L 109.397971 158.579188 
L 112.634671 158.117006 
L 115.871371 158.251867 
L 117.489721 159.125993 
L 120.726421 159.336444 
L 122.344771 159.361619 
L 125.581471 159.184081 
L 127.199821 159.84745 
L 128.818171 159.702324 
L 132.054871 160.877197 
L 133.673221 161.305674 
L 135.291571 160.512311 
L 136.909921 161.097202 
L 138.528271 160.905834 
L 140.146621 161.444213 
L 141.764971 161.386915 
L 146.620021 161.80174 
L 148.238371 162.309547 
L 149.856721 162.242688 
L 153.093421 162.909059 
L 154.711771 162.714462 
L 157.948471 162.903502 
L 159.566821 163.468246 
L 161.185171 163.34862 
L 162.803521 163.080105 
L 164.421871 163.409564 
L 166.040221 163.402103 
L 167.658571 163.641509 
L 169.276921 163.0224 
L 170.895271 163.361988 
L 172.513621 163.102815 
L 174.131971 163.574025 
L 175.750321 163.270126 
L 177.368671 163.427159 
L 180.605371 164.015292 
L 182.223721 163.702237 
L 183.842071 163.643372 
L 185.460421 164.119588 
L 187.078771 163.869595 
L 188.697121 163.987888 
L 191.933821 163.932444 
L 193.552171 163.792103 
L 196.788871 164.265516 
L 198.407221 164.343929 
L 200.025571 164.912316 
L 201.643921 165.098689 
L 203.262271 164.83063 
L 206.498971 164.459226 
L 208.117321 164.78522 
L 209.735671 164.785227 
L 211.354021 165.023621 
L 214.590721 165.308796 
L 216.209071 165.92425 
L 217.827421 165.779261 
L 219.445771 166.074098 
L 221.064121 165.983946 
L 222.68247 166.166053 
L 224.30082 165.932865 
L 225.91917 166.094169 
L 227.53752 166.122929 
L 229.15587 166.390811 
L 234.01092 165.869451 
L 238.86597 166.043314 
L 240.48432 165.869887 
L 245.33937 166.313288 
L 246.95772 166.282909 
L 250.19442 166.783793 
L 251.81277 166.952448 
L 253.43112 167.255766 
L 255.04947 166.986091 
L 258.28617 166.919955 
L 259.90452 167.051986 
L 269.61462 166.433497 
L 271.23297 165.983052 
L 272.85132 165.893651 
L 274.46967 166.128064 
L 276.08802 166.206644 
L 279.32472 166.035727 
L 280.94307 166.037289 
L 282.56142 166.356055 
L 284.17977 166.269831 
L 287.41647 166.677548 
L 289.03482 166.720669 
L 290.65317 166.928117 
L 292.27152 166.750568 
L 293.88987 166.973777 
L 295.50822 166.948167 
L 297.12657 166.753175 
L 300.36327 167.301894 
L 301.98162 167.279224 
L 303.59997 167.125589 
L 305.21832 167.334932 
L 306.83667 167.036502 
L 308.45502 167.39478 
L 310.07337 167.167486 
L 311.69172 167.464899 
L 313.31007 167.351813 
L 318.16512 167.494341 
L 323.02017 167.1462 
L 324.63852 167.575959 
L 326.25687 167.349854 
L 329.49357 167.286173 
L 331.11192 167.093473 
L 332.73027 167.249904 
L 337.58532 167.342784 
L 339.20367 167.661092 
L 342.440369 167.568313 
L 344.058719 167.753959 
L 345.677069 167.750787 
L 347.295419 168.026891 
L 348.913769 167.999896 
L 350.532119 168.105249 
L 353.768819 167.935093 
L 358.623869 168.391427 
L 360.242219 168.531761 
L 361.860569 168.462996 
L 363.478919 168.202302 
L 365.097269 168.348661 
L 366.715619 168.352492 
L 368.333969 168.502 
L 369.952319 168.504106 
L 371.570669 168.62268 
L 373.189019 168.427071 
L 373.189019 168.427071 
" clip-path="url(#p4a547fc750)" style="fill: none; stroke: #d62728; stroke-width: 1.8; stroke-linecap: square"/>
   </g>
   <g id="patch_3">
    <path d="M 35.03479 178.29504 
L 35.03479 0 
" style="fill: none; stroke: #000000; stroke-width: 0.7; stroke-linejoin: miter; stroke-linecap: square"/>
   </g>
   <g id="patch_4">
    <path d="M 389.291602 178.29504 
L 389.291602 0 
" style="fill: none; stroke: #000000; stroke-width: 0.7; stroke-linejoin: miter; stroke-linecap: square"/>
   </g>
   <g id="patch_5">
    <path d="M 35.03479 178.29504 
L 389.291602 178.29504 
" style="fill: none; stroke: #000000; stroke-width: 0.7; stroke-linejoin: miter; stroke-linecap: square"/>
   </g>
   <g id="patch_6">
    <path d="M 35.03479 0 
L 389.291602 0 
" style="fill: none; stroke: #000000; stroke-width: 0.7; stroke-linejoin: miter; stroke-linecap: square"/>
   </g>
   <g id="legend_1">
    <g id="patch_7">
     <path d="M 318.756625 56.522115 
L 386.091602 56.522115 
L 386.091602 3.2 
L 318.756625 3.2 
z
" style="fill: #ffffff; opacity: 0.8; stroke: #cccccc; stroke-linejoin: miter"/>
    </g>
    <g id="text_14">
     <!-- Angle (Degree)= -->
     <g transform="translate(321.956625 12.479117) scale(0.09 -0.09)">
      <defs>
       <path id="NimbusRomNo9L-Regu-41" d="M 4518 128 
C 4230 128 4166 192 3942 667 
L 2349 4320 
L 2221 4320 
L 890 1168 
C 480 231 403 128 96 128 
L 96 0 
L 1363 0 
L 1363 128 
C 1056 128 928 212 928 393 
C 928 470 947 560 979 645 
L 1274 1401 
L 2950 1401 
L 3213 778 
C 3290 602 3334 434 3334 342 
C 3334 180 3226 128 2886 128 
L 2886 0 
L 4518 0 
L 4518 128 
z
M 1382 1664 
L 2118 3416 
L 2861 1664 
L 1382 1664 
z
" transform="scale(0.015625)"/>
       <path id="NimbusRomNo9L-Regu-28" d="M 1888 4326 
C 1414 4019 1222 3853 986 3558 
C 531 3002 307 2362 307 1613 
C 307 800 544 173 1107 -480 
C 1370 -787 1536 -928 1869 -1133 
L 1946 -1030 
C 1434 -627 1254 -403 1082 77 
C 928 506 858 992 858 1632 
C 858 2304 941 2829 1114 3226 
C 1293 3622 1485 3853 1946 4224 
L 1888 4326 
z
" transform="scale(0.015625)"/>
       <path id="NimbusRomNo9L-Regu-44" d="M 666 679 
C 666 217 589 134 102 134 
L 102 0 
L 1920 0 
C 2662 0 3334 210 3731 568 
C 4147 944 4384 1512 4384 2131 
C 4384 2706 4192 3203 3840 3554 
C 3405 3994 2707 4224 1830 4224 
L 102 4224 
L 102 4102 
C 608 4057 666 4000 666 3525 
L 666 679 
z
M 1318 3738 
C 1318 3936 1389 3987 1651 3987 
C 2202 3987 2618 3885 2925 3668 
C 3424 3323 3686 2775 3686 2087 
C 3686 1334 3424 798 2906 498 
C 2579 314 2208 237 1651 237 
C 1395 237 1318 294 1318 498 
L 1318 3738 
z
" transform="scale(0.015625)"/>
       <path id="NimbusRomNo9L-Regu-72" d="M 45 2496 
C 134 2515 192 2522 269 2522 
C 429 2522 486 2419 486 2138 
L 486 538 
C 486 218 442 173 32 96 
L 32 0 
L 1568 0 
L 1568 102 
C 1133 102 1024 199 1024 565 
L 1024 2013 
C 1024 2219 1299 2541 1472 2541 
C 1510 2541 1568 2509 1638 2445 
C 1741 2355 1811 2317 1894 2317 
C 2048 2317 2144 2426 2144 2605 
C 2144 2816 2010 2944 1792 2944 
C 1523 2944 1338 2797 1024 2343 
L 1024 2931 
L 992 2944 
C 653 2803 422 2721 45 2599 
L 45 2496 
z
" transform="scale(0.015625)"/>
       <path id="NimbusRomNo9L-Regu-29" d="M 243 -1133 
C 717 -826 909 -659 1146 -365 
C 1600 192 1824 832 1824 1581 
C 1824 2400 1587 3021 1024 3674 
C 762 3981 595 4122 262 4326 
L 186 4224 
C 698 3821 870 3597 1050 3117 
C 1203 2688 1274 2202 1274 1562 
C 1274 896 1190 365 1018 -26 
C 838 -429 646 -659 186 -1030 
L 243 -1133 
z
" transform="scale(0.015625)"/>
       <path id="NimbusRomNo9L-Regu-3d" d="M 3418 2470 
L 192 2470 
L 192 2048 
L 3418 2048 
L 3418 2470 
z
M 3418 1190 
L 192 1190 
L 192 768 
L 3418 768 
L 3418 1190 
z
" transform="scale(0.015625)"/>
      </defs>
      <use xlink:href="#NimbusRomNo9L-Regu-41" transform="scale(0.996264)"/>
      <use xlink:href="#NimbusRomNo9L-Regu-6e" transform="translate(71.929985 0) scale(0.996264)"/>
      <use xlink:href="#NimbusRomNo9L-Regu-67" transform="translate(121.743185 0) scale(0.996264)"/>
      <use xlink:href="#NimbusRomNo9L-Regu-6c" transform="translate(171.556386 0) scale(0.996264)"/>
      <use xlink:href="#NimbusRomNo9L-Regu-65" transform="translate(199.251555 0) scale(0.996264)"/>
      <use xlink:href="#NimbusRomNo9L-Regu-28" transform="translate(268.391724 0) scale(0.996264)"/>
      <use xlink:href="#NimbusRomNo9L-Regu-44" transform="translate(301.566954 0) scale(0.996264)"/>
      <use xlink:href="#NimbusRomNo9L-Regu-65" transform="translate(373.496939 0) scale(0.996264)"/>
      <use xlink:href="#NimbusRomNo9L-Regu-67" transform="translate(416.237115 0) scale(0.996264)"/>
      <use xlink:href="#NimbusRomNo9L-Regu-72" transform="translate(466.050315 0) scale(0.996264)"/>
      <use xlink:href="#NimbusRomNo9L-Regu-65" transform="translate(499.225545 0) scale(0.996264)"/>
      <use xlink:href="#NimbusRomNo9L-Regu-65" transform="translate(543.459114 0) scale(0.996264)"/>
      <use xlink:href="#NimbusRomNo9L-Regu-29" transform="translate(587.692683 0) scale(0.996264)"/>
      <use xlink:href="#NimbusRomNo9L-Regu-3d" transform="translate(620.867912 0) scale(0.996264)"/>
     </g>
    </g>
    <g id="line2d_38">
     <path d="M 338.242793 19.620263 
L 345.442793 19.620263 
L 352.642793 19.620263 
" style="fill: none; stroke: #1f77b4; stroke-width: 1.8; stroke-linecap: square"/>
    </g>
    <g id="text_15">
     <!-- 0.0 -->
     <g transform="translate(356.642793 22.420263) scale(0.08 -0.08)">
      <defs>
       <path id="NimbusRomNo9L-Regu-2e" d="M 800 646 
C 608 646 448 480 448 281 
C 448 96 608 -64 794 -64 
C 992 -64 1158 96 1158 281 
C 1158 480 992 646 800 646 
z
" transform="scale(0.015625)"/>
      </defs>
      <use xlink:href="#NimbusRomNo9L-Regu-30" transform="scale(0.996264)"/>
      <use xlink:href="#NimbusRomNo9L-Regu-2e" transform="translate(49.8132 0) scale(0.996264)"/>
      <use xlink:href="#NimbusRomNo9L-Regu-30" transform="translate(74.719801 0) scale(0.996264)"/>
     </g>
    </g>
    <g id="line2d_39">
     <path d="M 338.242793 29.345726 
L 345.442793 29.345726 
L 352.642793 29.345726 
" style="fill: none; stroke: #ff7f0e; stroke-width: 1.8; stroke-linecap: square"/>
    </g>
    <g id="text_16">
     <!-- 0.5 -->
     <g transform="translate(356.642793 32.145726) scale(0.08 -0.08)">
      <defs>
       <path id="NimbusRomNo9L-Regu-35" d="M 1158 3776 
L 2413 3776 
C 2515 3776 2541 3789 2560 3834 
L 2803 4403 
L 2746 4448 
C 2650 4314 2586 4282 2451 4282 
L 1114 4282 
L 416 2759 
C 410 2746 410 2740 410 2727 
C 410 2695 435 2676 486 2676 
C 691 2676 947 2631 1210 2547 
C 1946 2309 2285 1910 2285 1274 
C 2285 656 1894 173 1395 173 
C 1267 173 1158 218 966 360 
C 762 508 614 572 480 572 
C 294 572 205 495 205 334 
C 205 90 506 -64 986 -64 
C 1523 -64 1984 110 2304 438 
C 2598 728 2733 1094 2733 1583 
C 2733 2046 2611 2342 2291 2663 
C 2010 2947 1645 3094 890 3229 
L 1158 3776 
z
" transform="scale(0.015625)"/>
      </defs>
      <use xlink:href="#NimbusRomNo9L-Regu-30" transform="scale(0.996264)"/>
      <use xlink:href="#NimbusRomNo9L-Regu-2e" transform="translate(49.8132 0) scale(0.996264)"/>
      <use xlink:href="#NimbusRomNo9L-Regu-35" transform="translate(74.719801 0) scale(0.996264)"/>
     </g>
    </g>
    <g id="line2d_40">
     <path d="M 338.242793 39.071189 
L 345.442793 39.071189 
L 352.642793 39.071189 
" style="fill: none; stroke: #2ca02c; stroke-width: 1.8; stroke-linecap: square"/>
    </g>
    <g id="text_17">
     <!-- 1.0 -->
     <g transform="translate(356.642793 41.871189) scale(0.08 -0.08)">
      <use xlink:href="#NimbusRomNo9L-Regu-31" transform="scale(0.996264)"/>
      <use xlink:href="#NimbusRomNo9L-Regu-2e" transform="translate(49.8132 0) scale(0.996264)"/>
      <use xlink:href="#NimbusRomNo9L-Regu-30" transform="translate(74.719801 0) scale(0.996264)"/>
     </g>
    </g>
    <g id="line2d_41">
     <path d="M 338.242793 48.796652 
L 345.442793 48.796652 
L 352.642793 48.796652 
" style="fill: none; stroke: #d62728; stroke-width: 1.8; stroke-linecap: square"/>
    </g>
    <g id="text_18">
     <!-- 5.0 -->
     <g transform="translate(356.642793 51.596652) scale(0.08 -0.08)">
      <use xlink:href="#NimbusRomNo9L-Regu-35" transform="scale(0.996264)"/>
      <use xlink:href="#NimbusRomNo9L-Regu-2e" transform="translate(49.8132 0) scale(0.996264)"/>
      <use xlink:href="#NimbusRomNo9L-Regu-30" transform="translate(74.719801 0) scale(0.996264)"/>
     </g>
    </g>
   </g>
  </g>
 </g>
 <defs>
  <clipPath id="p4a547fc750">
   <rect x="35.03479" y="0" width="354.256812" height="178.29504"/>
  </clipPath>
 </defs>
</svg>
