<?xml version="1.0" encoding="utf-8" standalone="no"?>
<!DOCTYPE svg PUBLIC "-//W3C//DTD SVG 1.1//EN"
  "http://www.w3.org/Graphics/SVG/1.1/DTD/svg11.dtd">
<svg xmlns:xlink="http://www.w3.org/1999/xlink" width="389.291602pt" height="210.172131pt" viewBox="0 0 389.291602 210.172131" xmlns="http://www.w3.org/2000/svg" version="1.1">
 <metadata>
  <rdf:RDF xmlns:dc="http://purl.org/dc/elements/1.1/" xmlns:cc="http://creativecommons.org/ns#" xmlns:rdf="http://www.w3.org/1999/02/22-rdf-syntax-ns#">
   <cc:Work>
    <dc:type rdf:resource="http://purl.org/dc/dcmitype/StillImage"/>
    <dc:date>2026-07-23T13:49:36.579489</dc:date>
    <dc:format>image/svg+xml</dc:format>
    <dc:creator>
     <cc:Agent>
      <dc:title>Matplotlib v3.10.9, https://matplotlib.org/</dc:title>
     </cc:Agent>
    </dc:creator>
   </cc:Work>
  </rdf:RDF>
 </metadata>
 <defs>
  <style type="text/css">*{stroke-linejoin: round; stroke-linecap: butt}</style>
 </defs>
 <g id="figure_1">
  <g id="patch_1">
   <path d="M 0 210.172131 
L 389.291602 210.172131 
L 389.291602 0 
L 0 0 
z
" style="fill: #ffffff"/>
  </g>
  <g id="axes_1">
   <g id="patch_2">
    <path d="M 35.03479 178.29504 
L 389.291602 178.29504 
L 389.291602 0 
L 35.03479 0 
z
" style="fill: #ffffff"/>
   </g>
   <g id="matplotlib.axis_1">
    <g id="xtick_1">
     <g id="line2d_1">
      <path d="M 51.137372 178.29504 
L 51.137372 0 
" clip-path="url(#pc46b2de68f)" style="fill: none; stroke-dasharray: 0.6,0.99; stroke-dashoffset: 0; stroke: #bfbfbf; stroke-opacity: 0.25; stroke-width: 0.6"/>
     </g>
     <g id="line2d_2">
      <defs>
       <path id="m8f736cc998" d="M 0 0 
L 0 -3 
" style="stroke: #000000; stroke-width: 0.5"/>
      </defs>
      <g>
       <use xlink:href="#m8f736cc998" x="51.137372" y="178.29504" style="stroke: #000000; stroke-width: 0.5"/>
      </g>
     </g>
     <g id="line2d_3">
      <defs>
       <path id="mff09f4c5b6" d="M 0 0 
L 0 3 
" style="stroke: #000000; stroke-width: 0.5"/>
      </defs>
      <g>
       <use xlink:href="#mff09f4c5b6" x="51.137372" y="0" style="stroke: #000000; stroke-width: 0.5"/>
      </g>
     </g>
     <g id="text_1">
      <!-- $\mathdefault{0}$ -->
      <g transform="translate(48.895778 189.374157) scale(0.09 -0.09)">
       <defs>
        <path id="NimbusRomNo9L-Regu-30" d="M 1626 4352 
C 1274 4352 1005 4244 768 4020 
C 397 3661 154 2925 154 2176 
C 154 1479 365 730 666 372 
C 902 90 1229 -64 1600 -64 
C 1926 -64 2202 45 2432 269 
C 2803 621 3046 1364 3046 2138 
C 3046 3450 2464 4352 1626 4352 
z
M 1606 4186 
C 2144 4186 2432 3463 2432 2125 
C 2432 788 2150 103 1600 103 
C 1050 103 768 788 768 2119 
C 768 3476 1056 4186 1606 4186 
z
" transform="scale(0.015625)"/>
       </defs>
       <use xlink:href="#NimbusRomNo9L-Regu-30" transform="scale(0.996264)"/>
      </g>
     </g>
    </g>
    <g id="xtick_2">
     <g id="line2d_4">
      <path d="M 104.812646 178.29504 
L 104.812646 0 
" clip-path="url(#pc46b2de68f)" style="fill: none; stroke-dasharray: 0.6,0.99; stroke-dashoffset: 0; stroke: #bfbfbf; stroke-opacity: 0.25; stroke-width: 0.6"/>
     </g>
     <g id="line2d_5">
      <g>
       <use xlink:href="#m8f736cc998" x="104.812646" y="178.29504" style="stroke: #000000; stroke-width: 0.5"/>
      </g>
     </g>
     <g id="line2d_6">
      <g>
       <use xlink:href="#mff09f4c5b6" x="104.812646" y="0" style="stroke: #000000; stroke-width: 0.5"/>
      </g>
     </g>
     <g id="text_2">
      <!-- $\mathdefault{5}$ -->
      <g transform="translate(102.571052 189.374157) scale(0.09 -0.09)">
       <defs>
        <path id="NimbusRomNo9L-Regu-35" d="M 1158 3776 
L 2413 3776 
C 2515 3776 2541 3789 2560 3834 
L 2803 4403 
L 2746 4448 
C 2650 4314 2586 4282 2451 4282 
L 1114 4282 
L 416 2759 
C 410 2746 410 2740 410 2727 
C 410 2695 435 2676 486 2676 
C 691 2676 947 2631 1210 2547 
C 1946 2309 2285 1910 2285 1274 
C 2285 656 1894 173 1395 173 
C 1267 173 1158 218 966 360 
C 762 508 614 572 480 572 
C 294 572 205 495 205 334 
C 205 90 506 -64 986 -64 
C 1523 -64 1984 110 2304 438 
C 2598 728 2733 1094 2733 1583 
C 2733 2046 2611 2342 2291 2663 
C 2010 2947 1645 3094 890 3229 
L 1158 3776 
z
" transform="scale(0.015625)"/>
       </defs>
       <use xlink:href="#NimbusRomNo9L-Regu-35" transform="scale(0.996264)"/>
      </g>
     </g>
    </g>
    <g id="xtick_3">
     <g id="line2d_7">
      <path d="M 158.487921 178.29504 
L 158.487921 0 
" clip-path="url(#pc46b2de68f)" style="fill: none; stroke-dasharray: 0.6,0.99; stroke-dashoffset: 0; stroke: #bfbfbf; stroke-opacity: 0.25; stroke-width: 0.6"/>
     </g>
     <g id="line2d_8">
      <g>
       <use xlink:href="#m8f736cc998" x="158.487921" y="178.29504" style="stroke: #000000; stroke-width: 0.5"/>
      </g>
     </g>
     <g id="line2d_9">
      <g>
       <use xlink:href="#mff09f4c5b6" x="158.487921" y="0" style="stroke: #000000; stroke-width: 0.5"/>
      </g>
     </g>
     <g id="text_3">
      <!-- $\mathdefault{10}$ -->
      <g transform="translate(154.004733 189.374157) scale(0.09 -0.09)">
       <defs>
        <path id="NimbusRomNo9L-Regu-31" d="M 1862 4339 
L 710 3757 
L 710 3667 
C 787 3699 858 3725 883 3738 
C 998 3783 1107 3808 1171 3808 
C 1306 3808 1363 3711 1363 3505 
L 1363 592 
C 1363 379 1312 232 1210 173 
C 1114 116 1024 96 755 96 
L 755 0 
L 2522 0 
L 2522 96 
C 2016 96 1914 160 1914 470 
L 1914 4327 
L 1862 4339 
z
" transform="scale(0.015625)"/>
       </defs>
       <use xlink:href="#NimbusRomNo9L-Regu-31" transform="scale(0.996264)"/>
       <use xlink:href="#NimbusRomNo9L-Regu-30" transform="translate(49.8132 0) scale(0.996264)"/>
      </g>
     </g>
    </g>
    <g id="xtick_4">
     <g id="line2d_10">
      <path d="M 212.163196 178.29504 
L 212.163196 0 
" clip-path="url(#pc46b2de68f)" style="fill: none; stroke-dasharray: 0.6,0.99; stroke-dashoffset: 0; stroke: #bfbfbf; stroke-opacity: 0.25; stroke-width: 0.6"/>
     </g>
     <g id="line2d_11">
      <g>
       <use xlink:href="#m8f736cc998" x="212.163196" y="178.29504" style="stroke: #000000; stroke-width: 0.5"/>
      </g>
     </g>
     <g id="line2d_12">
      <g>
       <use xlink:href="#mff09f4c5b6" x="212.163196" y="0" style="stroke: #000000; stroke-width: 0.5"/>
      </g>
     </g>
     <g id="text_4">
      <!-- $\mathdefault{15}$ -->
      <g transform="translate(207.680008 189.374157) scale(0.09 -0.09)">
       <use xlink:href="#NimbusRomNo9L-Regu-31" transform="scale(0.996264)"/>
       <use xlink:href="#NimbusRomNo9L-Regu-35" transform="translate(49.8132 0) scale(0.996264)"/>
      </g>
     </g>
    </g>
    <g id="xtick_5">
     <g id="line2d_13">
      <path d="M 265.83847 178.29504 
L 265.83847 0 
" clip-path="url(#pc46b2de68f)" style="fill: none; stroke-dasharray: 0.6,0.99; stroke-dashoffset: 0; stroke: #bfbfbf; stroke-opacity: 0.25; stroke-width: 0.6"/>
     </g>
     <g id="line2d_14">
      <g>
       <use xlink:href="#m8f736cc998" x="265.83847" y="178.29504" style="stroke: #000000; stroke-width: 0.5"/>
      </g>
     </g>
     <g id="line2d_15">
      <g>
       <use xlink:href="#mff09f4c5b6" x="265.83847" y="0" style="stroke: #000000; stroke-width: 0.5"/>
      </g>
     </g>
     <g id="text_5">
      <!-- $\mathdefault{20}$ -->
      <g transform="translate(261.355282 189.374157) scale(0.09 -0.09)">
       <defs>
        <path id="NimbusRomNo9L-Regu-32" d="M 3040 875 
L 2957 907 
C 2720 544 2637 486 2349 486 
L 819 486 
L 1894 1609 
C 2464 2202 2714 2687 2714 3185 
C 2714 3823 2195 4313 1530 4313 
C 1178 4313 845 4173 608 3918 
C 403 3700 307 3496 198 3043 
L 333 3011 
C 589 3636 819 3840 1261 3840 
C 1798 3840 2163 3476 2163 2940 
C 2163 2443 1869 1850 1331 1282 
L 192 77 
L 192 0 
L 2688 0 
L 3040 875 
z
" transform="scale(0.015625)"/>
       </defs>
       <use xlink:href="#NimbusRomNo9L-Regu-32" transform="scale(0.996264)"/>
       <use xlink:href="#NimbusRomNo9L-Regu-30" transform="translate(49.8132 0) scale(0.996264)"/>
      </g>
     </g>
    </g>
    <g id="xtick_6">
     <g id="line2d_16">
      <path d="M 319.513745 178.29504 
L 319.513745 0 
" clip-path="url(#pc46b2de68f)" style="fill: none; stroke-dasharray: 0.6,0.99; stroke-dashoffset: 0; stroke: #bfbfbf; stroke-opacity: 0.25; stroke-width: 0.6"/>
     </g>
     <g id="line2d_17">
      <g>
       <use xlink:href="#m8f736cc998" x="319.513745" y="178.29504" style="stroke: #000000; stroke-width: 0.5"/>
      </g>
     </g>
     <g id="line2d_18">
      <g>
       <use xlink:href="#mff09f4c5b6" x="319.513745" y="0" style="stroke: #000000; stroke-width: 0.5"/>
      </g>
     </g>
     <g id="text_6">
      <!-- $\mathdefault{25}$ -->
      <g transform="translate(315.030557 189.374157) scale(0.09 -0.09)">
       <use xlink:href="#NimbusRomNo9L-Regu-32" transform="scale(0.996264)"/>
       <use xlink:href="#NimbusRomNo9L-Regu-35" transform="translate(49.8132 0) scale(0.996264)"/>
      </g>
     </g>
    </g>
    <g id="xtick_7">
     <g id="line2d_19">
      <path d="M 373.189019 178.29504 
L 373.189019 0 
" clip-path="url(#pc46b2de68f)" style="fill: none; stroke-dasharray: 0.6,0.99; stroke-dashoffset: 0; stroke: #bfbfbf; stroke-opacity: 0.25; stroke-width: 0.6"/>
     </g>
     <g id="line2d_20">
      <g>
       <use xlink:href="#m8f736cc998" x="373.189019" y="178.29504" style="stroke: #000000; stroke-width: 0.5"/>
      </g>
     </g>
     <g id="line2d_21">
      <g>
       <use xlink:href="#mff09f4c5b6" x="373.189019" y="0" style="stroke: #000000; stroke-width: 0.5"/>
      </g>
     </g>
     <g id="text_7">
      <!-- $\mathdefault{30}$ -->
      <g transform="translate(368.705831 189.374157) scale(0.09 -0.09)">
       <defs>
        <path id="NimbusRomNo9L-Regu-33" d="M 979 2138 
C 1357 2138 1504 2125 1658 2068 
C 2054 1927 2304 1562 2304 1120 
C 2304 583 1939 167 1466 167 
C 1293 167 1165 212 928 365 
C 736 480 627 525 518 525 
C 371 525 275 436 275 301 
C 275 77 550 -64 998 -64 
C 1491 -64 1997 103 2298 365 
C 2598 628 2765 999 2765 1428 
C 2765 1754 2662 2055 2477 2253 
C 2349 2394 2227 2471 1946 2592 
C 2387 2893 2547 3130 2547 3476 
C 2547 3994 2138 4352 1549 4352 
C 1229 4352 947 4244 717 4039 
C 525 3866 429 3699 288 3315 
L 384 3290 
C 646 3757 934 3968 1338 3968 
C 1754 3968 2042 3687 2042 3284 
C 2042 3053 1946 2823 1786 2663 
C 1594 2471 1414 2375 979 2221 
L 979 2138 
z
" transform="scale(0.015625)"/>
       </defs>
       <use xlink:href="#NimbusRomNo9L-Regu-33" transform="scale(0.996264)"/>
       <use xlink:href="#NimbusRomNo9L-Regu-30" transform="translate(49.8132 0) scale(0.996264)"/>
      </g>
     </g>
    </g>
    <g id="text_8">
     <!-- time [$\mu s$] -->
     <g transform="translate(187.769633 207.096248) scale(0.13 -0.13)">
      <defs>
       <path id="NimbusRomNo9L-Regu-74" d="M 1632 2880 
L 986 2880 
L 986 3622 
C 986 3686 979 3706 941 3706 
C 896 3648 858 3590 813 3526 
C 570 3174 294 2867 192 2841 
C 122 2794 83 2748 83 2715 
C 83 2695 90 2682 109 2682 
L 448 2682 
L 448 751 
C 448 212 640 -64 1018 -64 
C 1331 -64 1574 90 1786 423 
L 1702 493 
C 1568 333 1459 269 1318 269 
C 1082 269 986 443 986 847 
L 986 2682 
L 1632 2682 
L 1632 2880 
z
" transform="scale(0.015625)"/>
       <path id="NimbusRomNo9L-Regu-69" d="M 1120 2929 
L 128 2579 
L 128 2484 
L 179 2490 
C 256 2502 339 2509 397 2509 
C 550 2509 608 2406 608 2125 
L 608 640 
C 608 179 544 109 102 109 
L 102 0 
L 1619 0 
L 1619 96 
C 1197 128 1146 191 1146 650 
L 1146 2910 
L 1120 2929 
z
M 819 4352 
C 646 4352 499 4205 499 4026 
C 499 3847 640 3699 819 3699 
C 1005 3699 1152 3840 1152 4026 
C 1152 4205 1005 4352 819 4352 
z
" transform="scale(0.015625)"/>
       <path id="NimbusRomNo9L-Regu-6d" d="M 122 2547 
C 205 2566 256 2573 326 2573 
C 493 2573 550 2470 550 2162 
L 550 539 
C 550 192 461 96 102 96 
L 102 0 
L 1523 0 
L 1523 96 
C 1184 96 1088 166 1088 418 
L 1088 2234 
C 1088 2246 1139 2310 1184 2355 
C 1344 2502 1619 2611 1843 2611 
C 2125 2611 2266 2385 2266 1932 
L 2266 528 
C 2266 167 2195 96 1830 96 
L 1830 0 
L 3264 0 
L 3264 96 
C 2899 96 2803 205 2803 603 
L 2803 2221 
C 2995 2496 3206 2611 3501 2611 
C 3866 2611 3981 2438 3981 1907 
L 3981 557 
C 3981 192 3930 141 3558 96 
L 3558 0 
L 4960 0 
L 4960 96 
L 4794 115 
C 4602 115 4518 230 4518 480 
L 4518 1802 
C 4518 2559 4269 2944 3776 2944 
C 3405 2944 3078 2778 2733 2407 
C 2618 2771 2400 2944 2054 2944 
C 1773 2944 1594 2854 1062 2451 
L 1062 2931 
L 1018 2944 
C 691 2822 474 2752 122 2656 
L 122 2547 
z
" transform="scale(0.015625)"/>
       <path id="NimbusRomNo9L-Regu-65" d="M 2611 1053 
C 2304 564 2029 378 1619 378 
C 1254 378 979 564 794 930 
C 678 1174 634 1386 621 1779 
L 2592 1779 
C 2541 2193 2477 2377 2317 2581 
C 2125 2811 1830 2944 1498 2944 
C 1178 2944 877 2829 634 2611 
C 333 2349 160 1894 160 1370 
C 160 486 621 -64 1357 -64 
C 1965 -64 2445 315 2714 1008 
L 2611 1053 
z
M 634 1984 
C 704 2479 922 2714 1312 2714 
C 1702 2714 1856 2535 1939 1984 
L 634 1984 
z
" transform="scale(0.015625)"/>
       <path id="NimbusRomNo9L-Regu-5b" d="M 1914 -864 
L 1363 -864 
C 1152 -864 1050 -756 1050 -531 
L 1050 3781 
C 1050 3981 1133 4064 1338 4064 
L 1914 4064 
L 1914 4224 
L 563 4224 
L 563 -1024 
L 1914 -1024 
L 1914 -864 
z
" transform="scale(0.015625)"/>
       <path id="StandardSymL-6d" d="M 2829 3168 
L 2259 3168 
L 2266 818 
C 2035 517 1818 388 1549 388 
C 1178 388 960 646 960 1086 
L 960 3168 
L 397 3168 
L 397 113 
C 397 -20 371 -179 326 -371 
C 218 -766 211 -804 211 -950 
C 211 -1218 346 -1408 531 -1408 
C 717 -1408 845 -1214 845 -928 
C 845 -791 826 -706 723 -330 
C 659 -96 646 -31 646 151 
L 646 229 
C 915 6 1062 -64 1280 -64 
C 1600 -64 1926 129 2266 513 
C 2317 314 2349 240 2413 148 
C 2509 17 2682 -64 2867 -64 
C 3264 -64 3539 204 3629 672 
L 3456 672 
C 3430 453 3296 280 3149 280 
C 2957 280 2829 506 2829 847 
L 2829 3168 
z
" transform="scale(0.015625)"/>
       <path id="NimbusRomNo9L-ReguItal-73" d="M 230 945 
L 102 -83 
L 205 -83 
C 256 29 294 64 358 64 
C 429 64 544 34 672 -5 
C 813 -60 922 -83 1024 -83 
C 1562 -83 1946 263 1946 749 
C 1946 992 1811 1274 1510 1645 
C 1267 1945 1165 2144 1165 2317 
C 1165 2528 1299 2663 1523 2663 
C 1856 2663 2048 2423 2112 1920 
L 2214 1920 
L 2342 2816 
L 2253 2816 
C 2202 2720 2150 2693 2061 2693 
C 2016 2693 1952 2708 1830 2744 
C 1670 2802 1574 2816 1472 2816 
C 1005 2816 698 2542 698 2114 
C 698 1910 832 1635 1101 1290 
C 1350 964 1459 741 1459 556 
C 1459 268 1267 64 986 64 
C 634 64 435 330 333 945 
L 230 945 
z
" transform="scale(0.015625)"/>
       <path id="NimbusRomNo9L-Regu-5d" d="M 218 -864 
L 218 -1024 
L 1568 -1024 
L 1568 4224 
L 218 4224 
L 218 4064 
L 768 4064 
C 979 4064 1082 3955 1082 3730 
L 1082 -582 
C 1082 -781 992 -864 794 -864 
L 218 -864 
z
" transform="scale(0.015625)"/>
      </defs>
      <use xlink:href="#NimbusRomNo9L-Regu-74" transform="scale(0.996264)"/>
      <use xlink:href="#NimbusRomNo9L-Regu-69" transform="translate(27.69517 0) scale(0.996264)"/>
      <use xlink:href="#NimbusRomNo9L-Regu-6d" transform="translate(55.390339 0) scale(0.996264)"/>
      <use xlink:href="#NimbusRomNo9L-Regu-65" transform="translate(132.898709 0) scale(0.996264)"/>
      <use xlink:href="#NimbusRomNo9L-Regu-5b" transform="translate(202.038878 0) scale(0.996264)"/>
      <use xlink:href="#StandardSymL-6d" transform="translate(237.704722 0) scale(0.996264)"/>
      <use xlink:href="#NimbusRomNo9L-ReguItal-73" transform="translate(303.357131 0) scale(0.996264)"/>
      <use xlink:href="#NimbusRomNo9L-Regu-5d" transform="translate(342.110837 0) scale(0.996264)"/>
     </g>
    </g>
   </g>
   <g id="matplotlib.axis_2">
    <g id="ytick_1">
     <g id="line2d_22">
      <path d="M 35.03479 170.505479 
L 389.291602 170.505479 
" clip-path="url(#pc46b2de68f)" style="fill: none; stroke-dasharray: 0.6,0.99; stroke-dashoffset: 0; stroke: #bfbfbf; stroke-opacity: 0.25; stroke-width: 0.6"/>
     </g>
     <g id="line2d_23">
      <defs>
       <path id="md6b8a0ce21" d="M 0 0 
L 3 0 
" style="stroke: #000000; stroke-width: 0.5"/>
      </defs>
      <g>
       <use xlink:href="#md6b8a0ce21" x="35.03479" y="170.505479" style="stroke: #000000; stroke-width: 0.5"/>
      </g>
     </g>
     <g id="line2d_24">
      <defs>
       <path id="m27389a36cf" d="M 0 0 
L -3 0 
" style="stroke: #000000; stroke-width: 0.5"/>
      </defs>
      <g>
       <use xlink:href="#m27389a36cf" x="389.291602" y="170.505479" style="stroke: #000000; stroke-width: 0.5"/>
      </g>
     </g>
     <g id="text_9">
      <!-- $\mathdefault{0.0}$ -->
      <g transform="translate(18.584822 173.545037) scale(0.09 -0.09)">
       <defs>
        <path id="CMMI10-3a" d="M 1229 338 
C 1229 522 1075 675 890 675 
C 704 675 550 522 550 338 
C 550 153 704 0 890 0 
C 1075 0 1229 153 1229 338 
z
" transform="scale(0.015625)"/>
       </defs>
       <use xlink:href="#NimbusRomNo9L-Regu-30" transform="scale(0.996264)"/>
       <use xlink:href="#CMMI10-3a" transform="translate(49.8132 0) scale(0.996264)"/>
       <use xlink:href="#NimbusRomNo9L-Regu-30" transform="translate(77.408707 0) scale(0.996264)"/>
      </g>
     </g>
    </g>
    <g id="ytick_2">
     <g id="line2d_25">
      <path d="M 35.03479 135.862598 
L 389.291602 135.862598 
" clip-path="url(#pc46b2de68f)" style="fill: none; stroke-dasharray: 0.6,0.99; stroke-dashoffset: 0; stroke: #bfbfbf; stroke-opacity: 0.25; stroke-width: 0.6"/>
     </g>
     <g id="line2d_26">
      <g>
       <use xlink:href="#md6b8a0ce21" x="35.03479" y="135.862598" style="stroke: #000000; stroke-width: 0.5"/>
      </g>
     </g>
     <g id="line2d_27">
      <g>
       <use xlink:href="#m27389a36cf" x="389.291602" y="135.862598" style="stroke: #000000; stroke-width: 0.5"/>
      </g>
     </g>
     <g id="text_10">
      <!-- $\mathdefault{0.2}$ -->
      <g transform="translate(18.584822 138.902157) scale(0.09 -0.09)">
       <use xlink:href="#NimbusRomNo9L-Regu-30" transform="scale(0.996264)"/>
       <use xlink:href="#CMMI10-3a" transform="translate(49.8132 0) scale(0.996264)"/>
       <use xlink:href="#NimbusRomNo9L-Regu-32" transform="translate(77.408707 0) scale(0.996264)"/>
      </g>
     </g>
    </g>
    <g id="ytick_3">
     <g id="line2d_28">
      <path d="M 35.03479 101.219718 
L 389.291602 101.219718 
" clip-path="url(#pc46b2de68f)" style="fill: none; stroke-dasharray: 0.6,0.99; stroke-dashoffset: 0; stroke: #bfbfbf; stroke-opacity: 0.25; stroke-width: 0.6"/>
     </g>
     <g id="line2d_29">
      <g>
       <use xlink:href="#md6b8a0ce21" x="35.03479" y="101.219718" style="stroke: #000000; stroke-width: 0.5"/>
      </g>
     </g>
     <g id="line2d_30">
      <g>
       <use xlink:href="#m27389a36cf" x="389.291602" y="101.219718" style="stroke: #000000; stroke-width: 0.5"/>
      </g>
     </g>
     <g id="text_11">
      <!-- $\mathdefault{0.4}$ -->
      <g transform="translate(18.584822 104.259276) scale(0.09 -0.09)">
       <defs>
        <path id="NimbusRomNo9L-Regu-34" d="M 3021 1497 
L 2368 1497 
L 2368 4352 
L 2086 4352 
L 77 1497 
L 77 1088 
L 1875 1088 
L 1875 32 
L 2368 32 
L 2368 1088 
L 3021 1088 
L 3021 1497 
z
M 1869 1497 
L 333 1497 
L 1869 3698 
L 1869 1497 
z
" transform="scale(0.015625)"/>
       </defs>
       <use xlink:href="#NimbusRomNo9L-Regu-30" transform="scale(0.996264)"/>
       <use xlink:href="#CMMI10-3a" transform="translate(49.8132 0) scale(0.996264)"/>
       <use xlink:href="#NimbusRomNo9L-Regu-34" transform="translate(77.408707 0) scale(0.996264)"/>
      </g>
     </g>
    </g>
    <g id="ytick_4">
     <g id="line2d_31">
      <path d="M 35.03479 66.576838 
L 389.291602 66.576838 
" clip-path="url(#pc46b2de68f)" style="fill: none; stroke-dasharray: 0.6,0.99; stroke-dashoffset: 0; stroke: #bfbfbf; stroke-opacity: 0.25; stroke-width: 0.6"/>
     </g>
     <g id="line2d_32">
      <g>
       <use xlink:href="#md6b8a0ce21" x="35.03479" y="66.576838" style="stroke: #000000; stroke-width: 0.5"/>
      </g>
     </g>
     <g id="line2d_33">
      <g>
       <use xlink:href="#m27389a36cf" x="389.291602" y="66.576838" style="stroke: #000000; stroke-width: 0.5"/>
      </g>
     </g>
     <g id="text_12">
      <!-- $\mathdefault{0.6}$ -->
      <g transform="translate(18.584822 69.616396) scale(0.09 -0.09)">
       <defs>
        <path id="NimbusRomNo9L-Regu-36" d="M 2854 4391 
C 2125 4327 1754 4205 1286 3879 
C 595 3386 218 2656 218 1802 
C 218 1248 390 688 666 370 
C 909 89 1254 -64 1651 -64 
C 2445 -64 2995 541 2995 1421 
C 2995 2236 2528 2752 1792 2752 
C 1510 2752 1376 2707 973 2464 
C 1146 3431 1862 4122 2867 4288 
L 2854 4391 
z
M 1549 2458 
C 2099 2458 2419 2000 2419 1204 
C 2419 504 2170 116 1722 116 
C 1158 116 813 714 813 1700 
C 813 2025 864 2203 992 2299 
C 1126 2400 1325 2458 1549 2458 
z
" transform="scale(0.015625)"/>
       </defs>
       <use xlink:href="#NimbusRomNo9L-Regu-30" transform="scale(0.996264)"/>
       <use xlink:href="#CMMI10-3a" transform="translate(49.8132 0) scale(0.996264)"/>
       <use xlink:href="#NimbusRomNo9L-Regu-36" transform="translate(77.408707 0) scale(0.996264)"/>
      </g>
     </g>
    </g>
    <g id="ytick_5">
     <g id="line2d_34">
      <path d="M 35.03479 31.933957 
L 389.291602 31.933957 
" clip-path="url(#pc46b2de68f)" style="fill: none; stroke-dasharray: 0.6,0.99; stroke-dashoffset: 0; stroke: #bfbfbf; stroke-opacity: 0.25; stroke-width: 0.6"/>
     </g>
     <g id="line2d_35">
      <g>
       <use xlink:href="#md6b8a0ce21" x="35.03479" y="31.933957" style="stroke: #000000; stroke-width: 0.5"/>
      </g>
     </g>
     <g id="line2d_36">
      <g>
       <use xlink:href="#m27389a36cf" x="389.291602" y="31.933957" style="stroke: #000000; stroke-width: 0.5"/>
      </g>
     </g>
     <g id="text_13">
      <!-- $\mathdefault{0.8}$ -->
      <g transform="translate(18.584822 34.973516) scale(0.09 -0.09)">
       <defs>
        <path id="NimbusRomNo9L-Regu-38" d="M 1856 2400 
C 2490 2740 2714 3008 2714 3444 
C 2714 3968 2253 4352 1613 4352 
C 915 4352 397 3924 397 3341 
C 397 2925 518 2740 1190 2151 
C 499 1626 358 1428 358 992 
C 358 372 864 -64 1587 -64 
C 2355 -64 2848 359 2848 1018 
C 2848 1511 2630 1824 1856 2400 
z
M 1741 1741 
C 2208 1408 2362 1178 2362 820 
C 2362 404 2074 116 1658 116 
C 1171 116 845 487 845 1044 
C 845 1453 986 1722 1357 2023 
L 1741 1741 
z
M 1670 2516 
C 1101 2887 870 3181 870 3540 
C 870 3911 1158 4173 1562 4173 
C 1997 4173 2272 3892 2272 3450 
C 2272 3085 2093 2797 1728 2554 
C 1696 2535 1696 2535 1670 2516 
z
" transform="scale(0.015625)"/>
       </defs>
       <use xlink:href="#NimbusRomNo9L-Regu-30" transform="scale(0.996264)"/>
       <use xlink:href="#CMMI10-3a" transform="translate(49.8132 0) scale(0.996264)"/>
       <use xlink:href="#NimbusRomNo9L-Regu-38" transform="translate(77.408707 0) scale(0.996264)"/>
      </g>
     </g>
    </g>
    <g id="text_14">
     <!-- Coupling $\eta$ -->
     <g transform="translate(8.780945 118.780142) rotate(-90) scale(0.13 -0.13)">
      <defs>
       <path id="NimbusRomNo9L-Regu-43" d="M 3968 2906 
L 3910 4352 
L 3776 4352 
C 3738 4218 3635 4141 3507 4141 
C 3450 4141 3354 4160 3258 4199 
C 2944 4301 2624 4352 2323 4352 
C 1798 4352 1267 4154 870 3802 
C 422 3405 179 2810 179 2106 
C 179 1511 371 960 698 596 
C 1082 180 1670 -64 2304 -64 
C 3027 -64 3661 231 4051 749 
L 3936 864 
C 3462 410 3040 218 2509 218 
C 2106 218 1747 346 1472 589 
C 1120 903 922 1479 922 2189 
C 922 3348 1517 4096 2445 4096 
C 2810 4096 3142 3962 3398 3706 
C 3603 3501 3699 3322 3821 2906 
L 3968 2906 
z
" transform="scale(0.015625)"/>
       <path id="NimbusRomNo9L-Regu-6f" d="M 1600 2944 
C 768 2944 186 2330 186 1446 
C 186 582 781 -64 1587 -64 
C 2394 -64 3008 614 3008 1498 
C 3008 2336 2419 2944 1600 2944 
z
M 1517 2765 
C 2054 2765 2432 2150 2432 1274 
C 2432 550 2144 115 1664 115 
C 1414 115 1178 269 1043 525 
C 864 858 762 1306 762 1760 
C 762 2368 1062 2765 1517 2765 
z
" transform="scale(0.015625)"/>
       <path id="NimbusRomNo9L-Regu-75" d="M 3066 320 
L 3034 320 
C 2739 320 2669 390 2669 685 
L 2669 2880 
L 1658 2880 
L 1658 2758 
C 2054 2758 2131 2694 2131 2375 
L 2131 875 
C 2131 697 2099 607 2010 537 
C 1837 397 1638 320 1446 320 
C 1197 320 992 537 992 805 
L 992 2880 
L 58 2880 
L 58 2778 
C 365 2778 454 2682 454 2387 
L 454 770 
C 454 263 762 -64 1229 -64 
C 1466 -64 1715 38 1888 211 
L 2163 486 
L 2163 -45 
L 2189 -58 
C 2509 70 2739 141 3066 230 
L 3066 320 
z
" transform="scale(0.015625)"/>
       <path id="NimbusRomNo9L-Regu-70" d="M 58 2516 
C 115 2522 160 2522 218 2522 
C 435 2522 480 2458 480 2155 
L 480 -855 
C 480 -1189 410 -1261 32 -1299 
L 32 -1408 
L 1581 -1408 
L 1581 -1293 
C 1101 -1293 1018 -1222 1018 -816 
L 1018 199 
C 1242 -13 1395 -77 1664 -77 
C 2419 -77 3008 643 3008 1575 
C 3008 2372 2560 2944 1939 2944 
C 1581 2944 1299 2784 1018 2438 
L 1018 2931 
L 979 2944 
C 634 2810 410 2726 58 2618 
L 58 2516 
z
M 1018 2136 
C 1018 2329 1376 2560 1670 2560 
C 2144 2560 2458 2071 2458 1324 
C 2458 611 2144 128 1683 128 
C 1382 128 1018 359 1018 552 
L 1018 2136 
z
" transform="scale(0.015625)"/>
       <path id="NimbusRomNo9L-Regu-6c" d="M 122 4000 
L 160 4000 
C 230 4000 307 4000 358 4000 
C 563 4000 627 3910 627 3610 
L 627 557 
C 627 211 538 128 134 96 
L 134 0 
L 1645 0 
L 1645 109 
C 1242 109 1165 173 1165 528 
L 1165 4371 
L 1139 4384 
C 806 4275 563 4211 122 4103 
L 122 4000 
z
" transform="scale(0.015625)"/>
       <path id="NimbusRomNo9L-Regu-6e" d="M 102 2579 
C 141 2598 205 2605 275 2605 
C 454 2605 512 2509 512 2195 
L 512 608 
C 512 243 442 154 115 128 
L 115 32 
L 1472 32 
L 1472 128 
C 1146 154 1050 230 1050 461 
L 1050 2259 
C 1357 2547 1498 2624 1709 2624 
C 2022 2624 2176 2426 2176 2003 
L 2176 666 
C 2176 262 2093 154 1773 128 
L 1773 32 
L 3104 32 
L 3104 128 
C 2790 160 2714 237 2714 550 
L 2714 2016 
C 2714 2618 2432 2976 1958 2976 
C 1664 2976 1466 2867 1030 2458 
L 1030 2963 
L 986 2976 
C 672 2861 454 2790 102 2688 
L 102 2579 
z
" transform="scale(0.015625)"/>
       <path id="NimbusRomNo9L-Regu-67" d="M 3008 2496 
L 3008 2746 
L 2515 2746 
C 2387 2746 2291 2763 2163 2802 
L 2022 2847 
C 1850 2903 1677 2931 1510 2931 
C 915 2931 442 2467 442 1881 
C 442 1476 614 1230 1037 1018 
C 915 906 800 799 762 768 
C 550 588 467 463 467 338 
C 467 206 544 131 806 6 
C 352 -329 179 -543 179 -781 
C 179 -1124 678 -1408 1286 -1408 
C 1766 -1408 2266 -1238 2598 -962 
C 2842 -759 2950 -548 2950 -299 
C 2950 108 2650 384 2176 384 
L 1350 384 
C 1011 384 851 443 851 548 
C 851 678 1062 908 1235 960 
C 1293 953 1338 947 1357 947 
C 1478 934 1562 928 1600 928 
C 1837 928 2093 1026 2291 1203 
C 2502 1387 2598 1617 2598 1945 
C 2598 2135 2566 2286 2477 2496 
L 3008 2496 
z
M 941 -13 
C 1152 -58 1664 -96 1978 -96 
C 2560 -96 2771 -180 2771 -414 
C 2771 -791 2285 -1043 1562 -1043 
C 998 -1043 627 -855 627 -570 
C 627 -420 672 -336 941 -13 
z
M 973 2145 
C 973 2526 1152 2752 1446 2752 
C 1645 2752 1811 2642 1914 2449 
C 2029 2223 2106 1927 2106 1675 
C 2106 1314 1920 1088 1626 1088 
C 1242 1088 973 1507 973 2126 
L 973 2145 
z
" transform="scale(0.015625)"/>
       <path id="StandardSymL-68" d="M 762 3 
L 1325 3 
L 1325 2317 
C 1555 2660 1779 2819 2061 2819 
C 2426 2819 2650 2571 2650 2164 
L 2650 -626 
C 2650 -842 2688 -1083 2778 -1408 
L 3373 -1408 
C 3270 -1096 3232 -931 3232 -772 
L 3232 2349 
C 3232 2876 2848 3264 2317 3264 
C 1939 3264 1670 3092 1325 2616 
C 1293 2803 1261 2884 1203 2971 
C 1094 3113 909 3200 717 3200 
C 461 3200 218 3043 96 2793 
C 26 2642 0 2510 0 2279 
L 154 2279 
C 192 2663 282 2844 435 2844 
C 627 2844 768 2597 768 2255 
L 762 3 
z
" transform="scale(0.015625)"/>
      </defs>
      <use xlink:href="#NimbusRomNo9L-Regu-43" transform="scale(0.996264)"/>
      <use xlink:href="#NimbusRomNo9L-Regu-6f" transform="translate(66.450031 0) scale(0.996264)"/>
      <use xlink:href="#NimbusRomNo9L-Regu-75" transform="translate(116.263232 0) scale(0.996264)"/>
      <use xlink:href="#NimbusRomNo9L-Regu-70" transform="translate(166.076432 0) scale(0.996264)"/>
      <use xlink:href="#NimbusRomNo9L-Regu-6c" transform="translate(215.889633 0) scale(0.996264)"/>
      <use xlink:href="#NimbusRomNo9L-Regu-69" transform="translate(243.584802 0) scale(0.996264)"/>
      <use xlink:href="#NimbusRomNo9L-Regu-6e" transform="translate(271.279972 0) scale(0.996264)"/>
      <use xlink:href="#NimbusRomNo9L-Regu-67" transform="translate(321.093172 0) scale(0.996264)"/>
      <use xlink:href="#StandardSymL-68" transform="translate(395.812973 0) scale(0.996264)"/>
     </g>
    </g>
   </g>
   <g id="line2d_37">
    <path d="M 51.137372 8.465235 
L 54.390419 101.760097 
L 57.643466 129.526153 
L 60.896513 142.752284 
L 64.14956 149.75584 
L 67.402607 154.856982 
L 70.655654 157.835118 
L 73.908701 160.262233 
L 77.161747 161.847833 
L 80.414794 162.962101 
L 83.667841 164.058401 
L 86.920888 164.911611 
L 90.173935 165.503308 
L 93.426982 166.009403 
L 96.680029 166.594641 
L 99.933076 166.913001 
L 103.186123 167.25094 
L 106.43917 167.376687 
L 109.692217 167.594585 
L 112.945264 167.81449 
L 116.198311 167.97908 
L 119.451358 168.161834 
L 122.704405 168.268378 
L 125.957452 168.37993 
L 129.210499 168.461113 
L 132.463546 168.616685 
L 135.716592 168.761395 
L 138.969639 168.847007 
L 142.222686 168.952353 
L 145.475733 168.945511 
L 148.72878 169.022651 
L 151.981827 169.09359 
L 155.234874 169.198477 
L 158.487921 169.266713 
L 161.740968 169.280056 
L 164.994015 169.33816 
L 168.247062 169.401041 
L 171.500109 169.444078 
L 174.753156 169.470774 
L 178.006203 169.435234 
L 181.25925 169.496283 
L 184.512297 169.521659 
L 187.765344 169.558241 
L 191.01839 169.594291 
L 194.271437 169.678902 
L 197.524484 169.67951 
L 200.777531 169.679733 
L 204.030578 169.691628 
L 207.283625 169.729197 
L 210.536672 169.746229 
L 213.789719 169.793799 
L 217.042766 169.812955 
L 220.295813 169.858771 
L 223.54886 169.8659 
L 226.801907 169.880893 
L 230.054954 169.907307 
L 233.308001 169.898116 
L 236.561048 169.879571 
L 239.814095 169.888789 
L 243.067142 169.894938 
L 246.320188 169.915628 
L 249.573235 169.953673 
L 252.826282 169.980447 
L 256.079329 169.987819 
L 259.332376 169.995957 
L 262.585423 170.019297 
L 265.83847 170.007538 
L 269.091517 170.010012 
L 272.344564 170.044339 
L 275.597611 170.048312 
L 278.850658 170.045603 
L 282.103705 170.026708 
L 285.356752 170.063436 
L 288.609799 170.066921 
L 291.862846 170.078836 
L 295.115893 170.09117 
L 298.36894 170.083685 
L 301.621986 170.085111 
L 304.875033 170.093476 
L 308.12808 170.09908 
L 311.381127 170.119061 
L 314.634174 170.103542 
L 317.887221 170.129506 
L 321.140268 170.136006 
L 324.393315 170.128662 
L 327.646362 170.140104 
L 330.899409 170.138151 
L 334.152456 170.153235 
L 337.405503 170.164943 
L 340.65855 170.173859 
L 343.911597 170.178301 
L 347.164644 170.156827 
L 350.417691 170.165591 
L 353.670738 170.160908 
L 356.923785 170.144005 
L 360.176831 170.161492 
L 363.429878 170.168818 
L 366.682925 170.185817 
L 369.935972 170.179148 
L 373.189019 170.19072 
" clip-path="url(#pc46b2de68f)" style="fill: none; stroke: #1f77b4; stroke-width: 1.8; stroke-linecap: square"/>
   </g>
   <g id="line2d_38">
    <path d="M 51.137372 8.499666 
L 54.390419 62.664134 
L 57.643466 91.977685 
L 60.896513 110.035371 
L 64.14956 122.129305 
L 67.402607 130.521785 
L 70.655654 136.277816 
L 73.908701 141.299398 
L 77.161747 145.211272 
L 80.414794 148.134328 
L 83.667841 150.657839 
L 86.920888 152.518435 
L 90.173935 154.149366 
L 93.426982 155.527757 
L 96.680029 156.5324 
L 99.933076 157.798753 
L 103.186123 158.917039 
L 106.43917 159.84316 
L 109.692217 160.635016 
L 112.945264 161.315054 
L 116.198311 161.776302 
L 119.451358 162.292174 
L 122.704405 162.713093 
L 125.957452 163.083919 
L 129.210499 163.511032 
L 132.463546 163.928525 
L 135.716592 164.192665 
L 138.969639 164.43331 
L 142.222686 164.78454 
L 145.475733 165.097546 
L 148.72878 165.329271 
L 151.981827 165.466262 
L 155.234874 165.613685 
L 158.487921 165.84701 
L 161.740968 166.120966 
L 164.994015 166.20459 
L 168.247062 166.464639 
L 171.500109 166.670711 
L 174.753156 166.798038 
L 178.006203 167.040241 
L 181.25925 167.043531 
L 184.512297 167.220082 
L 187.765344 167.320736 
L 191.01839 167.392011 
L 194.271437 167.416361 
L 197.524484 167.553177 
L 200.777531 167.679916 
L 204.030578 167.768581 
L 207.283625 167.856641 
L 210.536672 167.971007 
L 213.789719 168.035342 
L 217.042766 168.104205 
L 220.295813 168.17986 
L 223.54886 168.233787 
L 226.801907 168.254213 
L 230.054954 168.263843 
L 233.308001 168.352261 
L 236.561048 168.435213 
L 239.814095 168.533664 
L 243.067142 168.573787 
L 246.320188 168.645061 
L 249.573235 168.677535 
L 252.826282 168.666916 
L 256.079329 168.721415 
L 259.332376 168.763768 
L 262.585423 168.868592 
L 265.83847 168.886551 
L 269.091517 168.911873 
L 272.344564 168.90144 
L 275.597611 168.946111 
L 278.850658 168.950781 
L 282.103705 168.950492 
L 285.356752 168.983512 
L 288.609799 168.986523 
L 291.862846 168.994427 
L 295.115893 168.998798 
L 298.36894 169.014692 
L 301.621986 169.081121 
L 304.875033 169.111891 
L 308.12808 169.160479 
L 311.381127 169.19674 
L 314.634174 169.213026 
L 317.887221 169.244581 
L 321.140268 169.262705 
L 324.393315 169.283034 
L 327.646362 169.323193 
L 330.899409 169.319448 
L 334.152456 169.34618 
L 337.405503 169.385838 
L 340.65855 169.4121 
L 343.911597 169.421947 
L 347.164644 169.438063 
L 350.417691 169.460442 
L 353.670738 169.452943 
L 356.923785 169.504727 
L 360.176831 169.534027 
L 363.429878 169.539466 
L 366.682925 169.544215 
L 369.935972 169.543276 
L 373.189019 169.535362 
" clip-path="url(#pc46b2de68f)" style="fill: none; stroke: #ff7f0e; stroke-width: 1.8; stroke-linecap: square"/>
   </g>
   <g id="line2d_39">
    <path d="M 51.137372 8.10432 
L 54.390419 50.558583 
L 57.643466 77.747205 
L 60.896513 95.349208 
L 64.14956 107.716527 
L 67.402607 116.798063 
L 70.655654 124.522262 
L 73.908701 130.333044 
L 77.161747 134.687001 
L 80.414794 138.789736 
L 83.667841 141.964463 
L 86.920888 144.527262 
L 90.173935 146.573032 
L 93.426982 148.364289 
L 96.680029 150.265034 
L 99.933076 151.974984 
L 103.186123 153.455343 
L 106.43917 154.799585 
L 109.692217 155.761496 
L 112.945264 156.615337 
L 116.198311 157.577492 
L 119.451358 158.274727 
L 122.704405 158.865788 
L 125.957452 159.589559 
L 129.210499 160.063857 
L 132.463546 160.573816 
L 135.716592 161.117863 
L 138.969639 161.481232 
L 142.222686 161.900617 
L 145.475733 162.333585 
L 148.72878 162.746727 
L 151.981827 163.159436 
L 155.234874 163.378564 
L 158.487921 163.595032 
L 161.740968 163.752098 
L 164.994015 163.986224 
L 168.247062 164.256106 
L 171.500109 164.571061 
L 174.753156 164.759623 
L 178.006203 164.984311 
L 181.25925 165.248554 
L 184.512297 165.355742 
L 187.765344 165.567708 
L 191.01839 165.701362 
L 194.271437 165.902159 
L 197.524484 166.075559 
L 200.777531 166.272927 
L 204.030578 166.437159 
L 207.283625 166.469018 
L 210.536672 166.604602 
L 213.789719 166.68677 
L 217.042766 166.814758 
L 220.295813 166.914555 
L 223.54886 167.003684 
L 226.801907 167.142054 
L 230.054954 167.184163 
L 233.308001 167.221464 
L 236.561048 167.275422 
L 239.814095 167.326711 
L 243.067142 167.435747 
L 246.320188 167.587828 
L 249.573235 167.649245 
L 252.826282 167.732886 
L 256.079329 167.742282 
L 259.332376 167.84429 
L 262.585423 167.90427 
L 265.83847 167.917149 
L 269.091517 167.975157 
L 272.344564 167.988986 
L 275.597611 168.029356 
L 278.850658 168.045029 
L 282.103705 168.07175 
L 285.356752 168.147905 
L 288.609799 168.218715 
L 291.862846 168.247544 
L 295.115893 168.307457 
L 298.36894 168.366087 
L 301.621986 168.389008 
L 304.875033 168.41518 
L 308.12808 168.487539 
L 311.381127 168.525161 
L 314.634174 168.589533 
L 317.887221 168.580655 
L 321.140268 168.61167 
L 324.393315 168.635888 
L 327.646362 168.671583 
L 330.899409 168.652488 
L 334.152456 168.662674 
L 337.405503 168.652615 
L 340.65855 168.713569 
L 343.911597 168.766613 
L 347.164644 168.802226 
L 350.417691 168.867666 
L 353.670738 168.905143 
L 356.923785 168.927865 
L 360.176831 168.974668 
L 363.429878 169.007331 
L 366.682925 168.990003 
L 369.935972 169.000155 
L 373.189019 169.01879 
" clip-path="url(#pc46b2de68f)" style="fill: none; stroke: #2ca02c; stroke-width: 1.8; stroke-linecap: square"/>
   </g>
   <g id="line2d_40">
    <path d="M 51.137372 8.499868 
L 54.390419 41.715612 
L 57.643466 64.169356 
L 60.896513 80.733974 
L 64.14956 91.828343 
L 67.402607 101.469004 
L 70.655654 109.114925 
L 73.908701 116.091122 
L 77.161747 121.279972 
L 80.414794 125.341132 
L 83.667841 129.106574 
L 86.920888 132.458754 
L 90.173935 135.734716 
L 93.426982 138.331181 
L 96.680029 140.51777 
L 99.933076 142.983667 
L 103.186123 144.848857 
L 106.43917 146.269665 
L 109.692217 147.757513 
L 112.945264 148.639095 
L 116.198311 149.886887 
L 119.451358 151.303077 
L 122.704405 152.289593 
L 125.957452 153.198119 
L 129.210499 153.914685 
L 132.463546 154.830508 
L 135.716592 155.374535 
L 138.969639 156.200929 
L 142.222686 156.811056 
L 145.475733 157.452021 
L 148.72878 158.039181 
L 151.981827 158.436202 
L 155.234874 158.935917 
L 158.487921 159.4184 
L 161.740968 159.828149 
L 164.994015 160.31061 
L 168.247062 160.621784 
L 171.500109 160.808832 
L 174.753156 161.187478 
L 178.006203 161.34843 
L 181.25925 161.450837 
L 184.512297 161.781454 
L 187.765344 162.057351 
L 191.01839 162.429262 
L 194.271437 162.686637 
L 197.524484 162.879676 
L 200.777531 163.091991 
L 204.030578 163.344707 
L 207.283625 163.55612 
L 210.536672 163.678841 
L 213.789719 163.901075 
L 217.042766 164.006827 
L 220.295813 164.228972 
L 223.54886 164.383947 
L 226.801907 164.598808 
L 230.054954 164.750834 
L 233.308001 164.864152 
L 236.561048 164.977252 
L 239.814095 165.04539 
L 243.067142 165.142374 
L 246.320188 165.352159 
L 249.573235 165.492983 
L 252.826282 165.614727 
L 256.079329 165.718119 
L 259.332376 165.831757 
L 262.585423 165.919719 
L 265.83847 165.98638 
L 269.091517 166.056575 
L 272.344564 166.099109 
L 275.597611 166.208757 
L 278.850658 166.242924 
L 282.103705 166.277951 
L 285.356752 166.41036 
L 288.609799 166.528479 
L 291.862846 166.619215 
L 295.115893 166.69485 
L 298.36894 166.784123 
L 301.621986 166.860679 
L 304.875033 166.931364 
L 308.12808 166.97379 
L 311.381127 167.045934 
L 314.634174 167.063325 
L 317.887221 167.120753 
L 321.140268 167.223983 
L 324.393315 167.290829 
L 327.646362 167.361894 
L 330.899409 167.432662 
L 334.152456 167.470085 
L 337.405503 167.472336 
L 340.65855 167.554843 
L 343.911597 167.584606 
L 347.164644 167.628664 
L 350.417691 167.685709 
L 353.670738 167.70876 
L 356.923785 167.746169 
L 360.176831 167.823088 
L 363.429878 167.840189 
L 366.682925 167.903886 
L 369.935972 167.944559 
L 373.189019 168.03178 
" clip-path="url(#pc46b2de68f)" style="fill: none; stroke: #d62728; stroke-width: 1.8; stroke-linecap: square"/>
   </g>
   <g id="line2d_41">
    <path d="M 51.137372 8.356355 
L 54.390419 25.986388 
L 57.643466 41.199492 
L 60.896513 52.484929 
L 64.14956 63.454292 
L 67.402607 72.010204 
L 70.655654 79.451177 
L 73.908701 86.884759 
L 77.161747 92.333164 
L 80.414794 97.417334 
L 83.667841 102.783453 
L 86.920888 106.621312 
L 90.173935 110.781782 
L 93.426982 114.052938 
L 96.680029 117.020446 
L 99.933076 119.989443 
L 103.186123 122.075216 
L 106.43917 124.286198 
L 109.692217 126.397567 
L 112.945264 128.471247 
L 116.198311 130.480466 
L 119.451358 132.082389 
L 122.704405 133.774377 
L 125.957452 135.090694 
L 129.210499 136.381582 
L 132.463546 137.941448 
L 135.716592 139.224307 
L 138.969639 140.324717 
L 142.222686 141.378769 
L 145.475733 142.142607 
L 148.72878 143.212428 
L 151.981827 144.128102 
L 155.234874 145.174098 
L 158.487921 146.072361 
L 161.740968 146.767134 
L 164.994015 147.232321 
L 168.247062 147.964012 
L 171.500109 148.539159 
L 174.753156 149.485058 
L 178.006203 150.144315 
L 181.25925 150.758496 
L 184.512297 151.281977 
L 187.765344 151.836926 
L 191.01839 152.299318 
L 194.271437 152.780477 
L 197.524484 153.352593 
L 200.777531 153.856211 
L 204.030578 154.073006 
L 207.283625 154.394381 
L 210.536672 154.609728 
L 213.789719 155.111349 
L 217.042766 155.565219 
L 220.295813 155.838777 
L 223.54886 156.185798 
L 226.801907 156.458954 
L 230.054954 156.807405 
L 233.308001 157.005744 
L 236.561048 157.233651 
L 239.814095 157.580274 
L 243.067142 157.940276 
L 246.320188 158.294378 
L 249.573235 158.426166 
L 252.826282 158.589875 
L 256.079329 158.750636 
L 259.332376 159.066171 
L 262.585423 159.330418 
L 265.83847 159.453007 
L 269.091517 159.68872 
L 272.344564 159.87668 
L 275.597611 160.135613 
L 278.850658 160.31738 
L 282.103705 160.469395 
L 285.356752 160.604504 
L 288.609799 160.784094 
L 291.862846 160.900228 
L 295.115893 161.137347 
L 298.36894 161.221611 
L 301.621986 161.304621 
L 304.875033 161.483185 
L 308.12808 161.696312 
L 311.381127 161.794118 
L 314.634174 161.895819 
L 317.887221 162.107214 
L 321.140268 162.220386 
L 324.393315 162.214126 
L 327.646362 162.324375 
L 330.899409 162.440977 
L 334.152456 162.615757 
L 337.405503 162.773575 
L 340.65855 162.909428 
L 343.911597 163.048344 
L 347.164644 163.276652 
L 350.417691 163.365913 
L 353.670738 163.501739 
L 356.923785 163.511801 
L 360.176831 163.610386 
L 363.429878 163.760871 
L 366.682925 163.877181 
L 369.935972 163.928755 
L 373.189019 163.998783 
" clip-path="url(#pc46b2de68f)" style="fill: none; stroke: #9467bd; stroke-width: 1.8; stroke-linecap: square"/>
   </g>
   <g id="patch_3">
    <path d="M 35.03479 178.29504 
L 35.03479 -0 
" style="fill: none; stroke: #000000; stroke-width: 0.7; stroke-linejoin: miter; stroke-linecap: square"/>
   </g>
   <g id="patch_4">
    <path d="M 389.291602 178.29504 
L 389.291602 -0 
" style="fill: none; stroke: #000000; stroke-width: 0.7; stroke-linejoin: miter; stroke-linecap: square"/>
   </g>
   <g id="patch_5">
    <path d="M 35.03479 178.29504 
L 389.291602 178.29504 
" style="fill: none; stroke: #000000; stroke-width: 0.7; stroke-linejoin: miter; stroke-linecap: square"/>
   </g>
   <g id="patch_6">
    <path d="M 35.03479 0 
L 389.291602 0 
" style="fill: none; stroke: #000000; stroke-width: 0.7; stroke-linejoin: miter; stroke-linecap: square"/>
   </g>
   <g id="legend_1">
    <g id="patch_7">
     <path d="M 325.884938 66.247578 
L 386.091602 66.247578 
L 386.091602 3.2 
L 325.884938 3.2 
z
" style="fill: #ffffff; opacity: 0.8; stroke: #cccccc; stroke-linejoin: miter"/>
    </g>
    <g id="text_15">
     <!-- Pressure (Torr) -->
     <g transform="translate(329.084938 12.479117) scale(0.09 -0.09)">
      <defs>
       <path id="NimbusRomNo9L-Regu-50" d="M 1293 1875 
C 1459 1856 1568 1856 1734 1856 
C 2234 1856 2579 1919 2854 2072 
C 3238 2274 3469 2660 3469 3078 
C 3469 3344 3379 3584 3206 3768 
C 2950 4047 2394 4224 1792 4224 
L 102 4224 
L 102 4102 
C 576 4051 640 3987 640 3528 
L 640 766 
C 640 230 589 166 102 122 
L 102 0 
L 1894 0 
L 1894 128 
C 1389 128 1293 218 1293 693 
L 1293 1875 
z
M 1293 3772 
C 1293 3943 1338 3987 1510 3987 
C 2374 3987 2771 3690 2771 3040 
C 2771 2428 2394 2112 1658 2112 
C 1530 2112 1440 2119 1293 2131 
L 1293 3772 
z
" transform="scale(0.015625)"/>
       <path id="NimbusRomNo9L-Regu-72" d="M 45 2496 
C 134 2515 192 2522 269 2522 
C 429 2522 486 2419 486 2138 
L 486 538 
C 486 218 442 173 32 96 
L 32 0 
L 1568 0 
L 1568 102 
C 1133 102 1024 199 1024 565 
L 1024 2013 
C 1024 2219 1299 2541 1472 2541 
C 1510 2541 1568 2509 1638 2445 
C 1741 2355 1811 2317 1894 2317 
C 2048 2317 2144 2426 2144 2605 
C 2144 2816 2010 2944 1792 2944 
C 1523 2944 1338 2797 1024 2343 
L 1024 2931 
L 992 2944 
C 653 2803 422 2721 45 2599 
L 45 2496 
z
" transform="scale(0.015625)"/>
       <path id="NimbusRomNo9L-Regu-73" d="M 2016 2010 
L 1990 2880 
L 1920 2880 
L 1907 2867 
C 1850 2822 1843 2816 1818 2816 
C 1779 2816 1715 2829 1645 2861 
C 1504 2915 1363 2944 1197 2944 
C 691 2944 326 2616 326 2154 
C 326 1796 531 1539 1075 1231 
L 1446 1020 
C 1670 892 1779 737 1779 539 
C 1779 256 1574 77 1248 77 
C 1030 77 832 159 710 298 
C 576 455 518 600 435 960 
L 333 960 
L 333 -39 
L 416 -39 
C 461 33 486 48 563 48 
C 621 48 710 35 858 -2 
C 1037 -39 1210 -64 1325 -64 
C 1818 -64 2227 308 2227 757 
C 2227 1077 2074 1289 1690 1520 
L 998 1930 
C 819 2033 723 2194 723 2367 
C 723 2624 922 2803 1216 2803 
C 1581 2803 1773 2583 1920 2010 
L 2016 2010 
z
" transform="scale(0.015625)"/>
       <path id="NimbusRomNo9L-Regu-28" d="M 1888 4326 
C 1414 4019 1222 3853 986 3558 
C 531 3002 307 2362 307 1613 
C 307 800 544 173 1107 -480 
C 1370 -787 1536 -928 1869 -1133 
L 1946 -1030 
C 1434 -627 1254 -403 1082 77 
C 928 506 858 992 858 1632 
C 858 2304 941 2829 1114 3226 
C 1293 3622 1485 3853 1946 4224 
L 1888 4326 
z
" transform="scale(0.015625)"/>
       <path id="NimbusRomNo9L-Regu-54" d="M 1626 3968 
L 1626 751 
C 1626 204 1555 134 1024 134 
L 1024 0 
L 2893 0 
L 2893 134 
C 2368 134 2278 217 2278 687 
L 2278 3968 
L 2624 3968 
C 3354 3968 3494 3853 3642 3149 
L 3795 3149 
L 3757 4237 
L 147 4237 
L 109 3149 
L 262 3149 
C 416 3846 563 3968 1280 3968 
L 1626 3968 
z
" transform="scale(0.015625)"/>
       <path id="NimbusRomNo9L-Regu-29" d="M 243 -1133 
C 717 -826 909 -659 1146 -365 
C 1600 192 1824 832 1824 1581 
C 1824 2400 1587 3021 1024 3674 
C 762 3981 595 4122 262 4326 
L 186 4224 
C 698 3821 870 3597 1050 3117 
C 1203 2688 1274 2202 1274 1562 
C 1274 896 1190 365 1018 -26 
C 838 -429 646 -659 186 -1030 
L 243 -1133 
z
" transform="scale(0.015625)"/>
      </defs>
      <use xlink:href="#NimbusRomNo9L-Regu-50" transform="scale(0.996264)"/>
      <use xlink:href="#NimbusRomNo9L-Regu-72" transform="translate(55.391677 0) scale(0.996264)"/>
      <use xlink:href="#NimbusRomNo9L-Regu-65" transform="translate(88.566907 0) scale(0.996264)"/>
      <use xlink:href="#NimbusRomNo9L-Regu-73" transform="translate(132.800475 0) scale(0.996264)"/>
      <use xlink:href="#NimbusRomNo9L-Regu-73" transform="translate(171.554182 0) scale(0.996264)"/>
      <use xlink:href="#NimbusRomNo9L-Regu-75" transform="translate(210.307888 0) scale(0.996264)"/>
      <use xlink:href="#NimbusRomNo9L-Regu-72" transform="translate(260.121088 0) scale(0.996264)"/>
      <use xlink:href="#NimbusRomNo9L-Regu-65" transform="translate(293.296318 0) scale(0.996264)"/>
      <use xlink:href="#NimbusRomNo9L-Regu-28" transform="translate(362.436487 0) scale(0.996264)"/>
      <use xlink:href="#NimbusRomNo9L-Regu-54" transform="translate(395.611717 0) scale(0.996264)"/>
      <use xlink:href="#NimbusRomNo9L-Regu-6f" transform="translate(448.513904 0) scale(0.996264)"/>
      <use xlink:href="#NimbusRomNo9L-Regu-72" transform="translate(498.327105 0) scale(0.996264)"/>
      <use xlink:href="#NimbusRomNo9L-Regu-72" transform="translate(531.502334 0) scale(0.996264)"/>
      <use xlink:href="#NimbusRomNo9L-Regu-29" transform="translate(564.677564 0) scale(0.996264)"/>
     </g>
    </g>
    <g id="line2d_42">
     <path d="M 342.803214 19.620263 
L 350.003214 19.620263 
L 357.203214 19.620263 
" style="fill: none; stroke: #1f77b4; stroke-width: 1.8; stroke-linecap: square"/>
    </g>
    <g id="text_16">
     <!-- 2 -->
     <g transform="translate(361.203214 22.420263) scale(0.08 -0.08)">
      <use xlink:href="#NimbusRomNo9L-Regu-32" transform="scale(0.996264)"/>
     </g>
    </g>
    <g id="line2d_43">
     <path d="M 342.803214 29.345726 
L 350.003214 29.345726 
L 357.203214 29.345726 
" style="fill: none; stroke: #ff7f0e; stroke-width: 1.8; stroke-linecap: square"/>
    </g>
    <g id="text_17">
     <!-- 5 -->
     <g transform="translate(361.203214 32.145726) scale(0.08 -0.08)">
      <use xlink:href="#NimbusRomNo9L-Regu-35" transform="scale(0.996264)"/>
     </g>
    </g>
    <g id="line2d_44">
     <path d="M 342.803214 39.071189 
L 350.003214 39.071189 
L 357.203214 39.071189 
" style="fill: none; stroke: #2ca02c; stroke-width: 1.8; stroke-linecap: square"/>
    </g>
    <g id="text_18">
     <!-- 7 -->
     <g transform="translate(361.203214 41.871189) scale(0.08 -0.08)">
      <defs>
       <path id="NimbusRomNo9L-Regu-37" d="M 2874 4250 
L 506 4250 
L 128 3310 
L 237 3258 
C 512 3693 627 3776 979 3776 
L 2368 3776 
L 1101 -32 
L 1517 -32 
L 2874 4148 
L 2874 4250 
z
" transform="scale(0.015625)"/>
      </defs>
      <use xlink:href="#NimbusRomNo9L-Regu-37" transform="scale(0.996264)"/>
     </g>
    </g>
    <g id="line2d_45">
     <path d="M 342.803214 48.796652 
L 350.003214 48.796652 
L 357.203214 48.796652 
" style="fill: none; stroke: #d62728; stroke-width: 1.8; stroke-linecap: square"/>
    </g>
    <g id="text_19">
     <!-- 10 -->
     <g transform="translate(361.203214 51.596652) scale(0.08 -0.08)">
      <use xlink:href="#NimbusRomNo9L-Regu-31" transform="scale(0.996264)"/>
      <use xlink:href="#NimbusRomNo9L-Regu-30" transform="translate(49.8132 0) scale(0.996264)"/>
     </g>
    </g>
    <g id="line2d_46">
     <path d="M 342.803214 58.522115 
L 350.003214 58.522115 
L 357.203214 58.522115 
" style="fill: none; stroke: #9467bd; stroke-width: 1.8; stroke-linecap: square"/>
    </g>
    <g id="text_20">
     <!-- 20 -->
     <g transform="translate(361.203214 61.322115) scale(0.08 -0.08)">
      <use xlink:href="#NimbusRomNo9L-Regu-32" transform="scale(0.996264)"/>
      <use xlink:href="#NimbusRomNo9L-Regu-30" transform="translate(49.8132 0) scale(0.996264)"/>
     </g>
    </g>
   </g>
  </g>
 </g>
 <defs>
  <clipPath id="pc46b2de68f">
   <rect x="35.03479" y="0" width="354.256812" height="178.29504"/>
  </clipPath>
 </defs>
</svg>
