<?xml version="1.0" encoding="utf-8" standalone="no"?>
<!DOCTYPE svg PUBLIC "-//W3C//DTD SVG 1.1//EN"
  "http://www.w3.org/Graphics/SVG/1.1/DTD/svg11.dtd">
<svg xmlns:xlink="http://www.w3.org/1999/xlink" width="832.666pt" height="452.938856pt" viewBox="0 0 832.666 452.938856" xmlns="http://www.w3.org/2000/svg" version="1.1">
 <metadata>
  <rdf:RDF xmlns:dc="http://purl.org/dc/elements/1.1/" xmlns:cc="http://creativecommons.org/ns#" xmlns:rdf="http://www.w3.org/1999/02/22-rdf-syntax-ns#">
   <cc:Work>
    <dc:type rdf:resource="http://purl.org/dc/dcmitype/StillImage"/>
    <dc:date>2026-07-17T12:02:51.057793</dc:date>
    <dc:format>image/svg+xml</dc:format>
    <dc:creator>
     <cc:Agent>
      <dc:title>Matplotlib v3.10.9, https://matplotlib.org/</dc:title>
     </cc:Agent>
    </dc:creator>
   </cc:Work>
  </rdf:RDF>
 </metadata>
 <defs>
  <style type="text/css">*{stroke-linejoin: round; stroke-linecap: butt}</style>
 </defs>
 <g id="figure_1">
  <g id="patch_1">
   <path d="M 0 452.938856 
L 832.666 452.938856 
L 832.666 0 
L 0 0 
z
" style="fill: #ffffff"/>
  </g>
  <g id="axes_1">
   <g id="patch_2">
    <path d="M 67.93 389.8512 
L 829.786 389.8512 
L 829.786 2.88 
L 67.93 2.88 
z
" style="fill: #ffffff"/>
   </g>
   <g id="matplotlib.axis_1">
    <g id="xtick_1">
     <g id="line2d_1">
      <path d="M 102.559818 389.8512 
L 102.559818 2.88 
" clip-path="url(#p058e2555e5)" style="fill: none; stroke-dasharray: 0.6,0.99; stroke-dashoffset: 0; stroke: #bfbfbf; stroke-opacity: 0.25; stroke-width: 0.6"/>
     </g>
     <g id="line2d_2">
      <defs>
       <path id="m741b29a1e9" d="M 0 0 
L 0 -5 
" style="stroke: #000000"/>
      </defs>
      <g>
       <use xlink:href="#m741b29a1e9" x="102.559818" y="389.8512" style="stroke: #000000"/>
      </g>
     </g>
     <g id="line2d_3">
      <defs>
       <path id="m3c860fec91" d="M 0 0 
L 0 5 
" style="stroke: #000000"/>
      </defs>
      <g>
       <use xlink:href="#m3c860fec91" x="102.559818" y="2.88" style="stroke: #000000"/>
      </g>
     </g>
     <g id="text_1">
      <!-- $\mathdefault{0}$ -->
      <g transform="translate(99.309818 403.878075)">
       <text>
        <tspan x="0" y="-0.21875" style="font-size: 13px; font-family: 'Times New Roman'">0</tspan>
       </text>
      </g>
     </g>
    </g>
    <g id="xtick_2">
     <g id="line2d_4">
      <path d="M 217.992545 389.8512 
L 217.992545 2.88 
" clip-path="url(#p058e2555e5)" style="fill: none; stroke-dasharray: 0.6,0.99; stroke-dashoffset: 0; stroke: #bfbfbf; stroke-opacity: 0.25; stroke-width: 0.6"/>
     </g>
     <g id="line2d_5">
      <g>
       <use xlink:href="#m741b29a1e9" x="217.992545" y="389.8512" style="stroke: #000000"/>
      </g>
     </g>
     <g id="line2d_6">
      <g>
       <use xlink:href="#m3c860fec91" x="217.992545" y="2.88" style="stroke: #000000"/>
      </g>
     </g>
     <g id="text_2">
      <!-- $\mathdefault{5}$ -->
      <g transform="translate(214.742545 403.878075)">
       <text>
        <tspan x="0" y="-0.390625" style="font-size: 13px; font-family: 'Times New Roman'">5</tspan>
       </text>
      </g>
     </g>
    </g>
    <g id="xtick_3">
     <g id="line2d_7">
      <path d="M 333.425273 389.8512 
L 333.425273 2.88 
" clip-path="url(#p058e2555e5)" style="fill: none; stroke-dasharray: 0.6,0.99; stroke-dashoffset: 0; stroke: #bfbfbf; stroke-opacity: 0.25; stroke-width: 0.6"/>
     </g>
     <g id="line2d_8">
      <g>
       <use xlink:href="#m741b29a1e9" x="333.425273" y="389.8512" style="stroke: #000000"/>
      </g>
     </g>
     <g id="line2d_9">
      <g>
       <use xlink:href="#m3c860fec91" x="333.425273" y="2.88" style="stroke: #000000"/>
      </g>
     </g>
     <g id="text_3">
      <!-- $\mathdefault{10}$ -->
      <g transform="translate(326.925273 403.878075)">
       <text>
        <tspan x="0" y="-0.21875" style="font-size: 13px; font-family: 'Times New Roman'">1</tspan>
        <tspan x="6.5" y="-0.21875" style="font-size: 13px; font-family: 'Times New Roman'">0</tspan>
       </text>
      </g>
     </g>
    </g>
    <g id="xtick_4">
     <g id="line2d_10">
      <path d="M 448.858 389.8512 
L 448.858 2.88 
" clip-path="url(#p058e2555e5)" style="fill: none; stroke-dasharray: 0.6,0.99; stroke-dashoffset: 0; stroke: #bfbfbf; stroke-opacity: 0.25; stroke-width: 0.6"/>
     </g>
     <g id="line2d_11">
      <g>
       <use xlink:href="#m741b29a1e9" x="448.858" y="389.8512" style="stroke: #000000"/>
      </g>
     </g>
     <g id="line2d_12">
      <g>
       <use xlink:href="#m3c860fec91" x="448.858" y="2.88" style="stroke: #000000"/>
      </g>
     </g>
     <g id="text_4">
      <!-- $\mathdefault{15}$ -->
      <g transform="translate(442.358 403.878075)">
       <text>
        <tspan x="0" y="-0.21875" style="font-size: 13px; font-family: 'Times New Roman'">1</tspan>
        <tspan x="6.5" y="-0.21875" style="font-size: 13px; font-family: 'Times New Roman'">5</tspan>
       </text>
      </g>
     </g>
    </g>
    <g id="xtick_5">
     <g id="line2d_13">
      <path d="M 564.290727 389.8512 
L 564.290727 2.88 
" clip-path="url(#p058e2555e5)" style="fill: none; stroke-dasharray: 0.6,0.99; stroke-dashoffset: 0; stroke: #bfbfbf; stroke-opacity: 0.25; stroke-width: 0.6"/>
     </g>
     <g id="line2d_14">
      <g>
       <use xlink:href="#m741b29a1e9" x="564.290727" y="389.8512" style="stroke: #000000"/>
      </g>
     </g>
     <g id="line2d_15">
      <g>
       <use xlink:href="#m3c860fec91" x="564.290727" y="2.88" style="stroke: #000000"/>
      </g>
     </g>
     <g id="text_5">
      <!-- $\mathdefault{20}$ -->
      <g transform="translate(557.790727 403.878075)">
       <text>
        <tspan x="0" y="-0.21875" style="font-size: 13px; font-family: 'Times New Roman'">2</tspan>
        <tspan x="6.5" y="-0.21875" style="font-size: 13px; font-family: 'Times New Roman'">0</tspan>
       </text>
      </g>
     </g>
    </g>
    <g id="xtick_6">
     <g id="line2d_16">
      <path d="M 679.723455 389.8512 
L 679.723455 2.88 
" clip-path="url(#p058e2555e5)" style="fill: none; stroke-dasharray: 0.6,0.99; stroke-dashoffset: 0; stroke: #bfbfbf; stroke-opacity: 0.25; stroke-width: 0.6"/>
     </g>
     <g id="line2d_17">
      <g>
       <use xlink:href="#m741b29a1e9" x="679.723455" y="389.8512" style="stroke: #000000"/>
      </g>
     </g>
     <g id="line2d_18">
      <g>
       <use xlink:href="#m3c860fec91" x="679.723455" y="2.88" style="stroke: #000000"/>
      </g>
     </g>
     <g id="text_6">
      <!-- $\mathdefault{25}$ -->
      <g transform="translate(673.223455 403.878075)">
       <text>
        <tspan x="0" y="-0.21875" style="font-size: 13px; font-family: 'Times New Roman'">2</tspan>
        <tspan x="6.5" y="-0.21875" style="font-size: 13px; font-family: 'Times New Roman'">5</tspan>
       </text>
      </g>
     </g>
    </g>
    <g id="xtick_7">
     <g id="line2d_19">
      <path d="M 795.156182 389.8512 
L 795.156182 2.88 
" clip-path="url(#p058e2555e5)" style="fill: none; stroke-dasharray: 0.6,0.99; stroke-dashoffset: 0; stroke: #bfbfbf; stroke-opacity: 0.25; stroke-width: 0.6"/>
     </g>
     <g id="line2d_20">
      <g>
       <use xlink:href="#m741b29a1e9" x="795.156182" y="389.8512" style="stroke: #000000"/>
      </g>
     </g>
     <g id="line2d_21">
      <g>
       <use xlink:href="#m3c860fec91" x="795.156182" y="2.88" style="stroke: #000000"/>
      </g>
     </g>
     <g id="text_7">
      <!-- $\mathdefault{30}$ -->
      <g transform="translate(788.656182 403.878075)">
       <text>
        <tspan x="0" y="-0.21875" style="font-size: 13px; font-family: 'Times New Roman'">3</tspan>
        <tspan x="6.5" y="-0.21875" style="font-size: 13px; font-family: 'Times New Roman'">0</tspan>
       </text>
      </g>
     </g>
    </g>
    <g id="text_8">
     <!-- time [$\mu s$] -->
     <g transform="translate(376.658 441.502606)">
      <text>
       <tspan x="0" y="-0.21875" style="font-size: 40px; font-family: 'Times New Roman'">t</tspan>
       <tspan x="11.113281" y="-0.21875" style="font-size: 40px; font-family: 'Times New Roman'">i</tspan>
       <tspan x="22.226562" y="-0.21875" style="font-size: 40px; font-family: 'Times New Roman'">m</tspan>
       <tspan x="53.339844" y="-0.21875" style="font-size: 40px; font-family: 'Times New Roman'">e</tspan>
       <tspan x="71.09375" y="-0.21875" style="font-size: 40px; font-family: 'Times New Roman'"> </tspan>
       <tspan x="81.09375" y="-0.21875" style="font-size: 40px; font-family: 'Times New Roman'">[</tspan>
       <tspan x="131.014053" y="-0.21875" style="font-size: 40px; font-family: 'Times New Roman'">]</tspan>
       <tspan x="94.414062" y="-0.21875" style="font-style: italic; font-size: 40px; font-family: 'STIXGeneral'">μ</tspan>
       <tspan x="115.454056" y="-0.21875" style="font-style: italic; font-size: 40px; font-family: 'STIXGeneral'">s</tspan>
      </text>
     </g>
    </g>
   </g>
   <g id="matplotlib.axis_2">
    <g id="ytick_1">
     <g id="line2d_22">
      <path d="M 67.93 378.001689 
L 829.786 378.001689 
" clip-path="url(#p058e2555e5)" style="fill: none; stroke-dasharray: 0.6,0.99; stroke-dashoffset: 0; stroke: #bfbfbf; stroke-opacity: 0.25; stroke-width: 0.6"/>
     </g>
     <g id="line2d_23">
      <defs>
       <path id="m1815727496" d="M 0 0 
L 5 0 
" style="stroke: #000000"/>
      </defs>
      <g>
       <use xlink:href="#m1815727496" x="67.93" y="378.001689" style="stroke: #000000"/>
      </g>
     </g>
     <g id="line2d_24">
      <defs>
       <path id="mb0cd37cbcb" d="M 0 0 
L -5 0 
" style="stroke: #000000"/>
      </defs>
      <g>
       <use xlink:href="#mb0cd37cbcb" x="829.786" y="378.001689" style="stroke: #000000"/>
      </g>
     </g>
     <g id="text_9">
      <!-- $\mathdefault{0.0}$ -->
      <g transform="translate(46.68 382.515127)">
       <text>
        <tspan x="0" y="-0.21875" style="font-size: 13px; font-family: 'Times New Roman'">0</tspan>
        <tspan x="6.5" y="-0.21875" style="font-size: 13px; font-family: 'Times New Roman'">.</tspan>
        <tspan x="9.75" y="-0.21875" style="font-size: 13px; font-family: 'Times New Roman'">0</tspan>
       </text>
      </g>
     </g>
    </g>
    <g id="ytick_2">
     <g id="line2d_25">
      <path d="M 67.93 302.193723 
L 829.786 302.193723 
" clip-path="url(#p058e2555e5)" style="fill: none; stroke-dasharray: 0.6,0.99; stroke-dashoffset: 0; stroke: #bfbfbf; stroke-opacity: 0.25; stroke-width: 0.6"/>
     </g>
     <g id="line2d_26">
      <g>
       <use xlink:href="#m1815727496" x="67.93" y="302.193723" style="stroke: #000000"/>
      </g>
     </g>
     <g id="line2d_27">
      <g>
       <use xlink:href="#mb0cd37cbcb" x="829.786" y="302.193723" style="stroke: #000000"/>
      </g>
     </g>
     <g id="text_10">
      <!-- $\mathdefault{0.2}$ -->
      <g transform="translate(46.68 306.707161)">
       <text>
        <tspan x="0" y="-0.21875" style="font-size: 13px; font-family: 'Times New Roman'">0</tspan>
        <tspan x="6.5" y="-0.21875" style="font-size: 13px; font-family: 'Times New Roman'">.</tspan>
        <tspan x="9.75" y="-0.21875" style="font-size: 13px; font-family: 'Times New Roman'">2</tspan>
       </text>
      </g>
     </g>
    </g>
    <g id="ytick_3">
     <g id="line2d_28">
      <path d="M 67.93 226.385757 
L 829.786 226.385757 
" clip-path="url(#p058e2555e5)" style="fill: none; stroke-dasharray: 0.6,0.99; stroke-dashoffset: 0; stroke: #bfbfbf; stroke-opacity: 0.25; stroke-width: 0.6"/>
     </g>
     <g id="line2d_29">
      <g>
       <use xlink:href="#m1815727496" x="67.93" y="226.385757" style="stroke: #000000"/>
      </g>
     </g>
     <g id="line2d_30">
      <g>
       <use xlink:href="#mb0cd37cbcb" x="829.786" y="226.385757" style="stroke: #000000"/>
      </g>
     </g>
     <g id="text_11">
      <!-- $\mathdefault{0.4}$ -->
      <g transform="translate(46.68 230.899195)">
       <text>
        <tspan x="0" y="-0.21875" style="font-size: 13px; font-family: 'Times New Roman'">0</tspan>
        <tspan x="6.5" y="-0.21875" style="font-size: 13px; font-family: 'Times New Roman'">.</tspan>
        <tspan x="9.75" y="-0.21875" style="font-size: 13px; font-family: 'Times New Roman'">4</tspan>
       </text>
      </g>
     </g>
    </g>
    <g id="ytick_4">
     <g id="line2d_31">
      <path d="M 67.93 150.577792 
L 829.786 150.577792 
" clip-path="url(#p058e2555e5)" style="fill: none; stroke-dasharray: 0.6,0.99; stroke-dashoffset: 0; stroke: #bfbfbf; stroke-opacity: 0.25; stroke-width: 0.6"/>
     </g>
     <g id="line2d_32">
      <g>
       <use xlink:href="#m1815727496" x="67.93" y="150.577792" style="stroke: #000000"/>
      </g>
     </g>
     <g id="line2d_33">
      <g>
       <use xlink:href="#mb0cd37cbcb" x="829.786" y="150.577792" style="stroke: #000000"/>
      </g>
     </g>
     <g id="text_12">
      <!-- $\mathdefault{0.6}$ -->
      <g transform="translate(46.68 155.091229)">
       <text>
        <tspan x="0" y="-0.21875" style="font-size: 13px; font-family: 'Times New Roman'">0</tspan>
        <tspan x="6.5" y="-0.21875" style="font-size: 13px; font-family: 'Times New Roman'">.</tspan>
        <tspan x="9.75" y="-0.21875" style="font-size: 13px; font-family: 'Times New Roman'">6</tspan>
       </text>
      </g>
     </g>
    </g>
    <g id="ytick_5">
     <g id="line2d_34">
      <path d="M 67.93 74.769826 
L 829.786 74.769826 
" clip-path="url(#p058e2555e5)" style="fill: none; stroke-dasharray: 0.6,0.99; stroke-dashoffset: 0; stroke: #bfbfbf; stroke-opacity: 0.25; stroke-width: 0.6"/>
     </g>
     <g id="line2d_35">
      <g>
       <use xlink:href="#m1815727496" x="67.93" y="74.769826" style="stroke: #000000"/>
      </g>
     </g>
     <g id="line2d_36">
      <g>
       <use xlink:href="#mb0cd37cbcb" x="829.786" y="74.769826" style="stroke: #000000"/>
      </g>
     </g>
     <g id="text_13">
      <!-- $\mathdefault{0.8}$ -->
      <g transform="translate(46.68 79.283263)">
       <text>
        <tspan x="0" y="-0.21875" style="font-size: 13px; font-family: 'Times New Roman'">0</tspan>
        <tspan x="6.5" y="-0.21875" style="font-size: 13px; font-family: 'Times New Roman'">.</tspan>
        <tspan x="9.75" y="-0.21875" style="font-size: 13px; font-family: 'Times New Roman'">8</tspan>
       </text>
      </g>
     </g>
    </g>
    <g id="text_14">
     <!-- Coupling $\eta$ -->
     <g transform="translate(30.88 285.3656) rotate(-90)">
      <text>
       <tspan x="0" y="-0.21875" style="font-size: 40px; font-family: 'Times New Roman'">C</tspan>
       <tspan x="26.679688" y="-0.21875" style="font-size: 40px; font-family: 'Times New Roman'">o</tspan>
       <tspan x="46.679688" y="-0.21875" style="font-size: 40px; font-family: 'Times New Roman'">u</tspan>
       <tspan x="66.679688" y="-0.21875" style="font-size: 40px; font-family: 'Times New Roman'">p</tspan>
       <tspan x="86.679688" y="-0.21875" style="font-size: 40px; font-family: 'Times New Roman'">l</tspan>
       <tspan x="97.792969" y="-0.21875" style="font-size: 40px; font-family: 'Times New Roman'">i</tspan>
       <tspan x="108.90625" y="-0.21875" style="font-size: 40px; font-family: 'Times New Roman'">n</tspan>
       <tspan x="128.90625" y="-0.21875" style="font-size: 40px; font-family: 'Times New Roman'">g</tspan>
       <tspan x="148.90625" y="-0.21875" style="font-size: 40px; font-family: 'Times New Roman'"> </tspan>
       <tspan x="158.90625" y="-0.21875" style="font-style: italic; font-size: 40px; font-family: 'STIXGeneral'">η</tspan>
      </text>
     </g>
    </g>
   </g>
   <g id="line2d_37">
    <path d="M 102.559818 22.919869 
L 104.295649 43.267906 
L 106.031479 58.549889 
L 107.76731 76.123888 
L 109.50314 90.206166 
L 111.238971 105.873629 
L 112.974801 118.737244 
L 118.182293 149.679933 
L 119.918123 159.360121 
L 121.653954 168.191554 
L 123.389784 177.7809 
L 125.125614 185.794473 
L 130.333106 205.002686 
L 132.068936 209.405912 
L 135.540597 221.789809 
L 137.276428 227.143343 
L 142.483919 240.009912 
L 144.21975 243.353252 
L 145.95558 247.517021 
L 149.427241 254.536424 
L 151.163072 257.801461 
L 152.898902 261.324094 
L 156.370563 266.477178 
L 159.842224 272.64861 
L 161.578055 275.271014 
L 166.785546 282.218891 
L 170.257207 286.819334 
L 171.993038 288.402253 
L 173.728868 290.796803 
L 177.200529 293.995432 
L 178.93636 295.893571 
L 180.67219 297.160483 
L 182.408021 298.594757 
L 184.143851 299.613955 
L 187.615512 302.833883 
L 194.558834 308.627599 
L 196.294664 310.145645 
L 198.030495 311.298016 
L 201.502156 313.914109 
L 203.237986 315.143462 
L 204.973817 315.90505 
L 206.709647 316.878533 
L 208.445478 317.616012 
L 211.917139 319.926644 
L 213.652969 320.544184 
L 215.3888 320.99394 
L 218.860461 323.565025 
L 220.596291 324.623849 
L 224.067952 325.896673 
L 225.803783 326.806314 
L 231.011274 329.01477 
L 232.747105 330.074499 
L 234.482935 330.61325 
L 236.218766 331.45375 
L 239.690427 332.684964 
L 243.162087 334.333704 
L 244.897918 334.745884 
L 246.633748 335.526184 
L 248.369579 335.966104 
L 250.105409 336.611173 
L 251.84124 337.034112 
L 253.57707 337.83181 
L 257.048731 338.885498 
L 258.784562 339.121759 
L 263.992053 340.603927 
L 265.727884 341.29783 
L 269.199545 342.242779 
L 272.671206 342.944813 
L 274.407036 343.542266 
L 277.878697 344.092722 
L 279.614528 344.534906 
L 281.350358 344.740119 
L 283.086189 345.258759 
L 286.55785 345.966762 
L 288.29368 346.299722 
L 290.029511 346.375267 
L 296.972833 347.918472 
L 298.708663 348.175026 
L 300.444494 348.642079 
L 302.180324 348.790996 
L 303.916154 349.055701 
L 305.651985 349.571568 
L 307.387815 349.729111 
L 309.123646 350.182508 
L 312.595307 350.84734 
L 314.331137 351.198854 
L 316.066968 351.682159 
L 321.274459 352.184421 
L 323.01029 352.269873 
L 326.481951 352.821572 
L 328.217781 352.871574 
L 331.689442 353.592716 
L 333.425273 353.74829 
L 335.161103 354.160072 
L 336.896934 354.419361 
L 342.104425 354.709045 
L 345.576086 355.08463 
L 347.311917 355.397466 
L 349.047747 355.494289 
L 350.783578 355.795448 
L 357.7269 356.582773 
L 359.46273 356.907086 
L 362.934391 357.148744 
L 369.877713 357.648579 
L 371.613543 357.684279 
L 373.349374 357.947933 
L 375.085204 358.01348 
L 380.292696 358.653263 
L 383.764357 358.987644 
L 385.500187 359.224387 
L 387.236018 359.33943 
L 388.971848 359.260189 
L 390.707679 359.50686 
L 394.17934 359.721023 
L 404.594323 360.412783 
L 408.065984 360.855153 
L 409.801814 361.064051 
L 411.537645 360.974509 
L 415.009306 361.282471 
L 416.745136 361.26072 
L 425.424288 362.022413 
L 427.160119 362.076065 
L 428.895949 361.973936 
L 432.36761 362.282249 
L 439.310932 362.798362 
L 441.046763 362.888018 
L 442.782593 362.794698 
L 444.518424 362.985295 
L 446.254254 363.056237 
L 447.990085 362.993045 
L 451.461746 363.383902 
L 453.197576 363.642743 
L 460.140898 363.890204 
L 461.876729 364.153776 
L 468.820051 364.460633 
L 470.555881 364.646424 
L 472.291712 364.581725 
L 479.235033 364.957626 
L 480.970864 364.957819 
L 482.706694 365.158384 
L 484.442525 365.099551 
L 489.650016 365.329575 
L 491.385847 365.596726 
L 500.064999 365.931002 
L 503.53666 365.903376 
L 507.008321 366.136244 
L 508.744152 366.101359 
L 513.951643 366.346523 
L 522.630796 366.826411 
L 526.102457 367.1019 
L 529.574118 367.163876 
L 531.309948 367.32023 
L 543.460761 367.647847 
L 552.139914 367.889283 
L 555.611575 367.833893 
L 560.819066 368.144375 
L 572.96988 368.505712 
L 576.441541 368.54453 
L 579.913202 368.704092 
L 585.120693 368.826921 
L 592.064015 369.117584 
L 593.799846 369.066272 
L 605.950659 369.446487 
L 607.686489 369.386256 
L 611.15815 369.50101 
L 637.195608 369.971054 
L 638.931438 370.117013 
L 644.13893 370.091051 
L 645.87476 370.099485 
L 647.610591 369.989919 
L 654.553913 370.240479 
L 658.025573 370.428561 
L 664.968895 370.452614 
L 671.912217 370.529634 
L 677.119709 370.626445 
L 685.798861 370.715333 
L 689.270522 370.836691 
L 701.421336 371.082157 
L 708.364658 371.10711 
L 717.04381 371.241849 
L 730.930454 371.425317 
L 734.402115 371.420215 
L 737.873776 371.393998 
L 763.911233 371.925148 
L 765.647064 371.866531 
L 770.854555 372.033147 
L 774.326216 372.044272 
L 783.005368 372.155723 
L 786.477029 372.185393 
L 789.94869 372.238355 
L 793.420351 372.192612 
L 795.156182 372.2616 
L 795.156182 372.2616 
" clip-path="url(#p058e2555e5)" style="fill: none; stroke: #1f77b4; stroke-width: 1.8; stroke-linecap: square"/>
   </g>
   <g id="line2d_38">
    <path d="M 102.559818 20.4696 
L 106.031479 51.993369 
L 111.238971 88.426003 
L 114.710632 109.506104 
L 116.446462 120.634421 
L 119.918123 138.68343 
L 125.125614 161.612584 
L 126.861445 167.28818 
L 128.597275 174.350814 
L 130.333106 180.508626 
L 132.068936 187.566973 
L 133.804767 192.884948 
L 137.276428 202.756738 
L 139.012258 206.388245 
L 140.748089 212.116572 
L 142.483919 217.264169 
L 145.95558 225.097259 
L 149.427241 232.005696 
L 154.634733 243.451948 
L 156.370563 246.681346 
L 159.842224 252.395917 
L 161.578055 255.114967 
L 163.313885 258.204343 
L 166.785546 263.631695 
L 168.521377 265.869034 
L 170.257207 268.406093 
L 171.993038 270.557821 
L 173.728868 273.029827 
L 175.464699 274.895809 
L 178.93636 279.001313 
L 180.67219 280.479604 
L 184.143851 283.84524 
L 185.879681 286.237385 
L 187.615512 287.941939 
L 192.823003 293.581549 
L 196.294664 296.564134 
L 206.709647 302.816822 
L 208.445478 304.389213 
L 210.181308 305.511007 
L 211.917139 307.007099 
L 213.652969 308.235664 
L 215.3888 309.222552 
L 217.12463 310.656644 
L 222.332122 314.077377 
L 224.067952 315.109505 
L 225.803783 316.550044 
L 227.539613 317.385984 
L 229.275444 318.385946 
L 231.011274 319.600501 
L 232.747105 320.590876 
L 234.482935 321.129587 
L 236.218766 322.184978 
L 237.954596 322.753423 
L 239.690427 323.477737 
L 241.426257 324.401715 
L 243.162087 324.840686 
L 244.897918 325.409208 
L 246.633748 326.480535 
L 248.369579 326.984659 
L 251.84124 328.28955 
L 253.57707 329.150951 
L 257.048731 330.209021 
L 265.727884 332.941288 
L 276.142867 335.958547 
L 277.878697 336.311639 
L 281.350358 337.383477 
L 284.822019 338.061225 
L 286.55785 338.73238 
L 290.029511 339.721034 
L 293.501172 340.352761 
L 295.237002 341.001405 
L 302.180324 342.591042 
L 303.916154 343.00844 
L 305.651985 343.255312 
L 310.859476 344.493126 
L 314.331137 344.986454 
L 319.538629 345.826279 
L 323.01029 346.183693 
L 324.74612 346.738216 
L 329.953612 347.497846 
L 336.896934 348.654164 
L 340.368595 349.431404 
L 343.840256 349.740688 
L 345.576086 350.136561 
L 350.783578 350.785584 
L 361.19856 352.050262 
L 362.934391 352.413831 
L 368.141882 353.108886 
L 369.877713 353.472366 
L 373.349374 353.832137 
L 380.292696 354.533533 
L 382.028526 354.715695 
L 383.764357 355.103474 
L 387.236018 355.580371 
L 390.707679 355.815611 
L 397.651001 356.63928 
L 399.386831 356.804438 
L 401.122662 356.715065 
L 402.858492 357.038585 
L 406.330153 357.361659 
L 409.801814 357.943367 
L 411.537645 358.163111 
L 416.745136 358.337698 
L 418.480967 358.58792 
L 421.952627 358.895181 
L 423.688458 359.042727 
L 425.424288 359.077203 
L 432.36761 359.956443 
L 435.839271 360.145476 
L 437.575102 360.281603 
L 439.310932 360.541429 
L 447.990085 360.890169 
L 451.461746 361.087375 
L 453.197576 361.131472 
L 468.820051 362.583601 
L 470.555881 362.546643 
L 475.763373 362.916031 
L 487.914186 363.210417 
L 493.121677 363.637254 
L 494.857508 363.668775 
L 503.53666 364.354469 
L 508.744152 364.585725 
L 513.951643 364.76466 
L 522.630796 365.263306 
L 526.102457 365.459546 
L 545.196592 366.282188 
L 557.347405 366.724227 
L 559.083236 366.691771 
L 572.96988 367.246005 
L 574.70571 367.239525 
L 576.441541 367.366167 
L 579.913202 367.408389 
L 585.120693 367.561694 
L 588.592354 367.762377 
L 602.478998 368.200003 
L 605.950659 368.292173 
L 609.42232 368.535952 
L 611.15815 368.494703 
L 614.629811 368.661174 
L 618.101472 368.61782 
L 631.988116 368.935152 
L 642.403099 369.109525 
L 659.761404 369.478352 
L 677.119709 370.185192 
L 711.836319 370.737701 
L 717.04381 370.914535 
L 736.137945 371.250818 
L 741.345437 371.321085 
L 795.156182 371.988591 
L 795.156182 371.988591 
" clip-path="url(#p058e2555e5)" style="fill: none; stroke: #ff7f0e; stroke-width: 1.8; stroke-linecap: square"/>
   </g>
   <g id="line2d_39">
    <path d="M 102.559818 23.853601 
L 104.295649 33.155749 
L 106.031479 43.578977 
L 109.50314 59.325556 
L 111.238971 67.5697 
L 112.974801 76.972124 
L 114.710632 84.536939 
L 116.446462 91.00098 
L 118.182293 98.240538 
L 123.389784 118.212949 
L 126.861445 129.911895 
L 128.597275 134.1829 
L 130.333106 140.343902 
L 132.068936 145.257858 
L 133.804767 150.926621 
L 137.276428 160.530056 
L 139.012258 165.101161 
L 140.748089 168.413732 
L 142.483919 172.731988 
L 144.21975 176.525385 
L 145.95558 179.709557 
L 149.427241 187.533442 
L 151.163072 190.914747 
L 154.634733 198.609181 
L 156.370563 201.85741 
L 158.106394 205.626649 
L 161.578055 211.665364 
L 163.313885 214.889649 
L 165.049716 217.298882 
L 166.785546 220.02622 
L 171.993038 229.067848 
L 173.728868 231.7276 
L 180.67219 240.395066 
L 182.408021 242.563278 
L 184.143851 245.212226 
L 185.879681 246.649484 
L 189.351342 250.130488 
L 192.823003 254.175115 
L 196.294664 257.897465 
L 198.030495 259.338673 
L 199.766325 261.114288 
L 201.502156 263.370271 
L 204.973817 266.33718 
L 206.709647 267.662145 
L 208.445478 269.476122 
L 210.181308 270.433123 
L 211.917139 271.712136 
L 213.652969 273.163836 
L 217.12463 276.40595 
L 218.860461 278.058702 
L 222.332122 280.821575 
L 224.067952 281.404577 
L 225.803783 282.740637 
L 227.539613 283.341945 
L 232.747105 286.335837 
L 236.218766 288.934566 
L 237.954596 289.78464 
L 239.690427 290.989589 
L 243.162087 293.099936 
L 244.897918 294.364785 
L 246.633748 295.141409 
L 248.369579 296.066972 
L 253.57707 299.425291 
L 255.312901 300.055115 
L 257.048731 301.079663 
L 258.784562 301.789604 
L 262.256223 303.6651 
L 263.992053 304.354517 
L 265.727884 305.525992 
L 267.463714 306.026026 
L 272.671206 308.640988 
L 274.407036 309.218815 
L 283.086189 312.82052 
L 284.822019 313.683433 
L 286.55785 314.403917 
L 290.029511 315.468661 
L 291.765341 315.867601 
L 293.501172 316.494321 
L 295.237002 316.934638 
L 296.972833 317.604978 
L 298.708663 318.41441 
L 300.444494 318.967243 
L 302.180324 319.652032 
L 305.651985 320.770895 
L 312.595307 323.486509 
L 314.331137 323.850741 
L 319.538629 325.799344 
L 328.217781 328.039566 
L 329.953612 328.254771 
L 333.425273 329.254521 
L 335.161103 329.536394 
L 342.104425 331.479412 
L 343.840256 331.724538 
L 347.311917 332.854313 
L 359.46273 334.797758 
L 361.19856 335.293432 
L 366.406052 336.247173 
L 369.877713 336.911949 
L 378.556865 338.769246 
L 380.292696 338.982648 
L 382.028526 339.420739 
L 383.764357 339.657935 
L 387.236018 340.505904 
L 392.443509 341.006522 
L 394.17934 341.377549 
L 402.858492 342.293289 
L 404.594323 342.396877 
L 406.330153 342.676559 
L 408.065984 343.086377 
L 418.480967 344.696242 
L 420.216797 344.721977 
L 421.952627 345.01488 
L 428.895949 345.678906 
L 432.36761 346.31176 
L 434.103441 346.488007 
L 435.839271 346.842065 
L 446.254254 348.135896 
L 447.990085 348.463999 
L 467.08422 350.546058 
L 468.820051 350.655418 
L 470.555881 350.930649 
L 472.291712 351.020103 
L 474.027542 351.227804 
L 477.499203 351.448545 
L 479.235033 351.594785 
L 482.706694 352.109403 
L 484.442525 352.14848 
L 486.178355 352.384364 
L 487.914186 352.453191 
L 493.121677 353.109075 
L 498.329169 353.601277 
L 501.80083 353.749733 
L 503.53666 353.948781 
L 505.272491 354.032749 
L 508.744152 354.381119 
L 510.479982 354.488686 
L 513.951643 354.931133 
L 536.51744 356.42207 
L 538.25327 356.568484 
L 539.9891 356.587023 
L 543.460761 356.87553 
L 546.932422 357.110093 
L 552.139914 357.594304 
L 557.347405 357.881609 
L 562.554897 358.044356 
L 578.177371 359.142038 
L 581.649032 359.303038 
L 586.856524 359.584206 
L 590.328185 359.79775 
L 593.799846 359.971909 
L 602.478998 360.639395 
L 605.950659 360.851909 
L 616.365642 361.659141 
L 630.252286 362.388241 
L 638.931438 362.599202 
L 642.403099 362.753051 
L 645.87476 362.858908 
L 658.025573 363.395583 
L 661.497234 363.580858 
L 664.968895 363.688989 
L 678.855539 364.057331 
L 684.063031 364.31732 
L 687.534692 364.447153 
L 691.006353 364.542493 
L 697.949675 364.684607 
L 727.458793 365.699565 
L 730.930454 365.740328 
L 769.118725 366.88669 
L 774.326216 367.007282 
L 779.533707 367.128977 
L 795.156182 367.358107 
L 795.156182 367.358107 
" clip-path="url(#p058e2555e5)" style="fill: none; stroke: #2ca02c; stroke-width: 1.8; stroke-linecap: square"/>
   </g>
   <g id="line2d_40">
    <path d="M 102.559818 31.343653 
L 106.031479 46.681492 
L 107.76731 53.484775 
L 109.50314 61.477688 
L 111.238971 67.20072 
L 112.974801 73.837939 
L 114.710632 79.967683 
L 118.182293 90.794645 
L 119.918123 95.559232 
L 121.653954 101.138257 
L 123.389784 106.274903 
L 125.125614 111.047391 
L 126.861445 116.454204 
L 128.597275 120.924417 
L 130.333106 125.93517 
L 133.804767 135.302793 
L 135.540597 139.592136 
L 140.748089 151.216084 
L 142.483919 154.456018 
L 145.95558 161.736539 
L 149.427241 169.57248 
L 151.163072 172.914968 
L 154.634733 180.608933 
L 156.370563 183.645365 
L 161.578055 191.812813 
L 165.049716 197.881525 
L 166.785546 201.066877 
L 171.993038 208.802903 
L 173.728868 210.707983 
L 175.464699 213.203174 
L 177.200529 215.419197 
L 178.93636 218.267228 
L 180.67219 219.782516 
L 182.408021 221.944937 
L 184.143851 223.392896 
L 185.879681 225.759909 
L 187.615512 227.643294 
L 189.351342 229.915897 
L 191.087173 231.926564 
L 192.823003 233.585631 
L 194.558834 235.576184 
L 203.237986 244.577632 
L 204.973817 246.09327 
L 206.709647 248.062541 
L 210.181308 251.092856 
L 213.652969 254.408327 
L 215.3888 255.64843 
L 217.12463 257.827992 
L 220.596291 260.25602 
L 222.332122 262.05488 
L 224.067952 263.662735 
L 225.803783 265.428362 
L 232.747105 270.522153 
L 236.218766 273.403385 
L 237.954596 274.454064 
L 239.690427 275.874755 
L 243.162087 277.888977 
L 244.897918 279.280752 
L 246.633748 280.131251 
L 248.369579 281.150739 
L 250.105409 281.952189 
L 255.312901 285.327247 
L 258.784562 286.726703 
L 262.256223 288.586352 
L 267.463714 291.764133 
L 269.199545 292.440628 
L 270.935375 293.493712 
L 284.822019 299.643389 
L 286.55785 300.094499 
L 290.029511 301.430586 
L 293.501172 303.218942 
L 295.237002 303.80236 
L 296.972833 304.55701 
L 298.708663 304.996776 
L 303.916154 307.150315 
L 305.651985 308.067211 
L 307.387815 308.632217 
L 309.123646 309.572845 
L 312.595307 310.613218 
L 317.802798 312.719832 
L 319.538629 313.124916 
L 321.274459 313.706798 
L 323.01029 314.140565 
L 324.74612 314.859527 
L 333.425273 317.463781 
L 338.632764 319.351736 
L 340.368595 320.044245 
L 342.104425 320.474276 
L 343.840256 320.746164 
L 345.576086 321.194828 
L 347.311917 321.501899 
L 349.047747 322.013808 
L 354.255239 323.306753 
L 361.19856 325.208054 
L 364.670221 325.957445 
L 368.141882 326.567771 
L 369.877713 327.134805 
L 371.613543 327.537358 
L 376.821035 328.424929 
L 383.764357 330.055974 
L 387.236018 330.584933 
L 390.707679 331.475667 
L 392.443509 331.677938 
L 394.17934 332.063654 
L 395.91517 332.231395 
L 399.386831 333.074953 
L 404.594323 334.168271 
L 406.330153 334.651728 
L 413.273475 335.975625 
L 420.216797 336.968132 
L 427.160119 337.818973 
L 428.895949 338.312192 
L 432.36761 338.86732 
L 434.103441 339.104088 
L 435.839271 339.475512 
L 439.310932 339.947803 
L 441.046763 340.000457 
L 444.518424 340.543511 
L 449.725915 341.225081 
L 453.197576 341.704244 
L 454.933407 342.016674 
L 458.405068 342.456556 
L 461.876729 342.982447 
L 463.612559 343.123995 
L 465.34839 343.465923 
L 468.820051 343.852453 
L 474.027542 344.613512 
L 475.763373 344.680945 
L 479.235033 345.12944 
L 482.706694 345.490293 
L 486.178355 346.014767 
L 489.650016 346.495932 
L 491.385847 346.703235 
L 493.121677 346.737993 
L 498.329169 347.284888 
L 500.064999 347.23868 
L 501.80083 347.383608 
L 503.53666 347.64952 
L 505.272491 347.711324 
L 508.744152 348.061219 
L 510.479982 348.145239 
L 515.687474 348.670647 
L 534.781609 350.427515 
L 536.51744 350.52654 
L 538.25327 350.799683 
L 548.668253 351.709233 
L 555.611575 352.503503 
L 560.819066 352.75252 
L 562.554897 352.976578 
L 566.026558 353.170699 
L 567.762388 353.346661 
L 571.234049 353.50467 
L 583.384863 354.58085 
L 586.856524 354.850474 
L 590.328185 355.121853 
L 592.064015 355.37464 
L 597.271506 355.541403 
L 599.007337 355.536904 
L 602.478998 355.822502 
L 611.15815 356.475897 
L 623.308964 357.032237 
L 626.780625 357.302707 
L 633.723947 357.568431 
L 640.667269 358.130758 
L 651.082252 358.714114 
L 652.818082 358.875957 
L 656.289743 358.911989 
L 659.761404 359.085685 
L 661.497234 359.255174 
L 671.912217 359.458226 
L 675.383878 359.594938 
L 685.798861 359.882814 
L 691.006353 360.163223 
L 703.157166 360.747753 
L 708.364658 361.024487 
L 730.930454 362.103083 
L 751.76042 362.919796 
L 769.118725 363.553394 
L 772.590386 363.546681 
L 779.533707 363.888688 
L 784.741199 364.128328 
L 791.684521 364.316015 
L 795.156182 364.509646 
L 795.156182 364.509646 
" clip-path="url(#p058e2555e5)" style="fill: none; stroke: #d62728; stroke-width: 1.8; stroke-linecap: square"/>
   </g>
   <g id="patch_3">
    <path d="M 67.93 389.8512 
L 67.93 2.88 
" style="fill: none; stroke: #000000; stroke-linejoin: miter; stroke-linecap: square"/>
   </g>
   <g id="patch_4">
    <path d="M 829.786 389.8512 
L 829.786 2.88 
" style="fill: none; stroke: #000000; stroke-linejoin: miter; stroke-linecap: square"/>
   </g>
   <g id="patch_5">
    <path d="M 67.93 389.8512 
L 829.786 389.8512 
" style="fill: none; stroke: #000000; stroke-linejoin: miter; stroke-linecap: square"/>
   </g>
   <g id="patch_6">
    <path d="M 67.93 2.88 
L 829.786 2.88 
" style="fill: none; stroke: #000000; stroke-linejoin: miter; stroke-linecap: square"/>
   </g>
   <g id="legend_1">
    <g id="patch_7">
     <path d="M 647.386 151.240938 
L 821.786 151.240938 
L 821.786 10.88 
L 647.386 10.88 
z
" style="fill: #ffffff; opacity: 0.8; stroke: #cccccc; stroke-linejoin: miter"/>
    </g>
    <g id="text_15">
     <!-- FWHM $(\mu m)$ -->
     <g transform="translate(655.386 39.71125)">
      <text>
       <tspan x="0" y="-0.71875" style="font-size: 30px; font-family: 'Times New Roman'">F</tspan>
       <tspan x="16.68457" y="-0.71875" style="font-size: 30px; font-family: 'Times New Roman'">W</tspan>
       <tspan x="45" y="-0.71875" style="font-size: 30px; font-family: 'Times New Roman'">H</tspan>
       <tspan x="66.665039" y="-0.71875" style="font-size: 30px; font-family: 'Times New Roman'">M</tspan>
       <tspan x="93.339844" y="-0.71875" style="font-size: 30px; font-family: 'Times New Roman'"> </tspan>
       <tspan x="100.839844" y="-0.71875" style="font-size: 30px; font-family: 'STIXGeneral'">(</tspan>
       <tspan x="148.269821" y="-0.71875" style="font-size: 30px; font-family: 'STIXGeneral'">)</tspan>
       <tspan x="110.829834" y="-0.71875" style="font-style: italic; font-size: 30px; font-family: 'STIXGeneral'">μ</tspan>
       <tspan x="126.609833" y="-0.71875" style="font-style: italic; font-size: 30px; font-family: 'STIXGeneral'">m</tspan>
      </text>
     </g>
    </g>
    <g id="line2d_41">
     <path d="M 689.086 59.128438 
L 707.086 59.128438 
L 725.086 59.128438 
" style="fill: none; stroke: #1f77b4; stroke-width: 1.8; stroke-linecap: square"/>
    </g>
    <g id="text_16">
     <text style="font-size: 20px; font-family: 'Times New Roman', 'Times', 'DejaVu Serif', serif; text-anchor: start" x="735.086" y="66.128438" transform="rotate(-0 735.086 66.128438)">120.0</text>
    </g>
    <g id="line2d_42">
     <path d="M 689.086 83.406563 
L 707.086 83.406563 
L 725.086 83.406563 
" style="fill: none; stroke: #ff7f0e; stroke-width: 1.8; stroke-linecap: square"/>
    </g>
    <g id="text_17">
     <text style="font-size: 20px; font-family: 'Times New Roman', 'Times', 'DejaVu Serif', serif; text-anchor: start" x="735.086" y="90.406563" transform="rotate(-0 735.086 90.406563)">150.0</text>
    </g>
    <g id="line2d_43">
     <path d="M 689.086 107.684688 
L 707.086 107.684688 
L 725.086 107.684688 
" style="fill: none; stroke: #2ca02c; stroke-width: 1.8; stroke-linecap: square"/>
    </g>
    <g id="text_18">
     <text style="font-size: 20px; font-family: 'Times New Roman', 'Times', 'DejaVu Serif', serif; text-anchor: start" x="735.086" y="114.684688" transform="rotate(-0 735.086 114.684688)">250.0</text>
    </g>
    <g id="line2d_44">
     <path d="M 689.086 131.962813 
L 707.086 131.962813 
L 725.086 131.962813 
" style="fill: none; stroke: #d62728; stroke-width: 1.8; stroke-linecap: square"/>
    </g>
    <g id="text_19">
     <text style="font-size: 20px; font-family: 'Times New Roman', 'Times', 'DejaVu Serif', serif; text-anchor: start" x="735.086" y="138.962813" transform="rotate(-0 735.086 138.962813)">325.0</text>
    </g>
   </g>
  </g>
 </g>
 <defs>
  <clipPath id="p058e2555e5">
   <rect x="67.93" y="2.88" width="761.856" height="386.9712"/>
  </clipPath>
 </defs>
</svg>
