<?xml version="1.0" encoding="utf-8" standalone="no"?>
<!DOCTYPE svg PUBLIC "-//W3C//DTD SVG 1.1//EN"
  "http://www.w3.org/Graphics/SVG/1.1/DTD/svg11.dtd">
<svg xmlns:xlink="http://www.w3.org/1999/xlink" width="389.291602pt" height="210.172131pt" viewBox="0 0 389.291602 210.172131" xmlns="http://www.w3.org/2000/svg" version="1.1">
 <metadata>
  <rdf:RDF xmlns:dc="http://purl.org/dc/elements/1.1/" xmlns:cc="http://creativecommons.org/ns#" xmlns:rdf="http://www.w3.org/1999/02/22-rdf-syntax-ns#">
   <cc:Work>
    <dc:type rdf:resource="http://purl.org/dc/dcmitype/StillImage"/>
    <dc:date>2026-07-23T14:03:00.094297</dc:date>
    <dc:format>image/svg+xml</dc:format>
    <dc:creator>
     <cc:Agent>
      <dc:title>Matplotlib v3.10.9, https://matplotlib.org/</dc:title>
     </cc:Agent>
    </dc:creator>
   </cc:Work>
  </rdf:RDF>
 </metadata>
 <defs>
  <style type="text/css">*{stroke-linejoin: round; stroke-linecap: butt}</style>
 </defs>
 <g id="figure_1">
  <g id="patch_1">
   <path d="M 0 210.172131 
L 389.291602 210.172131 
L 389.291602 0 
L 0 0 
z
" style="fill: #ffffff"/>
  </g>
  <g id="axes_1">
   <g id="patch_2">
    <path d="M 35.03479 178.29504 
L 389.291602 178.29504 
L 389.291602 0 
L 35.03479 0 
z
" style="fill: #ffffff"/>
   </g>
   <g id="matplotlib.axis_1">
    <g id="xtick_1">
     <g id="line2d_1">
      <path d="M 51.137372 178.29504 
L 51.137372 0 
" clip-path="url(#paac96f24d1)" style="fill: none; stroke-dasharray: 0.6,0.99; stroke-dashoffset: 0; stroke: #bfbfbf; stroke-opacity: 0.25; stroke-width: 0.6"/>
     </g>
     <g id="line2d_2">
      <defs>
       <path id="m0cf0a876b3" d="M 0 0 
L 0 -3 
" style="stroke: #000000; stroke-width: 0.5"/>
      </defs>
      <g>
       <use xlink:href="#m0cf0a876b3" x="51.137372" y="178.29504" style="stroke: #000000; stroke-width: 0.5"/>
      </g>
     </g>
     <g id="line2d_3">
      <defs>
       <path id="m124aaef1f3" d="M 0 0 
L 0 3 
" style="stroke: #000000; stroke-width: 0.5"/>
      </defs>
      <g>
       <use xlink:href="#m124aaef1f3" x="51.137372" y="0" style="stroke: #000000; stroke-width: 0.5"/>
      </g>
     </g>
     <g id="text_1">
      <!-- $\mathdefault{0.0}$ -->
      <g transform="translate(45.412388 189.374157) scale(0.09 -0.09)">
       <defs>
        <path id="NimbusRomNo9L-Regu-30" d="M 1626 4352 
C 1274 4352 1005 4244 768 4020 
C 397 3661 154 2925 154 2176 
C 154 1479 365 730 666 372 
C 902 90 1229 -64 1600 -64 
C 1926 -64 2202 45 2432 269 
C 2803 621 3046 1364 3046 2138 
C 3046 3450 2464 4352 1626 4352 
z
M 1606 4186 
C 2144 4186 2432 3463 2432 2125 
C 2432 788 2150 103 1600 103 
C 1050 103 768 788 768 2119 
C 768 3476 1056 4186 1606 4186 
z
" transform="scale(0.015625)"/>
        <path id="CMMI10-3a" d="M 1229 338 
C 1229 522 1075 675 890 675 
C 704 675 550 522 550 338 
C 550 153 704 0 890 0 
C 1075 0 1229 153 1229 338 
z
" transform="scale(0.015625)"/>
       </defs>
       <use xlink:href="#NimbusRomNo9L-Regu-30" transform="scale(0.996264)"/>
       <use xlink:href="#CMMI10-3a" transform="translate(49.8132 0) scale(0.996264)"/>
       <use xlink:href="#NimbusRomNo9L-Regu-30" transform="translate(77.408707 0) scale(0.996264)"/>
      </g>
     </g>
    </g>
    <g id="xtick_2">
     <g id="line2d_4">
      <path d="M 104.914023 178.29504 
L 104.914023 0 
" clip-path="url(#paac96f24d1)" style="fill: none; stroke-dasharray: 0.6,0.99; stroke-dashoffset: 0; stroke: #bfbfbf; stroke-opacity: 0.25; stroke-width: 0.6"/>
     </g>
     <g id="line2d_5">
      <g>
       <use xlink:href="#m0cf0a876b3" x="104.914023" y="178.29504" style="stroke: #000000; stroke-width: 0.5"/>
      </g>
     </g>
     <g id="line2d_6">
      <g>
       <use xlink:href="#m124aaef1f3" x="104.914023" y="0" style="stroke: #000000; stroke-width: 0.5"/>
      </g>
     </g>
     <g id="text_2">
      <!-- $\mathdefault{0.5}$ -->
      <g transform="translate(99.189039 189.374157) scale(0.09 -0.09)">
       <defs>
        <path id="NimbusRomNo9L-Regu-35" d="M 1158 3776 
L 2413 3776 
C 2515 3776 2541 3789 2560 3834 
L 2803 4403 
L 2746 4448 
C 2650 4314 2586 4282 2451 4282 
L 1114 4282 
L 416 2759 
C 410 2746 410 2740 410 2727 
C 410 2695 435 2676 486 2676 
C 691 2676 947 2631 1210 2547 
C 1946 2309 2285 1910 2285 1274 
C 2285 656 1894 173 1395 173 
C 1267 173 1158 218 966 360 
C 762 508 614 572 480 572 
C 294 572 205 495 205 334 
C 205 90 506 -64 986 -64 
C 1523 -64 1984 110 2304 438 
C 2598 728 2733 1094 2733 1583 
C 2733 2046 2611 2342 2291 2663 
C 2010 2947 1645 3094 890 3229 
L 1158 3776 
z
" transform="scale(0.015625)"/>
       </defs>
       <use xlink:href="#NimbusRomNo9L-Regu-30" transform="scale(0.996264)"/>
       <use xlink:href="#CMMI10-3a" transform="translate(49.8132 0) scale(0.996264)"/>
       <use xlink:href="#NimbusRomNo9L-Regu-35" transform="translate(77.408707 0) scale(0.996264)"/>
      </g>
     </g>
    </g>
    <g id="xtick_3">
     <g id="line2d_7">
      <path d="M 158.690674 178.29504 
L 158.690674 0 
" clip-path="url(#paac96f24d1)" style="fill: none; stroke-dasharray: 0.6,0.99; stroke-dashoffset: 0; stroke: #bfbfbf; stroke-opacity: 0.25; stroke-width: 0.6"/>
     </g>
     <g id="line2d_8">
      <g>
       <use xlink:href="#m0cf0a876b3" x="158.690674" y="178.29504" style="stroke: #000000; stroke-width: 0.5"/>
      </g>
     </g>
     <g id="line2d_9">
      <g>
       <use xlink:href="#m124aaef1f3" x="158.690674" y="0" style="stroke: #000000; stroke-width: 0.5"/>
      </g>
     </g>
     <g id="text_3">
      <!-- $\mathdefault{1.0}$ -->
      <g transform="translate(152.96569 189.374157) scale(0.09 -0.09)">
       <defs>
        <path id="NimbusRomNo9L-Regu-31" d="M 1862 4339 
L 710 3757 
L 710 3667 
C 787 3699 858 3725 883 3738 
C 998 3783 1107 3808 1171 3808 
C 1306 3808 1363 3711 1363 3505 
L 1363 592 
C 1363 379 1312 232 1210 173 
C 1114 116 1024 96 755 96 
L 755 0 
L 2522 0 
L 2522 96 
C 2016 96 1914 160 1914 470 
L 1914 4327 
L 1862 4339 
z
" transform="scale(0.015625)"/>
       </defs>
       <use xlink:href="#NimbusRomNo9L-Regu-31" transform="scale(0.996264)"/>
       <use xlink:href="#CMMI10-3a" transform="translate(49.8132 0) scale(0.996264)"/>
       <use xlink:href="#NimbusRomNo9L-Regu-30" transform="translate(77.408707 0) scale(0.996264)"/>
      </g>
     </g>
    </g>
    <g id="xtick_4">
     <g id="line2d_10">
      <path d="M 212.467325 178.29504 
L 212.467325 0 
" clip-path="url(#paac96f24d1)" style="fill: none; stroke-dasharray: 0.6,0.99; stroke-dashoffset: 0; stroke: #bfbfbf; stroke-opacity: 0.25; stroke-width: 0.6"/>
     </g>
     <g id="line2d_11">
      <g>
       <use xlink:href="#m0cf0a876b3" x="212.467325" y="178.29504" style="stroke: #000000; stroke-width: 0.5"/>
      </g>
     </g>
     <g id="line2d_12">
      <g>
       <use xlink:href="#m124aaef1f3" x="212.467325" y="0" style="stroke: #000000; stroke-width: 0.5"/>
      </g>
     </g>
     <g id="text_4">
      <!-- $\mathdefault{1.5}$ -->
      <g transform="translate(206.742341 189.374157) scale(0.09 -0.09)">
       <use xlink:href="#NimbusRomNo9L-Regu-31" transform="scale(0.996264)"/>
       <use xlink:href="#CMMI10-3a" transform="translate(49.8132 0) scale(0.996264)"/>
       <use xlink:href="#NimbusRomNo9L-Regu-35" transform="translate(77.408707 0) scale(0.996264)"/>
      </g>
     </g>
    </g>
    <g id="xtick_5">
     <g id="line2d_13">
      <path d="M 266.243976 178.29504 
L 266.243976 0 
" clip-path="url(#paac96f24d1)" style="fill: none; stroke-dasharray: 0.6,0.99; stroke-dashoffset: 0; stroke: #bfbfbf; stroke-opacity: 0.25; stroke-width: 0.6"/>
     </g>
     <g id="line2d_14">
      <g>
       <use xlink:href="#m0cf0a876b3" x="266.243976" y="178.29504" style="stroke: #000000; stroke-width: 0.5"/>
      </g>
     </g>
     <g id="line2d_15">
      <g>
       <use xlink:href="#m124aaef1f3" x="266.243976" y="0" style="stroke: #000000; stroke-width: 0.5"/>
      </g>
     </g>
     <g id="text_5">
      <!-- $\mathdefault{2.0}$ -->
      <g transform="translate(260.518992 189.374157) scale(0.09 -0.09)">
       <defs>
        <path id="NimbusRomNo9L-Regu-32" d="M 3040 875 
L 2957 907 
C 2720 544 2637 486 2349 486 
L 819 486 
L 1894 1609 
C 2464 2202 2714 2687 2714 3185 
C 2714 3823 2195 4313 1530 4313 
C 1178 4313 845 4173 608 3918 
C 403 3700 307 3496 198 3043 
L 333 3011 
C 589 3636 819 3840 1261 3840 
C 1798 3840 2163 3476 2163 2940 
C 2163 2443 1869 1850 1331 1282 
L 192 77 
L 192 0 
L 2688 0 
L 3040 875 
z
" transform="scale(0.015625)"/>
       </defs>
       <use xlink:href="#NimbusRomNo9L-Regu-32" transform="scale(0.996264)"/>
       <use xlink:href="#CMMI10-3a" transform="translate(49.8132 0) scale(0.996264)"/>
       <use xlink:href="#NimbusRomNo9L-Regu-30" transform="translate(77.408707 0) scale(0.996264)"/>
      </g>
     </g>
    </g>
    <g id="xtick_6">
     <g id="line2d_16">
      <path d="M 320.020627 178.29504 
L 320.020627 0 
" clip-path="url(#paac96f24d1)" style="fill: none; stroke-dasharray: 0.6,0.99; stroke-dashoffset: 0; stroke: #bfbfbf; stroke-opacity: 0.25; stroke-width: 0.6"/>
     </g>
     <g id="line2d_17">
      <g>
       <use xlink:href="#m0cf0a876b3" x="320.020627" y="178.29504" style="stroke: #000000; stroke-width: 0.5"/>
      </g>
     </g>
     <g id="line2d_18">
      <g>
       <use xlink:href="#m124aaef1f3" x="320.020627" y="0" style="stroke: #000000; stroke-width: 0.5"/>
      </g>
     </g>
     <g id="text_6">
      <!-- $\mathdefault{2.5}$ -->
      <g transform="translate(314.295643 189.374157) scale(0.09 -0.09)">
       <use xlink:href="#NimbusRomNo9L-Regu-32" transform="scale(0.996264)"/>
       <use xlink:href="#CMMI10-3a" transform="translate(49.8132 0) scale(0.996264)"/>
       <use xlink:href="#NimbusRomNo9L-Regu-35" transform="translate(77.408707 0) scale(0.996264)"/>
      </g>
     </g>
    </g>
    <g id="xtick_7">
     <g id="line2d_19">
      <path d="M 373.797278 178.29504 
L 373.797278 0 
" clip-path="url(#paac96f24d1)" style="fill: none; stroke-dasharray: 0.6,0.99; stroke-dashoffset: 0; stroke: #bfbfbf; stroke-opacity: 0.25; stroke-width: 0.6"/>
     </g>
     <g id="line2d_20">
      <g>
       <use xlink:href="#m0cf0a876b3" x="373.797278" y="178.29504" style="stroke: #000000; stroke-width: 0.5"/>
      </g>
     </g>
     <g id="line2d_21">
      <g>
       <use xlink:href="#m124aaef1f3" x="373.797278" y="0" style="stroke: #000000; stroke-width: 0.5"/>
      </g>
     </g>
     <g id="text_7">
      <!-- $\mathdefault{3.0}$ -->
      <g transform="translate(368.072294 189.374157) scale(0.09 -0.09)">
       <defs>
        <path id="NimbusRomNo9L-Regu-33" d="M 979 2138 
C 1357 2138 1504 2125 1658 2068 
C 2054 1927 2304 1562 2304 1120 
C 2304 583 1939 167 1466 167 
C 1293 167 1165 212 928 365 
C 736 480 627 525 518 525 
C 371 525 275 436 275 301 
C 275 77 550 -64 998 -64 
C 1491 -64 1997 103 2298 365 
C 2598 628 2765 999 2765 1428 
C 2765 1754 2662 2055 2477 2253 
C 2349 2394 2227 2471 1946 2592 
C 2387 2893 2547 3130 2547 3476 
C 2547 3994 2138 4352 1549 4352 
C 1229 4352 947 4244 717 4039 
C 525 3866 429 3699 288 3315 
L 384 3290 
C 646 3757 934 3968 1338 3968 
C 1754 3968 2042 3687 2042 3284 
C 2042 3053 1946 2823 1786 2663 
C 1594 2471 1414 2375 979 2221 
L 979 2138 
z
" transform="scale(0.015625)"/>
       </defs>
       <use xlink:href="#NimbusRomNo9L-Regu-33" transform="scale(0.996264)"/>
       <use xlink:href="#CMMI10-3a" transform="translate(49.8132 0) scale(0.996264)"/>
       <use xlink:href="#NimbusRomNo9L-Regu-30" transform="translate(77.408707 0) scale(0.996264)"/>
      </g>
     </g>
    </g>
    <g id="text_8">
     <!-- time [$\mu s$] -->
     <g transform="translate(187.769633 207.096248) scale(0.13 -0.13)">
      <defs>
       <path id="NimbusRomNo9L-Regu-74" d="M 1632 2880 
L 986 2880 
L 986 3622 
C 986 3686 979 3706 941 3706 
C 896 3648 858 3590 813 3526 
C 570 3174 294 2867 192 2841 
C 122 2794 83 2748 83 2715 
C 83 2695 90 2682 109 2682 
L 448 2682 
L 448 751 
C 448 212 640 -64 1018 -64 
C 1331 -64 1574 90 1786 423 
L 1702 493 
C 1568 333 1459 269 1318 269 
C 1082 269 986 443 986 847 
L 986 2682 
L 1632 2682 
L 1632 2880 
z
" transform="scale(0.015625)"/>
       <path id="NimbusRomNo9L-Regu-69" d="M 1120 2929 
L 128 2579 
L 128 2484 
L 179 2490 
C 256 2502 339 2509 397 2509 
C 550 2509 608 2406 608 2125 
L 608 640 
C 608 179 544 109 102 109 
L 102 0 
L 1619 0 
L 1619 96 
C 1197 128 1146 191 1146 650 
L 1146 2910 
L 1120 2929 
z
M 819 4352 
C 646 4352 499 4205 499 4026 
C 499 3847 640 3699 819 3699 
C 1005 3699 1152 3840 1152 4026 
C 1152 4205 1005 4352 819 4352 
z
" transform="scale(0.015625)"/>
       <path id="NimbusRomNo9L-Regu-6d" d="M 122 2547 
C 205 2566 256 2573 326 2573 
C 493 2573 550 2470 550 2162 
L 550 539 
C 550 192 461 96 102 96 
L 102 0 
L 1523 0 
L 1523 96 
C 1184 96 1088 166 1088 418 
L 1088 2234 
C 1088 2246 1139 2310 1184 2355 
C 1344 2502 1619 2611 1843 2611 
C 2125 2611 2266 2385 2266 1932 
L 2266 528 
C 2266 167 2195 96 1830 96 
L 1830 0 
L 3264 0 
L 3264 96 
C 2899 96 2803 205 2803 603 
L 2803 2221 
C 2995 2496 3206 2611 3501 2611 
C 3866 2611 3981 2438 3981 1907 
L 3981 557 
C 3981 192 3930 141 3558 96 
L 3558 0 
L 4960 0 
L 4960 96 
L 4794 115 
C 4602 115 4518 230 4518 480 
L 4518 1802 
C 4518 2559 4269 2944 3776 2944 
C 3405 2944 3078 2778 2733 2407 
C 2618 2771 2400 2944 2054 2944 
C 1773 2944 1594 2854 1062 2451 
L 1062 2931 
L 1018 2944 
C 691 2822 474 2752 122 2656 
L 122 2547 
z
" transform="scale(0.015625)"/>
       <path id="NimbusRomNo9L-Regu-65" d="M 2611 1053 
C 2304 564 2029 378 1619 378 
C 1254 378 979 564 794 930 
C 678 1174 634 1386 621 1779 
L 2592 1779 
C 2541 2193 2477 2377 2317 2581 
C 2125 2811 1830 2944 1498 2944 
C 1178 2944 877 2829 634 2611 
C 333 2349 160 1894 160 1370 
C 160 486 621 -64 1357 -64 
C 1965 -64 2445 315 2714 1008 
L 2611 1053 
z
M 634 1984 
C 704 2479 922 2714 1312 2714 
C 1702 2714 1856 2535 1939 1984 
L 634 1984 
z
" transform="scale(0.015625)"/>
       <path id="NimbusRomNo9L-Regu-5b" d="M 1914 -864 
L 1363 -864 
C 1152 -864 1050 -756 1050 -531 
L 1050 3781 
C 1050 3981 1133 4064 1338 4064 
L 1914 4064 
L 1914 4224 
L 563 4224 
L 563 -1024 
L 1914 -1024 
L 1914 -864 
z
" transform="scale(0.015625)"/>
       <path id="StandardSymL-6d" d="M 2829 3168 
L 2259 3168 
L 2266 818 
C 2035 517 1818 388 1549 388 
C 1178 388 960 646 960 1086 
L 960 3168 
L 397 3168 
L 397 113 
C 397 -20 371 -179 326 -371 
C 218 -766 211 -804 211 -950 
C 211 -1218 346 -1408 531 -1408 
C 717 -1408 845 -1214 845 -928 
C 845 -791 826 -706 723 -330 
C 659 -96 646 -31 646 151 
L 646 229 
C 915 6 1062 -64 1280 -64 
C 1600 -64 1926 129 2266 513 
C 2317 314 2349 240 2413 148 
C 2509 17 2682 -64 2867 -64 
C 3264 -64 3539 204 3629 672 
L 3456 672 
C 3430 453 3296 280 3149 280 
C 2957 280 2829 506 2829 847 
L 2829 3168 
z
" transform="scale(0.015625)"/>
       <path id="NimbusRomNo9L-ReguItal-73" d="M 230 945 
L 102 -83 
L 205 -83 
C 256 29 294 64 358 64 
C 429 64 544 34 672 -5 
C 813 -60 922 -83 1024 -83 
C 1562 -83 1946 263 1946 749 
C 1946 992 1811 1274 1510 1645 
C 1267 1945 1165 2144 1165 2317 
C 1165 2528 1299 2663 1523 2663 
C 1856 2663 2048 2423 2112 1920 
L 2214 1920 
L 2342 2816 
L 2253 2816 
C 2202 2720 2150 2693 2061 2693 
C 2016 2693 1952 2708 1830 2744 
C 1670 2802 1574 2816 1472 2816 
C 1005 2816 698 2542 698 2114 
C 698 1910 832 1635 1101 1290 
C 1350 964 1459 741 1459 556 
C 1459 268 1267 64 986 64 
C 634 64 435 330 333 945 
L 230 945 
z
" transform="scale(0.015625)"/>
       <path id="NimbusRomNo9L-Regu-5d" d="M 218 -864 
L 218 -1024 
L 1568 -1024 
L 1568 4224 
L 218 4224 
L 218 4064 
L 768 4064 
C 979 4064 1082 3955 1082 3730 
L 1082 -582 
C 1082 -781 992 -864 794 -864 
L 218 -864 
z
" transform="scale(0.015625)"/>
      </defs>
      <use xlink:href="#NimbusRomNo9L-Regu-74" transform="scale(0.996264)"/>
      <use xlink:href="#NimbusRomNo9L-Regu-69" transform="translate(27.69517 0) scale(0.996264)"/>
      <use xlink:href="#NimbusRomNo9L-Regu-6d" transform="translate(55.390339 0) scale(0.996264)"/>
      <use xlink:href="#NimbusRomNo9L-Regu-65" transform="translate(132.898709 0) scale(0.996264)"/>
      <use xlink:href="#NimbusRomNo9L-Regu-5b" transform="translate(202.038878 0) scale(0.996264)"/>
      <use xlink:href="#StandardSymL-6d" transform="translate(237.704722 0) scale(0.996264)"/>
      <use xlink:href="#NimbusRomNo9L-ReguItal-73" transform="translate(303.357131 0) scale(0.996264)"/>
      <use xlink:href="#NimbusRomNo9L-Regu-5d" transform="translate(342.110837 0) scale(0.996264)"/>
     </g>
    </g>
    <g id="text_9">
     <!-- $\times\mathdefault{10^{4}}\mathdefault{}$ -->
     <g transform="translate(369.871522 201.104236) scale(0.09 -0.09)">
      <defs>
       <path id="CMSY10-2" d="M 2490 1785 
L 1210 3059 
C 1133 3136 1120 3148 1069 3148 
C 1005 3148 941 3091 941 3020 
C 941 2976 954 2963 1024 2892 
L 2304 1606 
L 1024 320 
C 954 249 941 236 941 192 
C 941 121 1005 64 1069 64 
C 1120 64 1133 76 1210 153 
L 2483 1427 
L 3808 102 
C 3821 96 3866 64 3904 64 
C 3981 64 4032 121 4032 192 
C 4032 204 4032 230 4013 262 
C 4006 275 2989 1280 2669 1606 
L 3840 2777 
C 3872 2816 3968 2899 4000 2937 
C 4006 2950 4032 2976 4032 3020 
C 4032 3091 3981 3148 3904 3148 
C 3853 3148 3827 3123 3757 3052 
L 2490 1785 
z
" transform="scale(0.015625)"/>
       <path id="NimbusRomNo9L-Regu-34" d="M 3021 1497 
L 2368 1497 
L 2368 4352 
L 2086 4352 
L 77 1497 
L 77 1088 
L 1875 1088 
L 1875 32 
L 2368 32 
L 2368 1088 
L 3021 1088 
L 3021 1497 
z
M 1869 1497 
L 333 1497 
L 1869 3698 
L 1869 1497 
z
" transform="scale(0.015625)"/>
      </defs>
      <use xlink:href="#CMSY10-2" transform="scale(0.996264)"/>
      <use xlink:href="#NimbusRomNo9L-Regu-31" transform="translate(77.408707 0) scale(0.996264)"/>
      <use xlink:href="#NimbusRomNo9L-Regu-30" transform="translate(127.221908 0) scale(0.996264)"/>
      <use xlink:href="#NimbusRomNo9L-Regu-34" transform="translate(177.035108 36.163231) scale(0.737241)"/>
     </g>
    </g>
   </g>
   <g id="matplotlib.axis_2">
    <g id="ytick_1">
     <g id="line2d_22">
      <path d="M 35.03479 142.093896 
L 389.291602 142.093896 
" clip-path="url(#paac96f24d1)" style="fill: none; stroke-dasharray: 0.6,0.99; stroke-dashoffset: 0; stroke: #bfbfbf; stroke-opacity: 0.25; stroke-width: 0.6"/>
     </g>
     <g id="line2d_23">
      <defs>
       <path id="m2de97fd305" d="M 0 0 
L 3 0 
" style="stroke: #000000; stroke-width: 0.5"/>
      </defs>
      <g>
       <use xlink:href="#m2de97fd305" x="35.03479" y="142.093896" style="stroke: #000000; stroke-width: 0.5"/>
      </g>
     </g>
     <g id="line2d_24">
      <defs>
       <path id="m3f898bd130" d="M 0 0 
L -3 0 
" style="stroke: #000000; stroke-width: 0.5"/>
      </defs>
      <g>
       <use xlink:href="#m3f898bd130" x="389.291602" y="142.093896" style="stroke: #000000; stroke-width: 0.5"/>
      </g>
     </g>
     <g id="text_10">
      <!-- $\mathdefault{0.2}$ -->
      <g transform="translate(18.584822 145.133454) scale(0.09 -0.09)">
       <use xlink:href="#NimbusRomNo9L-Regu-30" transform="scale(0.996264)"/>
       <use xlink:href="#CMMI10-3a" transform="translate(49.8132 0) scale(0.996264)"/>
       <use xlink:href="#NimbusRomNo9L-Regu-32" transform="translate(77.408707 0) scale(0.996264)"/>
      </g>
     </g>
    </g>
    <g id="ytick_2">
     <g id="line2d_25">
      <path d="M 35.03479 105.726817 
L 389.291602 105.726817 
" clip-path="url(#paac96f24d1)" style="fill: none; stroke-dasharray: 0.6,0.99; stroke-dashoffset: 0; stroke: #bfbfbf; stroke-opacity: 0.25; stroke-width: 0.6"/>
     </g>
     <g id="line2d_26">
      <g>
       <use xlink:href="#m2de97fd305" x="35.03479" y="105.726817" style="stroke: #000000; stroke-width: 0.5"/>
      </g>
     </g>
     <g id="line2d_27">
      <g>
       <use xlink:href="#m3f898bd130" x="389.291602" y="105.726817" style="stroke: #000000; stroke-width: 0.5"/>
      </g>
     </g>
     <g id="text_11">
      <!-- $\mathdefault{0.4}$ -->
      <g transform="translate(18.584822 108.766375) scale(0.09 -0.09)">
       <use xlink:href="#NimbusRomNo9L-Regu-30" transform="scale(0.996264)"/>
       <use xlink:href="#CMMI10-3a" transform="translate(49.8132 0) scale(0.996264)"/>
       <use xlink:href="#NimbusRomNo9L-Regu-34" transform="translate(77.408707 0) scale(0.996264)"/>
      </g>
     </g>
    </g>
    <g id="ytick_3">
     <g id="line2d_28">
      <path d="M 35.03479 69.359738 
L 389.291602 69.359738 
" clip-path="url(#paac96f24d1)" style="fill: none; stroke-dasharray: 0.6,0.99; stroke-dashoffset: 0; stroke: #bfbfbf; stroke-opacity: 0.25; stroke-width: 0.6"/>
     </g>
     <g id="line2d_29">
      <g>
       <use xlink:href="#m2de97fd305" x="35.03479" y="69.359738" style="stroke: #000000; stroke-width: 0.5"/>
      </g>
     </g>
     <g id="line2d_30">
      <g>
       <use xlink:href="#m3f898bd130" x="389.291602" y="69.359738" style="stroke: #000000; stroke-width: 0.5"/>
      </g>
     </g>
     <g id="text_12">
      <!-- $\mathdefault{0.6}$ -->
      <g transform="translate(18.584822 72.399296) scale(0.09 -0.09)">
       <defs>
        <path id="NimbusRomNo9L-Regu-36" d="M 2854 4391 
C 2125 4327 1754 4205 1286 3879 
C 595 3386 218 2656 218 1802 
C 218 1248 390 688 666 370 
C 909 89 1254 -64 1651 -64 
C 2445 -64 2995 541 2995 1421 
C 2995 2236 2528 2752 1792 2752 
C 1510 2752 1376 2707 973 2464 
C 1146 3431 1862 4122 2867 4288 
L 2854 4391 
z
M 1549 2458 
C 2099 2458 2419 2000 2419 1204 
C 2419 504 2170 116 1722 116 
C 1158 116 813 714 813 1700 
C 813 2025 864 2203 992 2299 
C 1126 2400 1325 2458 1549 2458 
z
" transform="scale(0.015625)"/>
       </defs>
       <use xlink:href="#NimbusRomNo9L-Regu-30" transform="scale(0.996264)"/>
       <use xlink:href="#CMMI10-3a" transform="translate(49.8132 0) scale(0.996264)"/>
       <use xlink:href="#NimbusRomNo9L-Regu-36" transform="translate(77.408707 0) scale(0.996264)"/>
      </g>
     </g>
    </g>
    <g id="ytick_4">
     <g id="line2d_31">
      <path d="M 35.03479 32.992659 
L 389.291602 32.992659 
" clip-path="url(#paac96f24d1)" style="fill: none; stroke-dasharray: 0.6,0.99; stroke-dashoffset: 0; stroke: #bfbfbf; stroke-opacity: 0.25; stroke-width: 0.6"/>
     </g>
     <g id="line2d_32">
      <g>
       <use xlink:href="#m2de97fd305" x="35.03479" y="32.992659" style="stroke: #000000; stroke-width: 0.5"/>
      </g>
     </g>
     <g id="line2d_33">
      <g>
       <use xlink:href="#m3f898bd130" x="389.291602" y="32.992659" style="stroke: #000000; stroke-width: 0.5"/>
      </g>
     </g>
     <g id="text_13">
      <!-- $\mathdefault{0.8}$ -->
      <g transform="translate(18.584822 36.032217) scale(0.09 -0.09)">
       <defs>
        <path id="NimbusRomNo9L-Regu-38" d="M 1856 2400 
C 2490 2740 2714 3008 2714 3444 
C 2714 3968 2253 4352 1613 4352 
C 915 4352 397 3924 397 3341 
C 397 2925 518 2740 1190 2151 
C 499 1626 358 1428 358 992 
C 358 372 864 -64 1587 -64 
C 2355 -64 2848 359 2848 1018 
C 2848 1511 2630 1824 1856 2400 
z
M 1741 1741 
C 2208 1408 2362 1178 2362 820 
C 2362 404 2074 116 1658 116 
C 1171 116 845 487 845 1044 
C 845 1453 986 1722 1357 2023 
L 1741 1741 
z
M 1670 2516 
C 1101 2887 870 3181 870 3540 
C 870 3911 1158 4173 1562 4173 
C 1997 4173 2272 3892 2272 3450 
C 2272 3085 2093 2797 1728 2554 
C 1696 2535 1696 2535 1670 2516 
z
" transform="scale(0.015625)"/>
       </defs>
       <use xlink:href="#NimbusRomNo9L-Regu-30" transform="scale(0.996264)"/>
       <use xlink:href="#CMMI10-3a" transform="translate(49.8132 0) scale(0.996264)"/>
       <use xlink:href="#NimbusRomNo9L-Regu-38" transform="translate(77.408707 0) scale(0.996264)"/>
      </g>
     </g>
    </g>
    <g id="text_14">
     <!-- Coupling $\eta$ -->
     <g transform="translate(8.780945 118.780142) rotate(-90) scale(0.13 -0.13)">
      <defs>
       <path id="NimbusRomNo9L-Regu-43" d="M 3968 2906 
L 3910 4352 
L 3776 4352 
C 3738 4218 3635 4141 3507 4141 
C 3450 4141 3354 4160 3258 4199 
C 2944 4301 2624 4352 2323 4352 
C 1798 4352 1267 4154 870 3802 
C 422 3405 179 2810 179 2106 
C 179 1511 371 960 698 596 
C 1082 180 1670 -64 2304 -64 
C 3027 -64 3661 231 4051 749 
L 3936 864 
C 3462 410 3040 218 2509 218 
C 2106 218 1747 346 1472 589 
C 1120 903 922 1479 922 2189 
C 922 3348 1517 4096 2445 4096 
C 2810 4096 3142 3962 3398 3706 
C 3603 3501 3699 3322 3821 2906 
L 3968 2906 
z
" transform="scale(0.015625)"/>
       <path id="NimbusRomNo9L-Regu-6f" d="M 1600 2944 
C 768 2944 186 2330 186 1446 
C 186 582 781 -64 1587 -64 
C 2394 -64 3008 614 3008 1498 
C 3008 2336 2419 2944 1600 2944 
z
M 1517 2765 
C 2054 2765 2432 2150 2432 1274 
C 2432 550 2144 115 1664 115 
C 1414 115 1178 269 1043 525 
C 864 858 762 1306 762 1760 
C 762 2368 1062 2765 1517 2765 
z
" transform="scale(0.015625)"/>
       <path id="NimbusRomNo9L-Regu-75" d="M 3066 320 
L 3034 320 
C 2739 320 2669 390 2669 685 
L 2669 2880 
L 1658 2880 
L 1658 2758 
C 2054 2758 2131 2694 2131 2375 
L 2131 875 
C 2131 697 2099 607 2010 537 
C 1837 397 1638 320 1446 320 
C 1197 320 992 537 992 805 
L 992 2880 
L 58 2880 
L 58 2778 
C 365 2778 454 2682 454 2387 
L 454 770 
C 454 263 762 -64 1229 -64 
C 1466 -64 1715 38 1888 211 
L 2163 486 
L 2163 -45 
L 2189 -58 
C 2509 70 2739 141 3066 230 
L 3066 320 
z
" transform="scale(0.015625)"/>
       <path id="NimbusRomNo9L-Regu-70" d="M 58 2516 
C 115 2522 160 2522 218 2522 
C 435 2522 480 2458 480 2155 
L 480 -855 
C 480 -1189 410 -1261 32 -1299 
L 32 -1408 
L 1581 -1408 
L 1581 -1293 
C 1101 -1293 1018 -1222 1018 -816 
L 1018 199 
C 1242 -13 1395 -77 1664 -77 
C 2419 -77 3008 643 3008 1575 
C 3008 2372 2560 2944 1939 2944 
C 1581 2944 1299 2784 1018 2438 
L 1018 2931 
L 979 2944 
C 634 2810 410 2726 58 2618 
L 58 2516 
z
M 1018 2136 
C 1018 2329 1376 2560 1670 2560 
C 2144 2560 2458 2071 2458 1324 
C 2458 611 2144 128 1683 128 
C 1382 128 1018 359 1018 552 
L 1018 2136 
z
" transform="scale(0.015625)"/>
       <path id="NimbusRomNo9L-Regu-6c" d="M 122 4000 
L 160 4000 
C 230 4000 307 4000 358 4000 
C 563 4000 627 3910 627 3610 
L 627 557 
C 627 211 538 128 134 96 
L 134 0 
L 1645 0 
L 1645 109 
C 1242 109 1165 173 1165 528 
L 1165 4371 
L 1139 4384 
C 806 4275 563 4211 122 4103 
L 122 4000 
z
" transform="scale(0.015625)"/>
       <path id="NimbusRomNo9L-Regu-6e" d="M 102 2579 
C 141 2598 205 2605 275 2605 
C 454 2605 512 2509 512 2195 
L 512 608 
C 512 243 442 154 115 128 
L 115 32 
L 1472 32 
L 1472 128 
C 1146 154 1050 230 1050 461 
L 1050 2259 
C 1357 2547 1498 2624 1709 2624 
C 2022 2624 2176 2426 2176 2003 
L 2176 666 
C 2176 262 2093 154 1773 128 
L 1773 32 
L 3104 32 
L 3104 128 
C 2790 160 2714 237 2714 550 
L 2714 2016 
C 2714 2618 2432 2976 1958 2976 
C 1664 2976 1466 2867 1030 2458 
L 1030 2963 
L 986 2976 
C 672 2861 454 2790 102 2688 
L 102 2579 
z
" transform="scale(0.015625)"/>
       <path id="NimbusRomNo9L-Regu-67" d="M 3008 2496 
L 3008 2746 
L 2515 2746 
C 2387 2746 2291 2763 2163 2802 
L 2022 2847 
C 1850 2903 1677 2931 1510 2931 
C 915 2931 442 2467 442 1881 
C 442 1476 614 1230 1037 1018 
C 915 906 800 799 762 768 
C 550 588 467 463 467 338 
C 467 206 544 131 806 6 
C 352 -329 179 -543 179 -781 
C 179 -1124 678 -1408 1286 -1408 
C 1766 -1408 2266 -1238 2598 -962 
C 2842 -759 2950 -548 2950 -299 
C 2950 108 2650 384 2176 384 
L 1350 384 
C 1011 384 851 443 851 548 
C 851 678 1062 908 1235 960 
C 1293 953 1338 947 1357 947 
C 1478 934 1562 928 1600 928 
C 1837 928 2093 1026 2291 1203 
C 2502 1387 2598 1617 2598 1945 
C 2598 2135 2566 2286 2477 2496 
L 3008 2496 
z
M 941 -13 
C 1152 -58 1664 -96 1978 -96 
C 2560 -96 2771 -180 2771 -414 
C 2771 -791 2285 -1043 1562 -1043 
C 998 -1043 627 -855 627 -570 
C 627 -420 672 -336 941 -13 
z
M 973 2145 
C 973 2526 1152 2752 1446 2752 
C 1645 2752 1811 2642 1914 2449 
C 2029 2223 2106 1927 2106 1675 
C 2106 1314 1920 1088 1626 1088 
C 1242 1088 973 1507 973 2126 
L 973 2145 
z
" transform="scale(0.015625)"/>
       <path id="StandardSymL-68" d="M 762 3 
L 1325 3 
L 1325 2317 
C 1555 2660 1779 2819 2061 2819 
C 2426 2819 2650 2571 2650 2164 
L 2650 -626 
C 2650 -842 2688 -1083 2778 -1408 
L 3373 -1408 
C 3270 -1096 3232 -931 3232 -772 
L 3232 2349 
C 3232 2876 2848 3264 2317 3264 
C 1939 3264 1670 3092 1325 2616 
C 1293 2803 1261 2884 1203 2971 
C 1094 3113 909 3200 717 3200 
C 461 3200 218 3043 96 2793 
C 26 2642 0 2510 0 2279 
L 154 2279 
C 192 2663 282 2844 435 2844 
C 627 2844 768 2597 768 2255 
L 762 3 
z
" transform="scale(0.015625)"/>
      </defs>
      <use xlink:href="#NimbusRomNo9L-Regu-43" transform="scale(0.996264)"/>
      <use xlink:href="#NimbusRomNo9L-Regu-6f" transform="translate(66.450031 0) scale(0.996264)"/>
      <use xlink:href="#NimbusRomNo9L-Regu-75" transform="translate(116.263232 0) scale(0.996264)"/>
      <use xlink:href="#NimbusRomNo9L-Regu-70" transform="translate(166.076432 0) scale(0.996264)"/>
      <use xlink:href="#NimbusRomNo9L-Regu-6c" transform="translate(215.889633 0) scale(0.996264)"/>
      <use xlink:href="#NimbusRomNo9L-Regu-69" transform="translate(243.584802 0) scale(0.996264)"/>
      <use xlink:href="#NimbusRomNo9L-Regu-6e" transform="translate(271.279972 0) scale(0.996264)"/>
      <use xlink:href="#NimbusRomNo9L-Regu-67" transform="translate(321.093172 0) scale(0.996264)"/>
      <use xlink:href="#StandardSymL-68" transform="translate(395.812973 0) scale(0.996264)"/>
     </g>
    </g>
   </g>
   <g id="line2d_34">
    <path d="M 51.137372 32.614915 
L 51.309883 119.40954 
L 51.488953 124.710852 
L 51.577593 125.445447 
L 51.561402 124.675591 
L 51.611853 125.137585 
L 51.629971 124.761056 
L 51.668307 125.569932 
L 51.68858 125.155544 
L 51.709628 125.510277 
L 51.731478 124.750982 
L 51.754164 124.775186 
L 51.853903 124.428726 
L 51.881263 124.614934 
L 51.939156 125.10952 
L 51.969772 124.649609 
L 52.001556 124.292464 
L 52.104377 125.801097 
L 52.1413 125.739297 
L 52.179634 126.082285 
L 52.219431 125.558651 
L 52.260748 125.384172 
L 52.303643 125.545944 
L 52.394408 125.948567 
L 52.442406 125.874236 
L 52.543971 124.543867 
L 52.711329 125.465087 
L 52.771428 124.807001 
L 52.833822 125.269074 
L 52.898599 125.58923 
L 52.965849 125.319953 
L 53.108151 125.934692 
L 53.183402 125.571347 
L 53.342635 125.822732 
L 53.42684 125.552437 
L 53.605018 125.754927 
L 53.699242 125.539733 
L 53.89862 126.339206 
L 54.004054 125.587107 
L 54.345134 126.429439 
L 54.467618 126.153791 
L 54.594779 126.554963 
L 54.726795 125.306135 
L 54.863852 126.319875 
L 55.006143 125.779357 
L 55.307231 126.908181 
L 55.466451 125.679212 
L 55.631751 125.743163 
L 55.981527 125.590839 
L 56.166494 126.204627 
L 56.358525 125.881045 
L 56.557887 125.883121 
L 56.764862 126.387656 
L 56.97974 126.374221 
L 57.202823 125.913729 
L 57.434424 126.085331 
L 57.674868 125.880042 
L 57.924493 126.280106 
L 58.18365 125.636171 
L 58.452702 126.909991 
L 58.732028 126.653887 
L 59.02202 126.672678 
L 59.323084 126.142236 
L 59.960139 126.790062 
L 60.297024 127.059271 
L 60.646773 126.834364 
L 61.009876 126.310919 
L 61.386844 126.570427 
L 61.778206 126.513037 
L 62.184512 126.898143 
L 62.606332 126.13156 
L 63.044258 126.689142 
L 63.498906 126.930319 
L 64.460946 126.551853 
L 64.969688 126.508414 
L 65.497856 127.03401 
L 66.046191 126.623947 
L 66.615464 126.638545 
L 67.206474 127.499515 
L 67.82005 126.85682 
L 68.457055 126.856448 
L 69.118384 126.496488 
L 70.51776 127.582348 
L 71.257774 126.981591 
L 72.026044 126.85785 
L 72.823649 127.332386 
L 73.651709 127.113372 
L 74.511388 126.318043 
L 75.403893 127.050549 
L 76.330477 127.269698 
L 79.327965 126.969621 
L 80.404384 126.41074 
L 81.521905 126.290129 
L 82.682096 126.734867 
L 83.886588 126.808201 
L 85.137072 127.147496 
L 86.435304 126.586699 
L 87.783107 126.889422 
L 90.63507 126.74469 
L 92.143235 126.875673 
L 93.708987 127.44478 
L 95.334526 127.244439 
L 97.022133 127.519794 
L 98.77418 126.977155 
L 100.593126 127.387982 
L 102.481525 127.023516 
L 104.442031 127.311824 
L 106.477396 127.145911 
L 108.590479 127.302516 
L 110.784247 127.024742 
L 113.061781 127.11682 
L 115.426279 126.166734 
L 117.881062 126.178516 
L 120.429578 126.720368 
L 125.822261 127.54037 
L 134.708307 126.801867 
L 137.899348 126.972908 
L 141.212235 127.392065 
L 144.651619 127.653966 
L 148.222332 126.836602 
L 151.929388 126.567157 
L 155.777992 126.458678 
L 159.77355 127.239014 
L 163.921673 126.955182 
L 168.228186 125.894493 
L 172.699138 126.529047 
L 177.340807 126.853683 
L 182.159711 127.657276 
L 187.162619 126.990605 
L 192.356556 127.031005 
L 203.346972 126.505507 
L 209.158886 126.781896 
L 215.19272 127.395255 
L 221.456948 126.763408 
L 227.960366 127.415322 
L 234.712109 127.459068 
L 241.721658 127.068377 
L 248.998856 127.367683 
L 256.553925 126.917932 
L 264.397473 127.280278 
L 272.540517 127.469185 
L 280.994491 127.47525 
L 289.771269 127.656205 
L 298.883175 126.988759 
L 308.343008 128.012079 
L 318.164051 126.984046 
L 328.360097 127.262517 
L 338.945466 126.931025 
L 349.935022 127.033639 
L 361.344199 127.46886 
L 373.189019 127.724572 
L 373.189019 127.724572 
" clip-path="url(#paac96f24d1)" style="fill: none; stroke: #1f77b4; stroke-width: 1.8; stroke-linecap: square"/>
   </g>
   <g id="line2d_35">
    <path d="M 51.137372 17.033956 
L 51.28587 115.551034 
L 51.45157 123.918467 
L 51.476022 123.740268 
L 51.488953 124.228642 
L 51.530785 123.944234 
L 51.594402 125.14508 
L 51.668307 124.790224 
L 51.68858 124.566501 
L 51.709628 124.824797 
L 51.777715 124.633174 
L 51.802166 124.60301 
L 51.82755 124.692372 
L 51.881263 124.633738 
L 51.909667 124.861954 
L 51.939156 124.526832 
L 52.001556 124.769796 
L 52.034553 125.032858 
L 52.068811 124.78551 
L 52.1413 124.605819 
L 52.219431 125.140886 
L 52.303643 125.034802 
L 52.442406 125.166184 
L 52.543971 124.87292 
L 52.833822 125.547755 
L 52.898599 125.181947 
L 53.035667 125.87789 
L 53.183402 125.553134 
L 53.342635 125.784318 
L 53.42684 125.291026 
L 53.605018 125.782884 
L 53.797063 125.253951 
L 54.113515 126.26807 
L 54.227155 125.849836 
L 54.345134 126.110294 
L 54.467618 125.884765 
L 54.594779 125.951295 
L 54.863852 126.381719 
L 55.006143 126.467352 
L 55.153866 126.422149 
L 55.307231 126.727079 
L 55.466451 126.462886 
L 55.803363 126.907513 
L 55.981527 126.362546 
L 56.557887 127.169138 
L 56.764862 127.348037 
L 56.97974 127.273748 
L 57.202823 127.472681 
L 57.924493 127.558645 
L 58.18365 127.827754 
L 58.452702 127.697311 
L 59.02202 127.791369 
L 59.323084 127.798149 
L 59.960139 128.375349 
L 60.297024 128.410417 
L 60.646773 129.133063 
L 61.009876 128.602772 
L 61.386844 129.260579 
L 61.778206 129.077937 
L 62.184512 129.150895 
L 62.606332 129.732682 
L 63.044258 129.450004 
L 63.498906 129.7837 
L 64.969688 130.108549 
L 65.497856 130.118098 
L 66.046191 130.410757 
L 66.615464 130.312765 
L 67.206474 130.722462 
L 67.82005 130.87513 
L 69.118384 131.492244 
L 69.804964 131.352537 
L 72.823649 131.978266 
L 73.651709 132.337629 
L 74.511388 132.05793 
L 76.330477 132.77678 
L 77.292441 133.089378 
L 78.291136 132.663093 
L 79.327965 133.226696 
L 81.521905 133.422677 
L 83.886588 134.21869 
L 85.137072 133.724399 
L 86.435304 134.079826 
L 87.783107 134.752429 
L 89.182374 134.656239 
L 90.63507 134.879729 
L 97.022133 135.061968 
L 98.77418 135.490258 
L 102.481525 135.397237 
L 104.442031 135.532834 
L 108.590479 136.486125 
L 110.784247 136.383909 
L 113.061781 136.909807 
L 115.426279 136.533491 
L 117.881062 136.648025 
L 120.429578 136.581734 
L 125.822261 137.04349 
L 131.63463 137.517769 
L 134.708307 137.370684 
L 137.899348 137.067381 
L 141.212235 137.394616 
L 148.222332 137.447841 
L 151.929388 137.82201 
L 155.777992 137.778844 
L 159.77355 138.071343 
L 168.228186 138.133896 
L 172.699138 138.337069 
L 177.340807 138.377675 
L 182.159711 137.994781 
L 187.162619 138.549199 
L 192.356556 138.579012 
L 197.748816 138.132917 
L 203.346972 138.523927 
L 209.158886 138.522979 
L 221.456948 138.13937 
L 234.712109 138.612095 
L 241.721658 138.488875 
L 248.998856 138.495187 
L 256.553925 138.324527 
L 264.397473 138.729935 
L 272.540517 138.386845 
L 289.771269 138.608003 
L 298.883175 138.194601 
L 308.343008 138.589956 
L 318.164051 138.68753 
L 338.945466 138.474728 
L 361.344199 138.6308 
L 373.189019 138.842051 
L 373.189019 138.842051 
" clip-path="url(#paac96f24d1)" style="fill: none; stroke: #ff7f0e; stroke-width: 1.8; stroke-linecap: square"/>
   </g>
   <g id="line2d_36">
    <path d="M 51.137372 10.495815 
L 51.29154 115.749382 
L 51.476022 123.947252 
L 51.488953 123.954152 
L 51.502378 123.907472 
L 51.668307 124.732 
L 51.754164 124.75057 
L 51.802166 124.546636 
L 51.82755 124.568528 
L 51.909667 125.043981 
L 51.969772 124.9091 
L 52.001556 124.903197 
L 52.034553 125.045761 
L 52.1413 125.014624 
L 52.348175 125.20795 
L 52.442406 124.87887 
L 52.65344 125.50517 
L 52.833822 125.206603 
L 53.035667 125.228085 
L 53.108151 125.572098 
L 53.183402 125.267125 
L 53.342635 125.747325 
L 53.42684 125.683879 
L 53.605018 126.015413 
L 53.699242 125.905926 
L 53.797063 125.662995 
L 54.113515 126.260965 
L 54.345134 126.134526 
L 54.467618 126.309257 
L 54.594779 126.190208 
L 54.726795 126.411897 
L 55.006143 126.508901 
L 55.153866 126.771046 
L 55.307231 126.449614 
L 55.631751 126.978079 
L 55.803363 126.884858 
L 55.981527 126.983942 
L 56.166494 127.453528 
L 56.358525 127.412774 
L 56.557887 127.642246 
L 56.764862 127.479559 
L 56.97974 127.675704 
L 57.202823 128.046354 
L 57.674868 128.062013 
L 57.924493 128.312834 
L 58.18365 128.412717 
L 58.732028 128.88173 
L 59.02202 128.740117 
L 59.323084 128.814854 
L 60.646773 129.781186 
L 61.386844 130.20668 
L 61.778206 130.054159 
L 62.184512 130.670955 
L 63.044258 131.305511 
L 63.498906 131.202819 
L 64.460946 131.823713 
L 64.969688 131.81985 
L 66.046191 132.405281 
L 66.615464 132.597748 
L 67.206474 132.482354 
L 67.82005 133.186879 
L 69.804964 134.148856 
L 70.51776 134.175801 
L 72.026044 135.071095 
L 72.823649 135.138824 
L 73.651709 135.742228 
L 75.403893 136.396077 
L 76.330477 136.643933 
L 77.292441 137.050611 
L 79.327965 137.700567 
L 81.521905 138.497837 
L 82.682096 138.743285 
L 86.435304 140.004706 
L 87.783107 140.26403 
L 89.182374 140.725679 
L 90.63507 140.930637 
L 93.708987 142.019765 
L 95.334526 142.335519 
L 97.022133 142.795168 
L 98.77418 143.092056 
L 100.593126 143.691945 
L 102.481525 144.005822 
L 104.442031 144.571242 
L 106.477396 144.87396 
L 108.590479 145.343248 
L 110.784247 146.034307 
L 113.061781 146.338894 
L 117.881062 147.175015 
L 123.075406 147.979521 
L 128.674 148.642009 
L 134.708307 149.65058 
L 137.899348 149.854882 
L 141.212235 150.452526 
L 151.929388 151.487019 
L 155.777992 152.188787 
L 163.921673 152.796743 
L 168.228186 153.315007 
L 172.699138 153.576249 
L 177.340807 154.066154 
L 182.159711 154.357336 
L 187.162619 154.811252 
L 192.356556 155.096943 
L 197.748816 155.649039 
L 203.346972 155.934092 
L 209.158886 156.351912 
L 221.456948 156.917926 
L 234.712109 157.853768 
L 256.553925 158.764355 
L 264.397473 158.918784 
L 308.343008 160.284615 
L 318.164051 160.511228 
L 328.360097 160.905555 
L 338.945466 160.944902 
L 349.935022 161.227486 
L 373.189019 161.563394 
L 373.189019 161.563394 
" clip-path="url(#paac96f24d1)" style="fill: none; stroke: #2ca02c; stroke-width: 1.8; stroke-linecap: square"/>
   </g>
   <g id="line2d_37">
    <path d="M 51.137372 8.10432 
L 51.29154 115.71536 
L 51.476022 124.606985 
L 51.577593 124.979581 
L 51.611853 124.783584 
L 51.629971 124.666087 
L 51.68858 124.880098 
L 51.709628 124.77227 
L 51.731478 124.854827 
L 51.777715 124.726935 
L 51.802166 124.673994 
L 51.82755 124.850432 
L 51.853903 124.872682 
L 51.969772 125.327444 
L 52.001556 125.21586 
L 52.068811 125.34017 
L 52.104377 125.555565 
L 52.179634 125.466885 
L 52.303643 125.319155 
L 52.348175 125.33965 
L 52.394408 125.211012 
L 52.59768 125.72619 
L 52.711329 125.73199 
L 52.771428 125.86476 
L 52.965849 125.589988 
L 53.108151 125.873063 
L 53.605018 126.112778 
L 53.797063 126.168028 
L 53.89862 126.283928 
L 54.004054 126.211454 
L 54.227155 126.519959 
L 54.345134 126.454476 
L 54.594779 126.826573 
L 55.006143 127.204544 
L 55.153866 127.160613 
L 55.307231 127.371219 
L 55.466451 127.240629 
L 55.803363 127.687008 
L 55.981527 127.534124 
L 56.358525 128.111188 
L 56.557887 128.262113 
L 56.97974 128.162371 
L 57.434424 128.533429 
L 57.674868 128.630753 
L 57.924493 128.949128 
L 58.18365 128.739458 
L 58.452702 129.249904 
L 58.732028 129.378362 
L 59.02202 129.635634 
L 59.960139 129.982603 
L 60.646773 130.617549 
L 61.009876 130.586435 
L 61.386844 131.131649 
L 61.778206 130.909828 
L 62.184512 131.424194 
L 63.044258 131.782635 
L 63.498906 132.238906 
L 64.460946 132.597526 
L 64.969688 132.957908 
L 65.497856 133.09855 
L 67.206474 134.185766 
L 68.457055 134.448125 
L 69.118384 135.062066 
L 74.511388 137.224751 
L 75.403893 137.857513 
L 77.292441 138.482165 
L 78.291136 139.060152 
L 79.327965 139.291664 
L 82.682096 140.961611 
L 85.137072 141.650961 
L 86.435304 142.32551 
L 87.783107 142.625714 
L 89.182374 143.231854 
L 90.63507 143.592161 
L 92.143235 144.268717 
L 95.334526 145.322422 
L 97.022133 145.545663 
L 98.77418 146.202541 
L 104.442031 147.821474 
L 106.477396 148.305952 
L 110.784247 149.489462 
L 115.426279 150.575304 
L 120.429578 151.606602 
L 123.075406 152.304531 
L 125.822261 152.899247 
L 134.708307 154.410267 
L 148.222332 156.774739 
L 177.340807 160.429836 
L 182.159711 160.843871 
L 187.162619 161.468675 
L 221.456948 164.253708 
L 256.553925 166.249484 
L 280.994491 167.326511 
L 298.883175 167.982818 
L 328.360097 169.040387 
L 338.945466 169.230953 
L 373.189019 170.19072 
L 373.189019 170.19072 
" clip-path="url(#paac96f24d1)" style="fill: none; stroke: #d62728; stroke-width: 1.8; stroke-linecap: square"/>
   </g>
   <g id="line2d_38">
    <path d="M 51.137372 31.444284 
L 51.303538 117.608607 
L 51.463567 123.46808 
L 51.545807 124.459605 
L 51.594402 124.367554 
L 51.64878 124.370628 
L 51.709628 123.83007 
L 51.881263 124.702255 
L 51.909667 124.578332 
L 51.939156 124.559224 
L 51.969772 124.856476 
L 52.001556 124.443557 
L 52.068811 124.803205 
L 52.104377 124.248568 
L 52.1413 124.883578 
L 52.179634 124.414279 
L 52.219431 124.78316 
L 52.260748 124.594383 
L 52.303643 124.384599 
L 52.348175 124.953749 
L 52.394408 123.732511 
L 52.442406 124.497493 
L 52.492237 124.191348 
L 52.543971 124.626581 
L 52.59768 124.130443 
L 52.65344 124.784909 
L 52.711329 124.707494 
L 52.771428 124.607013 
L 52.898599 125.178289 
L 53.035667 124.19079 
L 53.183402 125.249018 
L 53.261527 125.718982 
L 53.605018 125.06549 
L 53.699242 125.909622 
L 53.89862 124.997112 
L 54.004054 125.356783 
L 54.113515 125.264747 
L 54.227155 125.456782 
L 54.467618 126.222464 
L 54.594779 125.505733 
L 54.726795 125.40336 
L 54.863852 126.13255 
L 55.153866 125.229037 
L 55.307231 125.653703 
L 55.466451 125.610559 
L 55.631751 125.81693 
L 55.803363 125.570172 
L 55.981527 126.947583 
L 56.166494 126.073339 
L 56.358525 126.140017 
L 56.557887 126.771785 
L 56.97974 126.347888 
L 57.202823 127.125029 
L 57.434424 126.344008 
L 57.674868 127.070417 
L 57.924493 127.35938 
L 58.18365 127.323881 
L 58.452702 127.460718 
L 58.732028 127.128409 
L 59.02202 127.224923 
L 59.635644 128.295022 
L 59.960139 128.476667 
L 60.297024 128.797585 
L 60.646773 128.503604 
L 61.009876 128.745432 
L 61.386844 129.172241 
L 61.778206 128.584327 
L 62.184512 129.346109 
L 62.606332 129.197549 
L 63.044258 129.881742 
L 63.498906 129.545601 
L 63.970915 130.138317 
L 64.460946 129.971567 
L 64.969688 129.989737 
L 66.046191 130.922566 
L 66.615464 130.270055 
L 67.206474 131.037346 
L 67.82005 130.616141 
L 68.457055 132.500401 
L 69.118384 131.567263 
L 69.804964 132.51 
L 71.257774 132.695578 
L 72.026044 132.941977 
L 72.823649 133.075595 
L 73.651709 134.601413 
L 74.511388 133.60041 
L 75.403893 134.529411 
L 78.291136 135.177608 
L 81.521905 136.645682 
L 82.682096 136.408795 
L 83.886588 137.177158 
L 85.137072 137.241278 
L 86.435304 137.689365 
L 87.783107 138.283301 
L 89.182374 138.059934 
L 90.63507 138.792493 
L 92.143235 139.325316 
L 93.708987 139.059975 
L 95.334526 140.185992 
L 97.022133 140.505605 
L 98.77418 141.024877 
L 100.593126 141.257501 
L 102.481525 142.090896 
L 104.442031 142.062677 
L 106.477396 142.845351 
L 108.590479 142.823324 
L 110.784247 143.423073 
L 113.061781 144.169909 
L 115.426279 144.624928 
L 120.429578 145.402086 
L 123.075406 145.892463 
L 125.822261 145.790775 
L 128.674 147.094431 
L 131.63463 147.62668 
L 134.708307 147.892019 
L 141.212235 148.882124 
L 144.651619 148.741042 
L 148.222332 149.479124 
L 159.77355 150.712583 
L 163.921673 150.903173 
L 172.699138 151.919865 
L 177.340807 152.29765 
L 182.159711 152.912007 
L 192.356556 153.241122 
L 209.158886 154.868229 
L 221.456948 154.975673 
L 227.960366 155.734438 
L 241.721658 156.330696 
L 256.553925 157.18082 
L 272.540517 157.80111 
L 280.994491 157.53347 
L 289.771269 158.277095 
L 308.343008 158.584356 
L 318.164051 159.164 
L 328.360097 158.744801 
L 338.945466 159.055036 
L 349.935022 159.119105 
L 361.344199 159.808235 
L 373.189019 159.689084 
L 373.189019 159.689084 
" clip-path="url(#paac96f24d1)" style="fill: none; stroke: #9467bd; stroke-width: 1.8; stroke-linecap: square"/>
   </g>
   <g id="line2d_39">
    <path d="M 51.137372 20.334605 
L 51.28587 115.849061 
L 51.428883 123.519077 
L 51.440014 123.361364 
L 51.545807 124.666488 
L 51.577593 124.460348 
L 51.731478 125.04079 
L 51.777715 124.23833 
L 51.82755 124.531146 
L 51.909667 125.569254 
L 51.969772 125.038289 
L 52.260748 125.320841 
L 52.394408 124.629097 
L 52.543971 125.335541 
L 52.59768 124.908803 
L 52.65344 125.737212 
L 52.711329 125.588825 
L 52.771428 125.211335 
L 52.833822 126.118356 
L 52.898599 125.602397 
L 52.965849 125.352464 
L 53.035667 125.531363 
L 53.108151 125.362852 
L 53.42684 126.086373 
L 53.605018 125.548221 
L 53.797063 125.737865 
L 54.004054 126.573497 
L 54.113515 125.736887 
L 54.227155 126.23575 
L 54.345134 126.107727 
L 54.594779 126.906038 
L 54.726795 126.26657 
L 54.863852 126.353215 
L 55.006143 127.08952 
L 55.153866 127.139735 
L 55.466451 126.772033 
L 55.631751 127.18846 
L 55.803363 127.005186 
L 55.981527 127.743286 
L 56.166494 127.459984 
L 56.557887 127.697501 
L 56.764862 128.003703 
L 56.97974 127.72019 
L 57.202823 127.629794 
L 57.434424 128.192223 
L 57.674868 128.153097 
L 57.924493 128.539207 
L 58.18365 128.573842 
L 58.452702 128.784285 
L 58.732028 128.38513 
L 59.02202 129.395096 
L 59.323084 129.026467 
L 59.635644 129.271514 
L 59.960139 129.326248 
L 60.297024 129.725573 
L 60.646773 129.826305 
L 61.009876 129.592182 
L 61.778206 130.453099 
L 62.184512 130.794029 
L 62.606332 130.7782 
L 63.044258 130.987087 
L 63.498906 131.028246 
L 63.970915 131.953444 
L 64.460946 131.862647 
L 64.969688 132.018725 
L 65.497856 132.50595 
L 66.046191 132.697877 
L 66.615464 132.778361 
L 67.206474 133.442946 
L 67.82005 133.176873 
L 68.457055 133.908475 
L 69.118384 134.209003 
L 69.804964 134.25998 
L 70.51776 134.741244 
L 71.257774 134.790927 
L 72.823649 135.732711 
L 73.651709 135.932916 
L 76.330477 137.494009 
L 77.292441 137.653148 
L 78.291136 138.089032 
L 79.327965 138.285758 
L 80.404384 138.655999 
L 81.521905 139.755363 
L 82.682096 139.953176 
L 85.137072 140.741076 
L 86.435304 141.135432 
L 87.783107 141.754971 
L 89.182374 141.973927 
L 90.63507 142.336485 
L 93.708987 143.758503 
L 97.022133 144.906617 
L 98.77418 145.006495 
L 100.593126 145.775554 
L 104.442031 147.052943 
L 106.477396 147.482094 
L 108.590479 148.12017 
L 110.784247 148.982166 
L 115.426279 149.959502 
L 117.881062 150.468334 
L 120.429578 151.266566 
L 125.822261 152.474291 
L 128.674 152.880549 
L 131.63463 153.548482 
L 137.899348 154.662434 
L 141.212235 155.381925 
L 144.651619 155.723062 
L 148.222332 156.300318 
L 155.777992 157.838577 
L 172.699138 159.543063 
L 177.340807 160.359777 
L 187.162619 161.201247 
L 197.748816 162.129231 
L 203.346972 162.62871 
L 221.456948 163.7367 
L 227.960366 164.15352 
L 234.712109 164.316019 
L 241.721658 164.795282 
L 248.998856 165.047502 
L 264.397473 165.761579 
L 272.540517 165.910346 
L 289.771269 166.484038 
L 298.883175 166.746323 
L 308.343008 166.768958 
L 318.164051 167.269072 
L 328.360097 167.438407 
L 338.945466 167.439608 
L 349.935022 167.725373 
L 373.189019 167.814091 
L 373.189019 167.814091 
" clip-path="url(#paac96f24d1)" style="fill: none; stroke: #8c564b; stroke-width: 1.8; stroke-linecap: square"/>
   </g>
   <g id="line2d_40">
    <path d="M 51.137372 48.899139 
L 51.337779 120.966865 
L 51.502378 123.854974 
L 51.530785 123.662899 
L 51.594402 123.528054 
L 51.611853 123.616223 
L 51.64878 124.413516 
L 51.731478 124.382977 
L 51.754164 124.394848 
L 51.82755 124.524056 
L 51.939156 123.633476 
L 51.969772 123.664977 
L 52.001556 124.225569 
L 52.034553 123.604725 
L 52.068811 123.990217 
L 52.1413 123.174832 
L 52.179634 123.330957 
L 52.219431 124.678821 
L 52.303643 123.854434 
L 52.442406 124.77379 
L 52.59768 123.78547 
L 52.65344 123.883357 
L 52.771428 125.138747 
L 52.833822 123.992011 
L 52.898599 125.064871 
L 52.965849 124.529691 
L 53.035667 123.885609 
L 53.108151 124.165516 
L 53.183402 125.152339 
L 53.261527 123.767908 
L 53.342635 124.273537 
L 53.51426 124.503718 
L 53.699242 124.253687 
L 53.89862 124.598377 
L 54.004054 124.468287 
L 54.113515 123.746453 
L 54.594779 125.45098 
L 54.726795 125.426036 
L 54.863852 125.16029 
L 55.006143 125.247186 
L 55.153866 124.872752 
L 55.307231 125.041091 
L 55.466451 125.59455 
L 55.631751 124.350369 
L 55.981527 126.010554 
L 56.166494 126.802657 
L 56.358525 125.544217 
L 56.764862 126.587448 
L 56.97974 125.971748 
L 57.202823 126.458502 
L 57.434424 126.297869 
L 57.674868 126.274673 
L 58.18365 125.921245 
L 58.452702 127.301068 
L 58.732028 126.243515 
L 59.02202 126.487005 
L 59.323084 127.600211 
L 59.960139 126.878595 
L 60.297024 127.315441 
L 60.646773 127.269425 
L 61.009876 127.679986 
L 61.386844 127.862564 
L 61.778206 127.423881 
L 62.184512 126.784115 
L 63.044258 128.832524 
L 63.498906 128.343228 
L 64.460946 129.01141 
L 64.969688 128.946103 
L 65.497856 128.18752 
L 66.046191 129.154795 
L 66.615464 129.703099 
L 67.206474 129.205947 
L 67.82005 130.145387 
L 68.457055 129.504315 
L 69.118384 129.239107 
L 69.804964 130.218822 
L 70.51776 129.689747 
L 71.257774 130.687382 
L 72.026044 130.66877 
L 73.651709 131.251797 
L 74.511388 131.553609 
L 75.403893 130.939579 
L 77.292441 132.776595 
L 78.291136 132.297512 
L 79.327965 133.367319 
L 80.404384 133.174583 
L 81.521905 134.327213 
L 82.682096 133.120922 
L 83.886588 134.042693 
L 85.137072 133.905683 
L 86.435304 134.260116 
L 87.783107 135.116941 
L 89.182374 135.252951 
L 90.63507 135.974109 
L 92.143235 135.975706 
L 93.708987 136.450203 
L 97.022133 137.224301 
L 98.77418 137.234814 
L 100.593126 137.777984 
L 102.481525 138.8786 
L 104.442031 138.357622 
L 106.477396 139.316225 
L 108.590479 139.498125 
L 110.784247 140.024935 
L 113.061781 140.045885 
L 117.881062 140.68131 
L 120.429578 141.629789 
L 123.075406 142.194764 
L 125.822261 141.911943 
L 131.63463 143.072599 
L 134.708307 142.987438 
L 137.899348 144.238671 
L 141.212235 144.053129 
L 144.651619 144.251188 
L 148.222332 145.128801 
L 151.929388 145.351679 
L 155.777992 146.258778 
L 159.77355 146.048019 
L 172.699138 147.349458 
L 177.340807 147.517008 
L 182.159711 147.937206 
L 187.162619 148.87185 
L 192.356556 148.22659 
L 203.346972 148.674353 
L 209.158886 149.265976 
L 215.19272 149.752104 
L 221.456948 149.96208 
L 227.960366 149.795808 
L 234.712109 150.421909 
L 241.721658 150.770913 
L 248.998856 150.705742 
L 256.553925 150.977209 
L 264.397473 151.0902 
L 272.540517 150.770143 
L 280.994491 151.210115 
L 289.771269 151.38119 
L 298.883175 151.344858 
L 308.343008 152.101578 
L 328.360097 151.922304 
L 338.945466 152.248018 
L 349.935022 152.087046 
L 361.344199 152.601161 
L 373.189019 152.791766 
L 373.189019 152.791766 
" clip-path="url(#paac96f24d1)" style="fill: none; stroke: #e377c2; stroke-width: 1.8; stroke-linecap: square"/>
   </g>
   <g id="line2d_41">
    <path d="M 51.137372 33.564368 
L 51.28587 114.112632 
L 51.303538 114.983473 
L 51.476022 122.751385 
L 51.530785 123.456231 
L 51.611853 123.226262 
L 51.64878 122.414303 
L 51.731478 122.597796 
L 51.754164 123.062748 
L 51.777715 122.50246 
L 51.82755 122.766533 
L 51.853903 122.758097 
L 52.001556 124.12685 
L 52.1413 123.204532 
L 52.303643 123.537122 
L 52.348175 123.462495 
L 52.394408 123.996976 
L 52.442406 123.428171 
L 52.492237 123.760398 
L 52.65344 122.863807 
L 52.771428 123.067754 
L 53.035667 123.089932 
L 53.261527 123.786425 
L 53.342635 123.483164 
L 53.42684 124.163255 
L 53.51426 123.692884 
L 53.797063 124.26778 
L 53.89862 124.259243 
L 54.004054 123.949057 
L 54.345134 124.753906 
L 54.467618 124.360231 
L 54.594779 124.668252 
L 54.726795 124.36141 
L 54.863852 124.604441 
L 55.006143 124.386245 
L 55.153866 124.946628 
L 55.307231 124.656165 
L 55.466451 124.717698 
L 55.631751 124.274446 
L 55.803363 124.795694 
L 56.166494 124.864298 
L 56.557887 124.995587 
L 56.764862 126.106028 
L 57.202823 125.558862 
L 57.434424 126.011508 
L 57.924493 125.435718 
L 58.732028 126.598274 
L 59.02202 126.15825 
L 59.323084 127.202923 
L 59.635644 126.656798 
L 59.960139 127.202641 
L 60.297024 126.982597 
L 60.646773 127.482277 
L 61.009876 127.783796 
L 61.778206 127.700638 
L 62.184512 128.38323 
L 62.606332 128.242757 
L 63.498906 128.813556 
L 63.970915 128.906625 
L 64.460946 129.565316 
L 64.969688 129.05101 
L 65.497856 129.408688 
L 66.046191 129.614715 
L 67.206474 130.661659 
L 67.82005 130.299661 
L 68.457055 130.959636 
L 69.118384 131.074433 
L 69.804964 132.161675 
L 70.51776 132.11484 
L 71.257774 131.560195 
L 72.026044 132.411341 
L 72.823649 132.246799 
L 73.651709 132.947214 
L 74.511388 132.926188 
L 75.403893 133.217718 
L 76.330477 133.849626 
L 78.291136 134.705309 
L 79.327965 135.296941 
L 80.404384 135.643399 
L 81.521905 136.224744 
L 82.682096 136.126102 
L 83.886588 136.655211 
L 85.137072 137.569076 
L 86.435304 137.44405 
L 87.783107 137.925771 
L 89.182374 138.243773 
L 90.63507 139.475755 
L 92.143235 139.891186 
L 93.708987 139.957292 
L 95.334526 140.545444 
L 97.022133 141.382017 
L 98.77418 141.893976 
L 100.593126 141.631666 
L 102.481525 142.195972 
L 104.442031 142.468458 
L 106.477396 143.222047 
L 108.590479 144.151146 
L 110.784247 144.799853 
L 113.061781 145.165097 
L 115.426279 146.102456 
L 117.881062 146.154621 
L 123.075406 147.492431 
L 125.822261 148.116598 
L 128.674 148.340378 
L 131.63463 148.897774 
L 134.708307 149.821355 
L 137.899348 149.81266 
L 144.651619 151.249651 
L 148.222332 151.131035 
L 151.929388 151.901516 
L 155.777992 152.47337 
L 159.77355 152.927661 
L 163.921673 153.8389 
L 168.228186 153.896668 
L 177.340807 154.527597 
L 182.159711 154.808681 
L 187.162619 155.427321 
L 192.356556 155.699343 
L 197.748816 156.703771 
L 203.346972 156.625515 
L 215.19272 157.546214 
L 227.960366 157.88406 
L 234.712109 158.35887 
L 241.721658 158.691893 
L 248.998856 158.772144 
L 256.553925 158.976376 
L 264.397473 159.477595 
L 272.540517 159.489693 
L 280.994491 159.688272 
L 289.771269 160.030909 
L 298.883175 159.974875 
L 318.164051 160.407577 
L 328.360097 160.476265 
L 338.945466 160.672751 
L 349.935022 160.324452 
L 361.344199 160.390282 
L 373.189019 160.763945 
L 373.189019 160.763945 
" clip-path="url(#paac96f24d1)" style="fill: none; stroke: #7f7f7f; stroke-width: 1.8; stroke-linecap: square"/>
   </g>
   <g id="patch_3">
    <path d="M 35.03479 178.29504 
L 35.03479 0 
" style="fill: none; stroke: #000000; stroke-width: 0.7; stroke-linejoin: miter; stroke-linecap: square"/>
   </g>
   <g id="patch_4">
    <path d="M 389.291602 178.29504 
L 389.291602 0 
" style="fill: none; stroke: #000000; stroke-width: 0.7; stroke-linejoin: miter; stroke-linecap: square"/>
   </g>
   <g id="patch_5">
    <path d="M 35.03479 178.29504 
L 389.291602 178.29504 
" style="fill: none; stroke: #000000; stroke-width: 0.7; stroke-linejoin: miter; stroke-linecap: square"/>
   </g>
   <g id="patch_6">
    <path d="M 35.03479 0 
L 389.291602 0 
" style="fill: none; stroke: #000000; stroke-width: 0.7; stroke-linejoin: miter; stroke-linecap: square"/>
   </g>
   <g id="legend_1">
    <g id="patch_7">
     <path d="M 291.553121 95.423968 
L 386.091602 95.423968 
L 386.091602 3.2 
L 291.553121 3.2 
z
" style="fill: #ffffff; opacity: 0.8; stroke: #cccccc; stroke-linejoin: miter"/>
    </g>
    <g id="text_15">
     <!-- Length (mm) -->
     <g transform="translate(315.039264 12.479117) scale(0.09 -0.09)">
      <defs>
       <path id="NimbusRomNo9L-Regu-4c" d="M 3667 1114 
C 3558 870 3469 723 3373 614 
C 3149 365 2797 250 2266 250 
L 1837 250 
C 1370 250 1286 288 1286 513 
L 1286 3550 
C 1286 4007 1376 4096 1882 4096 
L 1882 4237 
L 77 4237 
L 77 4115 
C 550 4077 634 3986 634 3536 
L 634 681 
C 634 230 544 134 77 134 
L 77 0 
L 3520 0 
L 3827 1114 
L 3667 1114 
z
" transform="scale(0.015625)"/>
       <path id="NimbusRomNo9L-Regu-68" d="M 1005 2222 
C 1274 2516 1466 2624 1715 2624 
C 2035 2624 2195 2395 2195 1948 
L 2195 684 
C 2195 250 2131 166 1760 128 
L 1760 32 
L 3117 32 
L 3117 128 
C 2771 192 2733 243 2733 684 
L 2733 1954 
C 2733 2625 2464 2970 1946 2970 
C 1568 2970 1299 2816 1005 2432 
L 1005 4390 
L 973 4409 
C 755 4332 595 4281 237 4179 
L 64 4128 
L 64 4026 
C 90 4032 109 4032 141 4032 
C 416 4032 467 3980 467 3705 
L 467 686 
C 467 237 429 179 58 128 
L 58 32 
L 1440 32 
L 1440 128 
C 1069 166 1005 243 1005 684 
L 1005 2222 
z
" transform="scale(0.015625)"/>
       <path id="NimbusRomNo9L-Regu-28" d="M 1888 4326 
C 1414 4019 1222 3853 986 3558 
C 531 3002 307 2362 307 1613 
C 307 800 544 173 1107 -480 
C 1370 -787 1536 -928 1869 -1133 
L 1946 -1030 
C 1434 -627 1254 -403 1082 77 
C 928 506 858 992 858 1632 
C 858 2304 941 2829 1114 3226 
C 1293 3622 1485 3853 1946 4224 
L 1888 4326 
z
" transform="scale(0.015625)"/>
       <path id="NimbusRomNo9L-Regu-29" d="M 243 -1133 
C 717 -826 909 -659 1146 -365 
C 1600 192 1824 832 1824 1581 
C 1824 2400 1587 3021 1024 3674 
C 762 3981 595 4122 262 4326 
L 186 4224 
C 698 3821 870 3597 1050 3117 
C 1203 2688 1274 2202 1274 1562 
C 1274 896 1190 365 1018 -26 
C 838 -429 646 -659 186 -1030 
L 243 -1133 
z
" transform="scale(0.015625)"/>
      </defs>
      <use xlink:href="#NimbusRomNo9L-Regu-4c" transform="scale(0.996264)"/>
      <use xlink:href="#NimbusRomNo9L-Regu-65" transform="translate(60.871631 0) scale(0.996264)"/>
      <use xlink:href="#NimbusRomNo9L-Regu-6e" transform="translate(105.105199 0) scale(0.996264)"/>
      <use xlink:href="#NimbusRomNo9L-Regu-67" transform="translate(154.9184 0) scale(0.996264)"/>
      <use xlink:href="#NimbusRomNo9L-Regu-74" transform="translate(204.7316 0) scale(0.996264)"/>
      <use xlink:href="#NimbusRomNo9L-Regu-68" transform="translate(232.42677 0) scale(0.996264)"/>
      <use xlink:href="#NimbusRomNo9L-Regu-28" transform="translate(307.146571 0) scale(0.996264)"/>
      <use xlink:href="#NimbusRomNo9L-Regu-6d" transform="translate(340.3218 0) scale(0.996264)"/>
      <use xlink:href="#NimbusRomNo9L-Regu-6d" transform="translate(417.830171 0) scale(0.996264)"/>
      <use xlink:href="#NimbusRomNo9L-Regu-29" transform="translate(495.338541 0) scale(0.996264)"/>
     </g>
    </g>
    <g id="line2d_42">
     <path d="M 294.753121 19.620263 
L 301.953121 19.620263 
L 309.153121 19.620263 
" style="fill: none; stroke: #1f77b4; stroke-width: 1.8; stroke-linecap: square"/>
    </g>
    <g id="text_16">
     <!-- 3.3000000000000003 -->
     <g transform="translate(313.153121 22.420263) scale(0.08 -0.08)">
      <defs>
       <path id="NimbusRomNo9L-Regu-2e" d="M 800 646 
C 608 646 448 480 448 281 
C 448 96 608 -64 794 -64 
C 992 -64 1158 96 1158 281 
C 1158 480 992 646 800 646 
z
" transform="scale(0.015625)"/>
      </defs>
      <use xlink:href="#NimbusRomNo9L-Regu-33" transform="scale(0.996264)"/>
      <use xlink:href="#NimbusRomNo9L-Regu-2e" transform="translate(49.8132 0) scale(0.996264)"/>
      <use xlink:href="#NimbusRomNo9L-Regu-33" transform="translate(74.719801 0) scale(0.996264)"/>
      <use xlink:href="#NimbusRomNo9L-Regu-30" transform="translate(124.533001 0) scale(0.996264)"/>
      <use xlink:href="#NimbusRomNo9L-Regu-30" transform="translate(174.346202 0) scale(0.996264)"/>
      <use xlink:href="#NimbusRomNo9L-Regu-30" transform="translate(224.159402 0) scale(0.996264)"/>
      <use xlink:href="#NimbusRomNo9L-Regu-30" transform="translate(273.972603 0) scale(0.996264)"/>
      <use xlink:href="#NimbusRomNo9L-Regu-30" transform="translate(323.785803 0) scale(0.996264)"/>
      <use xlink:href="#NimbusRomNo9L-Regu-30" transform="translate(373.599004 0) scale(0.996264)"/>
      <use xlink:href="#NimbusRomNo9L-Regu-30" transform="translate(423.412204 0) scale(0.996264)"/>
      <use xlink:href="#NimbusRomNo9L-Regu-30" transform="translate(473.225405 0) scale(0.996264)"/>
      <use xlink:href="#NimbusRomNo9L-Regu-30" transform="translate(523.038605 0) scale(0.996264)"/>
      <use xlink:href="#NimbusRomNo9L-Regu-30" transform="translate(572.851806 0) scale(0.996264)"/>
      <use xlink:href="#NimbusRomNo9L-Regu-30" transform="translate(622.665006 0) scale(0.996264)"/>
      <use xlink:href="#NimbusRomNo9L-Regu-30" transform="translate(672.478207 0) scale(0.996264)"/>
      <use xlink:href="#NimbusRomNo9L-Regu-30" transform="translate(722.291407 0) scale(0.996264)"/>
      <use xlink:href="#NimbusRomNo9L-Regu-30" transform="translate(772.104608 0) scale(0.996264)"/>
      <use xlink:href="#NimbusRomNo9L-Regu-33" transform="translate(821.917808 0) scale(0.996264)"/>
     </g>
    </g>
    <g id="line2d_43">
     <path d="M 294.753121 29.345726 
L 301.953121 29.345726 
L 309.153121 29.345726 
" style="fill: none; stroke: #ff7f0e; stroke-width: 1.8; stroke-linecap: square"/>
    </g>
    <g id="text_17">
     <!-- 8.25 -->
     <g transform="translate(313.153121 32.145726) scale(0.08 -0.08)">
      <use xlink:href="#NimbusRomNo9L-Regu-38" transform="scale(0.996264)"/>
      <use xlink:href="#NimbusRomNo9L-Regu-2e" transform="translate(49.8132 0) scale(0.996264)"/>
      <use xlink:href="#NimbusRomNo9L-Regu-32" transform="translate(74.719801 0) scale(0.996264)"/>
      <use xlink:href="#NimbusRomNo9L-Regu-35" transform="translate(124.533001 0) scale(0.996264)"/>
     </g>
    </g>
    <g id="line2d_44">
     <path d="M 294.753121 39.071189 
L 301.953121 39.071189 
L 309.153121 39.071189 
" style="fill: none; stroke: #2ca02c; stroke-width: 1.8; stroke-linecap: square"/>
    </g>
    <g id="text_18">
     <!-- 16.5 -->
     <g transform="translate(313.153121 41.871189) scale(0.08 -0.08)">
      <use xlink:href="#NimbusRomNo9L-Regu-31" transform="scale(0.996264)"/>
      <use xlink:href="#NimbusRomNo9L-Regu-36" transform="translate(49.8132 0) scale(0.996264)"/>
      <use xlink:href="#NimbusRomNo9L-Regu-2e" transform="translate(99.626401 0) scale(0.996264)"/>
      <use xlink:href="#NimbusRomNo9L-Regu-35" transform="translate(124.533001 0) scale(0.996264)"/>
     </g>
    </g>
    <g id="line2d_45">
     <path d="M 294.753121 48.796652 
L 301.953121 48.796652 
L 309.153121 48.796652 
" style="fill: none; stroke: #d62728; stroke-width: 1.8; stroke-linecap: square"/>
    </g>
    <g id="text_19">
     <!-- 24.75 -->
     <g transform="translate(313.153121 51.596652) scale(0.08 -0.08)">
      <defs>
       <path id="NimbusRomNo9L-Regu-37" d="M 2874 4250 
L 506 4250 
L 128 3310 
L 237 3258 
C 512 3693 627 3776 979 3776 
L 2368 3776 
L 1101 -32 
L 1517 -32 
L 2874 4148 
L 2874 4250 
z
" transform="scale(0.015625)"/>
      </defs>
      <use xlink:href="#NimbusRomNo9L-Regu-32" transform="scale(0.996264)"/>
      <use xlink:href="#NimbusRomNo9L-Regu-34" transform="translate(49.8132 0) scale(0.996264)"/>
      <use xlink:href="#NimbusRomNo9L-Regu-2e" transform="translate(99.626401 0) scale(0.996264)"/>
      <use xlink:href="#NimbusRomNo9L-Regu-37" transform="translate(124.533001 0) scale(0.996264)"/>
      <use xlink:href="#NimbusRomNo9L-Regu-35" transform="translate(174.346202 0) scale(0.996264)"/>
     </g>
    </g>
    <g id="line2d_46">
     <path d="M 294.753121 58.522115 
L 301.953121 58.522115 
L 309.153121 58.522115 
" style="fill: none; stroke: #9467bd; stroke-width: 1.8; stroke-linecap: square"/>
    </g>
    <g id="text_20">
     <!-- 33.0 -->
     <g transform="translate(313.153121 61.322115) scale(0.08 -0.08)">
      <use xlink:href="#NimbusRomNo9L-Regu-33" transform="scale(0.996264)"/>
      <use xlink:href="#NimbusRomNo9L-Regu-33" transform="translate(49.8132 0) scale(0.996264)"/>
      <use xlink:href="#NimbusRomNo9L-Regu-2e" transform="translate(99.626401 0) scale(0.996264)"/>
      <use xlink:href="#NimbusRomNo9L-Regu-30" transform="translate(124.533001 0) scale(0.996264)"/>
     </g>
    </g>
    <g id="line2d_47">
     <path d="M 294.753121 68.247578 
L 301.953121 68.247578 
L 309.153121 68.247578 
" style="fill: none; stroke: #8c564b; stroke-width: 1.8; stroke-linecap: square"/>
    </g>
    <g id="text_21">
     <!-- 66.0 -->
     <g transform="translate(313.153121 71.047578) scale(0.08 -0.08)">
      <use xlink:href="#NimbusRomNo9L-Regu-36" transform="scale(0.996264)"/>
      <use xlink:href="#NimbusRomNo9L-Regu-36" transform="translate(49.8132 0) scale(0.996264)"/>
      <use xlink:href="#NimbusRomNo9L-Regu-2e" transform="translate(99.626401 0) scale(0.996264)"/>
      <use xlink:href="#NimbusRomNo9L-Regu-30" transform="translate(124.533001 0) scale(0.996264)"/>
     </g>
    </g>
    <g id="line2d_48">
     <path d="M 294.753121 77.973041 
L 301.953121 77.973041 
L 309.153121 77.973041 
" style="fill: none; stroke: #e377c2; stroke-width: 1.8; stroke-linecap: square"/>
    </g>
    <g id="text_22">
     <!-- 165.0 -->
     <g transform="translate(313.153121 80.773041) scale(0.08 -0.08)">
      <use xlink:href="#NimbusRomNo9L-Regu-31" transform="scale(0.996264)"/>
      <use xlink:href="#NimbusRomNo9L-Regu-36" transform="translate(49.8132 0) scale(0.996264)"/>
      <use xlink:href="#NimbusRomNo9L-Regu-35" transform="translate(99.626401 0) scale(0.996264)"/>
      <use xlink:href="#NimbusRomNo9L-Regu-2e" transform="translate(149.439601 0) scale(0.996264)"/>
      <use xlink:href="#NimbusRomNo9L-Regu-30" transform="translate(174.346202 0) scale(0.996264)"/>
     </g>
    </g>
    <g id="line2d_49">
     <path d="M 294.753121 87.698505 
L 301.953121 87.698505 
L 309.153121 87.698505 
" style="fill: none; stroke: #7f7f7f; stroke-width: 1.8; stroke-linecap: square"/>
    </g>
    <g id="text_23">
     <!-- 330.0 -->
     <g transform="translate(313.153121 90.498505) scale(0.08 -0.08)">
      <use xlink:href="#NimbusRomNo9L-Regu-33" transform="scale(0.996264)"/>
      <use xlink:href="#NimbusRomNo9L-Regu-33" transform="translate(49.8132 0) scale(0.996264)"/>
      <use xlink:href="#NimbusRomNo9L-Regu-30" transform="translate(99.626401 0) scale(0.996264)"/>
      <use xlink:href="#NimbusRomNo9L-Regu-2e" transform="translate(149.439601 0) scale(0.996264)"/>
      <use xlink:href="#NimbusRomNo9L-Regu-30" transform="translate(174.346202 0) scale(0.996264)"/>
     </g>
    </g>
   </g>
  </g>
 </g>
 <defs>
  <clipPath id="paac96f24d1">
   <rect x="35.03479" y="0" width="354.256812" height="178.29504"/>
  </clipPath>
 </defs>
</svg>
