<?xml version="1.0" encoding="utf-8" standalone="no"?>
<!DOCTYPE svg PUBLIC "-//W3C//DTD SVG 1.1//EN"
  "http://www.w3.org/Graphics/SVG/1.1/DTD/svg11.dtd">
<svg xmlns:xlink="http://www.w3.org/1999/xlink" width="389.291602pt" height="210.172131pt" viewBox="0 0 389.291602 210.172131" xmlns="http://www.w3.org/2000/svg" version="1.1">
 <metadata>
  <rdf:RDF xmlns:dc="http://purl.org/dc/elements/1.1/" xmlns:cc="http://creativecommons.org/ns#" xmlns:rdf="http://www.w3.org/1999/02/22-rdf-syntax-ns#">
   <cc:Work>
    <dc:type rdf:resource="http://purl.org/dc/dcmitype/StillImage"/>
    <dc:date>2026-07-23T13:52:44.954527</dc:date>
    <dc:format>image/svg+xml</dc:format>
    <dc:creator>
     <cc:Agent>
      <dc:title>Matplotlib v3.10.9, https://matplotlib.org/</dc:title>
     </cc:Agent>
    </dc:creator>
   </cc:Work>
  </rdf:RDF>
 </metadata>
 <defs>
  <style type="text/css">*{stroke-linejoin: round; stroke-linecap: butt}</style>
 </defs>
 <g id="figure_1">
  <g id="patch_1">
   <path d="M 0 210.172131 
L 389.291602 210.172131 
L 389.291602 0 
L 0 0 
z
" style="fill: #ffffff"/>
  </g>
  <g id="axes_1">
   <g id="patch_2">
    <path d="M 35.03479 178.29504 
L 389.291602 178.29504 
L 389.291602 -0 
L 35.03479 -0 
z
" style="fill: #ffffff"/>
   </g>
   <g id="matplotlib.axis_1">
    <g id="xtick_1">
     <g id="line2d_1">
      <path d="M 51.137372 178.29504 
L 51.137372 -0 
" clip-path="url(#p42f37be28e)" style="fill: none; stroke-dasharray: 0.6,0.99; stroke-dashoffset: 0; stroke: #bfbfbf; stroke-opacity: 0.25; stroke-width: 0.6"/>
     </g>
     <g id="line2d_2">
      <defs>
       <path id="mae38e5f56b" d="M 0 0 
L 0 -3 
" style="stroke: #000000; stroke-width: 0.5"/>
      </defs>
      <g>
       <use xlink:href="#mae38e5f56b" x="51.137372" y="178.29504" style="stroke: #000000; stroke-width: 0.5"/>
      </g>
     </g>
     <g id="line2d_3">
      <defs>
       <path id="m072214bc69" d="M 0 0 
L 0 3 
" style="stroke: #000000; stroke-width: 0.5"/>
      </defs>
      <g>
       <use xlink:href="#m072214bc69" x="51.137372" y="-0" style="stroke: #000000; stroke-width: 0.5"/>
      </g>
     </g>
     <g id="text_1">
      <!-- $\mathdefault{0.0}$ -->
      <g transform="translate(45.412388 189.374157) scale(0.09 -0.09)">
       <defs>
        <path id="NimbusRomNo9L-Regu-30" d="M 1626 4352 
C 1274 4352 1005 4244 768 4020 
C 397 3661 154 2925 154 2176 
C 154 1479 365 730 666 372 
C 902 90 1229 -64 1600 -64 
C 1926 -64 2202 45 2432 269 
C 2803 621 3046 1364 3046 2138 
C 3046 3450 2464 4352 1626 4352 
z
M 1606 4186 
C 2144 4186 2432 3463 2432 2125 
C 2432 788 2150 103 1600 103 
C 1050 103 768 788 768 2119 
C 768 3476 1056 4186 1606 4186 
z
" transform="scale(0.015625)"/>
        <path id="CMMI10-3a" d="M 1229 338 
C 1229 522 1075 675 890 675 
C 704 675 550 522 550 338 
C 550 153 704 0 890 0 
C 1075 0 1229 153 1229 338 
z
" transform="scale(0.015625)"/>
       </defs>
       <use xlink:href="#NimbusRomNo9L-Regu-30" transform="scale(0.996264)"/>
       <use xlink:href="#CMMI10-3a" transform="translate(49.8132 0) scale(0.996264)"/>
       <use xlink:href="#NimbusRomNo9L-Regu-30" transform="translate(77.408707 0) scale(0.996264)"/>
      </g>
     </g>
    </g>
    <g id="xtick_2">
     <g id="line2d_4">
      <path d="M 104.812646 178.29504 
L 104.812646 -0 
" clip-path="url(#p42f37be28e)" style="fill: none; stroke-dasharray: 0.6,0.99; stroke-dashoffset: 0; stroke: #bfbfbf; stroke-opacity: 0.25; stroke-width: 0.6"/>
     </g>
     <g id="line2d_5">
      <g>
       <use xlink:href="#mae38e5f56b" x="104.812646" y="178.29504" style="stroke: #000000; stroke-width: 0.5"/>
      </g>
     </g>
     <g id="line2d_6">
      <g>
       <use xlink:href="#m072214bc69" x="104.812646" y="-0" style="stroke: #000000; stroke-width: 0.5"/>
      </g>
     </g>
     <g id="text_2">
      <!-- $\mathdefault{0.5}$ -->
      <g transform="translate(99.087663 189.374157) scale(0.09 -0.09)">
       <defs>
        <path id="NimbusRomNo9L-Regu-35" d="M 1158 3776 
L 2413 3776 
C 2515 3776 2541 3789 2560 3834 
L 2803 4403 
L 2746 4448 
C 2650 4314 2586 4282 2451 4282 
L 1114 4282 
L 416 2759 
C 410 2746 410 2740 410 2727 
C 410 2695 435 2676 486 2676 
C 691 2676 947 2631 1210 2547 
C 1946 2309 2285 1910 2285 1274 
C 2285 656 1894 173 1395 173 
C 1267 173 1158 218 966 360 
C 762 508 614 572 480 572 
C 294 572 205 495 205 334 
C 205 90 506 -64 986 -64 
C 1523 -64 1984 110 2304 438 
C 2598 728 2733 1094 2733 1583 
C 2733 2046 2611 2342 2291 2663 
C 2010 2947 1645 3094 890 3229 
L 1158 3776 
z
" transform="scale(0.015625)"/>
       </defs>
       <use xlink:href="#NimbusRomNo9L-Regu-30" transform="scale(0.996264)"/>
       <use xlink:href="#CMMI10-3a" transform="translate(49.8132 0) scale(0.996264)"/>
       <use xlink:href="#NimbusRomNo9L-Regu-35" transform="translate(77.408707 0) scale(0.996264)"/>
      </g>
     </g>
    </g>
    <g id="xtick_3">
     <g id="line2d_7">
      <path d="M 158.487921 178.29504 
L 158.487921 -0 
" clip-path="url(#p42f37be28e)" style="fill: none; stroke-dasharray: 0.6,0.99; stroke-dashoffset: 0; stroke: #bfbfbf; stroke-opacity: 0.25; stroke-width: 0.6"/>
     </g>
     <g id="line2d_8">
      <g>
       <use xlink:href="#mae38e5f56b" x="158.487921" y="178.29504" style="stroke: #000000; stroke-width: 0.5"/>
      </g>
     </g>
     <g id="line2d_9">
      <g>
       <use xlink:href="#m072214bc69" x="158.487921" y="-0" style="stroke: #000000; stroke-width: 0.5"/>
      </g>
     </g>
     <g id="text_3">
      <!-- $\mathdefault{1.0}$ -->
      <g transform="translate(152.762937 189.374157) scale(0.09 -0.09)">
       <defs>
        <path id="NimbusRomNo9L-Regu-31" d="M 1862 4339 
L 710 3757 
L 710 3667 
C 787 3699 858 3725 883 3738 
C 998 3783 1107 3808 1171 3808 
C 1306 3808 1363 3711 1363 3505 
L 1363 592 
C 1363 379 1312 232 1210 173 
C 1114 116 1024 96 755 96 
L 755 0 
L 2522 0 
L 2522 96 
C 2016 96 1914 160 1914 470 
L 1914 4327 
L 1862 4339 
z
" transform="scale(0.015625)"/>
       </defs>
       <use xlink:href="#NimbusRomNo9L-Regu-31" transform="scale(0.996264)"/>
       <use xlink:href="#CMMI10-3a" transform="translate(49.8132 0) scale(0.996264)"/>
       <use xlink:href="#NimbusRomNo9L-Regu-30" transform="translate(77.408707 0) scale(0.996264)"/>
      </g>
     </g>
    </g>
    <g id="xtick_4">
     <g id="line2d_10">
      <path d="M 212.163196 178.29504 
L 212.163196 -0 
" clip-path="url(#p42f37be28e)" style="fill: none; stroke-dasharray: 0.6,0.99; stroke-dashoffset: 0; stroke: #bfbfbf; stroke-opacity: 0.25; stroke-width: 0.6"/>
     </g>
     <g id="line2d_11">
      <g>
       <use xlink:href="#mae38e5f56b" x="212.163196" y="178.29504" style="stroke: #000000; stroke-width: 0.5"/>
      </g>
     </g>
     <g id="line2d_12">
      <g>
       <use xlink:href="#m072214bc69" x="212.163196" y="-0" style="stroke: #000000; stroke-width: 0.5"/>
      </g>
     </g>
     <g id="text_4">
      <!-- $\mathdefault{1.5}$ -->
      <g transform="translate(206.438212 189.374157) scale(0.09 -0.09)">
       <use xlink:href="#NimbusRomNo9L-Regu-31" transform="scale(0.996264)"/>
       <use xlink:href="#CMMI10-3a" transform="translate(49.8132 0) scale(0.996264)"/>
       <use xlink:href="#NimbusRomNo9L-Regu-35" transform="translate(77.408707 0) scale(0.996264)"/>
      </g>
     </g>
    </g>
    <g id="xtick_5">
     <g id="line2d_13">
      <path d="M 265.83847 178.29504 
L 265.83847 -0 
" clip-path="url(#p42f37be28e)" style="fill: none; stroke-dasharray: 0.6,0.99; stroke-dashoffset: 0; stroke: #bfbfbf; stroke-opacity: 0.25; stroke-width: 0.6"/>
     </g>
     <g id="line2d_14">
      <g>
       <use xlink:href="#mae38e5f56b" x="265.83847" y="178.29504" style="stroke: #000000; stroke-width: 0.5"/>
      </g>
     </g>
     <g id="line2d_15">
      <g>
       <use xlink:href="#m072214bc69" x="265.83847" y="-0" style="stroke: #000000; stroke-width: 0.5"/>
      </g>
     </g>
     <g id="text_5">
      <!-- $\mathdefault{2.0}$ -->
      <g transform="translate(260.113486 189.374157) scale(0.09 -0.09)">
       <defs>
        <path id="NimbusRomNo9L-Regu-32" d="M 3040 875 
L 2957 907 
C 2720 544 2637 486 2349 486 
L 819 486 
L 1894 1609 
C 2464 2202 2714 2687 2714 3185 
C 2714 3823 2195 4313 1530 4313 
C 1178 4313 845 4173 608 3918 
C 403 3700 307 3496 198 3043 
L 333 3011 
C 589 3636 819 3840 1261 3840 
C 1798 3840 2163 3476 2163 2940 
C 2163 2443 1869 1850 1331 1282 
L 192 77 
L 192 0 
L 2688 0 
L 3040 875 
z
" transform="scale(0.015625)"/>
       </defs>
       <use xlink:href="#NimbusRomNo9L-Regu-32" transform="scale(0.996264)"/>
       <use xlink:href="#CMMI10-3a" transform="translate(49.8132 0) scale(0.996264)"/>
       <use xlink:href="#NimbusRomNo9L-Regu-30" transform="translate(77.408707 0) scale(0.996264)"/>
      </g>
     </g>
    </g>
    <g id="xtick_6">
     <g id="line2d_16">
      <path d="M 319.513745 178.29504 
L 319.513745 -0 
" clip-path="url(#p42f37be28e)" style="fill: none; stroke-dasharray: 0.6,0.99; stroke-dashoffset: 0; stroke: #bfbfbf; stroke-opacity: 0.25; stroke-width: 0.6"/>
     </g>
     <g id="line2d_17">
      <g>
       <use xlink:href="#mae38e5f56b" x="319.513745" y="178.29504" style="stroke: #000000; stroke-width: 0.5"/>
      </g>
     </g>
     <g id="line2d_18">
      <g>
       <use xlink:href="#m072214bc69" x="319.513745" y="-0" style="stroke: #000000; stroke-width: 0.5"/>
      </g>
     </g>
     <g id="text_6">
      <!-- $\mathdefault{2.5}$ -->
      <g transform="translate(313.788761 189.374157) scale(0.09 -0.09)">
       <use xlink:href="#NimbusRomNo9L-Regu-32" transform="scale(0.996264)"/>
       <use xlink:href="#CMMI10-3a" transform="translate(49.8132 0) scale(0.996264)"/>
       <use xlink:href="#NimbusRomNo9L-Regu-35" transform="translate(77.408707 0) scale(0.996264)"/>
      </g>
     </g>
    </g>
    <g id="xtick_7">
     <g id="line2d_19">
      <path d="M 373.189019 178.29504 
L 373.189019 -0 
" clip-path="url(#p42f37be28e)" style="fill: none; stroke-dasharray: 0.6,0.99; stroke-dashoffset: 0; stroke: #bfbfbf; stroke-opacity: 0.25; stroke-width: 0.6"/>
     </g>
     <g id="line2d_20">
      <g>
       <use xlink:href="#mae38e5f56b" x="373.189019" y="178.29504" style="stroke: #000000; stroke-width: 0.5"/>
      </g>
     </g>
     <g id="line2d_21">
      <g>
       <use xlink:href="#m072214bc69" x="373.189019" y="-0" style="stroke: #000000; stroke-width: 0.5"/>
      </g>
     </g>
     <g id="text_7">
      <!-- $\mathdefault{3.0}$ -->
      <g transform="translate(367.464036 189.374157) scale(0.09 -0.09)">
       <defs>
        <path id="NimbusRomNo9L-Regu-33" d="M 979 2138 
C 1357 2138 1504 2125 1658 2068 
C 2054 1927 2304 1562 2304 1120 
C 2304 583 1939 167 1466 167 
C 1293 167 1165 212 928 365 
C 736 480 627 525 518 525 
C 371 525 275 436 275 301 
C 275 77 550 -64 998 -64 
C 1491 -64 1997 103 2298 365 
C 2598 628 2765 999 2765 1428 
C 2765 1754 2662 2055 2477 2253 
C 2349 2394 2227 2471 1946 2592 
C 2387 2893 2547 3130 2547 3476 
C 2547 3994 2138 4352 1549 4352 
C 1229 4352 947 4244 717 4039 
C 525 3866 429 3699 288 3315 
L 384 3290 
C 646 3757 934 3968 1338 3968 
C 1754 3968 2042 3687 2042 3284 
C 2042 3053 1946 2823 1786 2663 
C 1594 2471 1414 2375 979 2221 
L 979 2138 
z
" transform="scale(0.015625)"/>
       </defs>
       <use xlink:href="#NimbusRomNo9L-Regu-33" transform="scale(0.996264)"/>
       <use xlink:href="#CMMI10-3a" transform="translate(49.8132 0) scale(0.996264)"/>
       <use xlink:href="#NimbusRomNo9L-Regu-30" transform="translate(77.408707 0) scale(0.996264)"/>
      </g>
     </g>
    </g>
    <g id="text_8">
     <!-- time [$\mu s$] -->
     <g transform="translate(187.769633 207.096248) scale(0.13 -0.13)">
      <defs>
       <path id="NimbusRomNo9L-Regu-74" d="M 1632 2880 
L 986 2880 
L 986 3622 
C 986 3686 979 3706 941 3706 
C 896 3648 858 3590 813 3526 
C 570 3174 294 2867 192 2841 
C 122 2794 83 2748 83 2715 
C 83 2695 90 2682 109 2682 
L 448 2682 
L 448 751 
C 448 212 640 -64 1018 -64 
C 1331 -64 1574 90 1786 423 
L 1702 493 
C 1568 333 1459 269 1318 269 
C 1082 269 986 443 986 847 
L 986 2682 
L 1632 2682 
L 1632 2880 
z
" transform="scale(0.015625)"/>
       <path id="NimbusRomNo9L-Regu-69" d="M 1120 2929 
L 128 2579 
L 128 2484 
L 179 2490 
C 256 2502 339 2509 397 2509 
C 550 2509 608 2406 608 2125 
L 608 640 
C 608 179 544 109 102 109 
L 102 0 
L 1619 0 
L 1619 96 
C 1197 128 1146 191 1146 650 
L 1146 2910 
L 1120 2929 
z
M 819 4352 
C 646 4352 499 4205 499 4026 
C 499 3847 640 3699 819 3699 
C 1005 3699 1152 3840 1152 4026 
C 1152 4205 1005 4352 819 4352 
z
" transform="scale(0.015625)"/>
       <path id="NimbusRomNo9L-Regu-6d" d="M 122 2547 
C 205 2566 256 2573 326 2573 
C 493 2573 550 2470 550 2162 
L 550 539 
C 550 192 461 96 102 96 
L 102 0 
L 1523 0 
L 1523 96 
C 1184 96 1088 166 1088 418 
L 1088 2234 
C 1088 2246 1139 2310 1184 2355 
C 1344 2502 1619 2611 1843 2611 
C 2125 2611 2266 2385 2266 1932 
L 2266 528 
C 2266 167 2195 96 1830 96 
L 1830 0 
L 3264 0 
L 3264 96 
C 2899 96 2803 205 2803 603 
L 2803 2221 
C 2995 2496 3206 2611 3501 2611 
C 3866 2611 3981 2438 3981 1907 
L 3981 557 
C 3981 192 3930 141 3558 96 
L 3558 0 
L 4960 0 
L 4960 96 
L 4794 115 
C 4602 115 4518 230 4518 480 
L 4518 1802 
C 4518 2559 4269 2944 3776 2944 
C 3405 2944 3078 2778 2733 2407 
C 2618 2771 2400 2944 2054 2944 
C 1773 2944 1594 2854 1062 2451 
L 1062 2931 
L 1018 2944 
C 691 2822 474 2752 122 2656 
L 122 2547 
z
" transform="scale(0.015625)"/>
       <path id="NimbusRomNo9L-Regu-65" d="M 2611 1053 
C 2304 564 2029 378 1619 378 
C 1254 378 979 564 794 930 
C 678 1174 634 1386 621 1779 
L 2592 1779 
C 2541 2193 2477 2377 2317 2581 
C 2125 2811 1830 2944 1498 2944 
C 1178 2944 877 2829 634 2611 
C 333 2349 160 1894 160 1370 
C 160 486 621 -64 1357 -64 
C 1965 -64 2445 315 2714 1008 
L 2611 1053 
z
M 634 1984 
C 704 2479 922 2714 1312 2714 
C 1702 2714 1856 2535 1939 1984 
L 634 1984 
z
" transform="scale(0.015625)"/>
       <path id="NimbusRomNo9L-Regu-5b" d="M 1914 -864 
L 1363 -864 
C 1152 -864 1050 -756 1050 -531 
L 1050 3781 
C 1050 3981 1133 4064 1338 4064 
L 1914 4064 
L 1914 4224 
L 563 4224 
L 563 -1024 
L 1914 -1024 
L 1914 -864 
z
" transform="scale(0.015625)"/>
       <path id="StandardSymL-6d" d="M 2829 3168 
L 2259 3168 
L 2266 818 
C 2035 517 1818 388 1549 388 
C 1178 388 960 646 960 1086 
L 960 3168 
L 397 3168 
L 397 113 
C 397 -20 371 -179 326 -371 
C 218 -766 211 -804 211 -950 
C 211 -1218 346 -1408 531 -1408 
C 717 -1408 845 -1214 845 -928 
C 845 -791 826 -706 723 -330 
C 659 -96 646 -31 646 151 
L 646 229 
C 915 6 1062 -64 1280 -64 
C 1600 -64 1926 129 2266 513 
C 2317 314 2349 240 2413 148 
C 2509 17 2682 -64 2867 -64 
C 3264 -64 3539 204 3629 672 
L 3456 672 
C 3430 453 3296 280 3149 280 
C 2957 280 2829 506 2829 847 
L 2829 3168 
z
" transform="scale(0.015625)"/>
       <path id="NimbusRomNo9L-ReguItal-73" d="M 230 945 
L 102 -83 
L 205 -83 
C 256 29 294 64 358 64 
C 429 64 544 34 672 -5 
C 813 -60 922 -83 1024 -83 
C 1562 -83 1946 263 1946 749 
C 1946 992 1811 1274 1510 1645 
C 1267 1945 1165 2144 1165 2317 
C 1165 2528 1299 2663 1523 2663 
C 1856 2663 2048 2423 2112 1920 
L 2214 1920 
L 2342 2816 
L 2253 2816 
C 2202 2720 2150 2693 2061 2693 
C 2016 2693 1952 2708 1830 2744 
C 1670 2802 1574 2816 1472 2816 
C 1005 2816 698 2542 698 2114 
C 698 1910 832 1635 1101 1290 
C 1350 964 1459 741 1459 556 
C 1459 268 1267 64 986 64 
C 634 64 435 330 333 945 
L 230 945 
z
" transform="scale(0.015625)"/>
       <path id="NimbusRomNo9L-Regu-5d" d="M 218 -864 
L 218 -1024 
L 1568 -1024 
L 1568 4224 
L 218 4224 
L 218 4064 
L 768 4064 
C 979 4064 1082 3955 1082 3730 
L 1082 -582 
C 1082 -781 992 -864 794 -864 
L 218 -864 
z
" transform="scale(0.015625)"/>
      </defs>
      <use xlink:href="#NimbusRomNo9L-Regu-74" transform="scale(0.996264)"/>
      <use xlink:href="#NimbusRomNo9L-Regu-69" transform="translate(27.69517 0) scale(0.996264)"/>
      <use xlink:href="#NimbusRomNo9L-Regu-6d" transform="translate(55.390339 0) scale(0.996264)"/>
      <use xlink:href="#NimbusRomNo9L-Regu-65" transform="translate(132.898709 0) scale(0.996264)"/>
      <use xlink:href="#NimbusRomNo9L-Regu-5b" transform="translate(202.038878 0) scale(0.996264)"/>
      <use xlink:href="#StandardSymL-6d" transform="translate(237.704722 0) scale(0.996264)"/>
      <use xlink:href="#NimbusRomNo9L-ReguItal-73" transform="translate(303.357131 0) scale(0.996264)"/>
      <use xlink:href="#NimbusRomNo9L-Regu-5d" transform="translate(342.110837 0) scale(0.996264)"/>
     </g>
    </g>
    <g id="text_9">
     <!-- $\times\mathdefault{10^{4}}\mathdefault{}$ -->
     <g transform="translate(369.871522 201.104236) scale(0.09 -0.09)">
      <defs>
       <path id="CMSY10-2" d="M 2490 1785 
L 1210 3059 
C 1133 3136 1120 3148 1069 3148 
C 1005 3148 941 3091 941 3020 
C 941 2976 954 2963 1024 2892 
L 2304 1606 
L 1024 320 
C 954 249 941 236 941 192 
C 941 121 1005 64 1069 64 
C 1120 64 1133 76 1210 153 
L 2483 1427 
L 3808 102 
C 3821 96 3866 64 3904 64 
C 3981 64 4032 121 4032 192 
C 4032 204 4032 230 4013 262 
C 4006 275 2989 1280 2669 1606 
L 3840 2777 
C 3872 2816 3968 2899 4000 2937 
C 4006 2950 4032 2976 4032 3020 
C 4032 3091 3981 3148 3904 3148 
C 3853 3148 3827 3123 3757 3052 
L 2490 1785 
z
" transform="scale(0.015625)"/>
       <path id="NimbusRomNo9L-Regu-34" d="M 3021 1497 
L 2368 1497 
L 2368 4352 
L 2086 4352 
L 77 1497 
L 77 1088 
L 1875 1088 
L 1875 32 
L 2368 32 
L 2368 1088 
L 3021 1088 
L 3021 1497 
z
M 1869 1497 
L 333 1497 
L 1869 3698 
L 1869 1497 
z
" transform="scale(0.015625)"/>
      </defs>
      <use xlink:href="#CMSY10-2" transform="scale(0.996264)"/>
      <use xlink:href="#NimbusRomNo9L-Regu-31" transform="translate(77.408707 0) scale(0.996264)"/>
      <use xlink:href="#NimbusRomNo9L-Regu-30" transform="translate(127.221908 0) scale(0.996264)"/>
      <use xlink:href="#NimbusRomNo9L-Regu-34" transform="translate(177.035108 36.163231) scale(0.737241)"/>
     </g>
    </g>
   </g>
   <g id="matplotlib.axis_2">
    <g id="ytick_1">
     <g id="line2d_22">
      <path d="M 35.03479 170.19572 
L 389.291602 170.19572 
" clip-path="url(#p42f37be28e)" style="fill: none; stroke-dasharray: 0.6,0.99; stroke-dashoffset: 0; stroke: #bfbfbf; stroke-opacity: 0.25; stroke-width: 0.6"/>
     </g>
     <g id="line2d_23">
      <defs>
       <path id="m2776400178" d="M 0 0 
L 3 0 
" style="stroke: #000000; stroke-width: 0.5"/>
      </defs>
      <g>
       <use xlink:href="#m2776400178" x="35.03479" y="170.19572" style="stroke: #000000; stroke-width: 0.5"/>
      </g>
     </g>
     <g id="line2d_24">
      <defs>
       <path id="m3bb18900d5" d="M 0 0 
L -3 0 
" style="stroke: #000000; stroke-width: 0.5"/>
      </defs>
      <g>
       <use xlink:href="#m3bb18900d5" x="389.291602" y="170.19572" style="stroke: #000000; stroke-width: 0.5"/>
      </g>
     </g>
     <g id="text_10">
      <!-- $\mathdefault{0.0}$ -->
      <g transform="translate(18.584822 173.235279) scale(0.09 -0.09)">
       <use xlink:href="#NimbusRomNo9L-Regu-30" transform="scale(0.996264)"/>
       <use xlink:href="#CMMI10-3a" transform="translate(49.8132 0) scale(0.996264)"/>
       <use xlink:href="#NimbusRomNo9L-Regu-30" transform="translate(77.408707 0) scale(0.996264)"/>
      </g>
     </g>
    </g>
    <g id="ytick_2">
     <g id="line2d_25">
      <path d="M 35.03479 135.408696 
L 389.291602 135.408696 
" clip-path="url(#p42f37be28e)" style="fill: none; stroke-dasharray: 0.6,0.99; stroke-dashoffset: 0; stroke: #bfbfbf; stroke-opacity: 0.25; stroke-width: 0.6"/>
     </g>
     <g id="line2d_26">
      <g>
       <use xlink:href="#m2776400178" x="35.03479" y="135.408696" style="stroke: #000000; stroke-width: 0.5"/>
      </g>
     </g>
     <g id="line2d_27">
      <g>
       <use xlink:href="#m3bb18900d5" x="389.291602" y="135.408696" style="stroke: #000000; stroke-width: 0.5"/>
      </g>
     </g>
     <g id="text_11">
      <!-- $\mathdefault{0.2}$ -->
      <g transform="translate(18.584822 138.448254) scale(0.09 -0.09)">
       <use xlink:href="#NimbusRomNo9L-Regu-30" transform="scale(0.996264)"/>
       <use xlink:href="#CMMI10-3a" transform="translate(49.8132 0) scale(0.996264)"/>
       <use xlink:href="#NimbusRomNo9L-Regu-32" transform="translate(77.408707 0) scale(0.996264)"/>
      </g>
     </g>
    </g>
    <g id="ytick_3">
     <g id="line2d_28">
      <path d="M 35.03479 100.621672 
L 389.291602 100.621672 
" clip-path="url(#p42f37be28e)" style="fill: none; stroke-dasharray: 0.6,0.99; stroke-dashoffset: 0; stroke: #bfbfbf; stroke-opacity: 0.25; stroke-width: 0.6"/>
     </g>
     <g id="line2d_29">
      <g>
       <use xlink:href="#m2776400178" x="35.03479" y="100.621672" style="stroke: #000000; stroke-width: 0.5"/>
      </g>
     </g>
     <g id="line2d_30">
      <g>
       <use xlink:href="#m3bb18900d5" x="389.291602" y="100.621672" style="stroke: #000000; stroke-width: 0.5"/>
      </g>
     </g>
     <g id="text_12">
      <!-- $\mathdefault{0.4}$ -->
      <g transform="translate(18.584822 103.66123) scale(0.09 -0.09)">
       <use xlink:href="#NimbusRomNo9L-Regu-30" transform="scale(0.996264)"/>
       <use xlink:href="#CMMI10-3a" transform="translate(49.8132 0) scale(0.996264)"/>
       <use xlink:href="#NimbusRomNo9L-Regu-34" transform="translate(77.408707 0) scale(0.996264)"/>
      </g>
     </g>
    </g>
    <g id="ytick_4">
     <g id="line2d_31">
      <path d="M 35.03479 65.834647 
L 389.291602 65.834647 
" clip-path="url(#p42f37be28e)" style="fill: none; stroke-dasharray: 0.6,0.99; stroke-dashoffset: 0; stroke: #bfbfbf; stroke-opacity: 0.25; stroke-width: 0.6"/>
     </g>
     <g id="line2d_32">
      <g>
       <use xlink:href="#m2776400178" x="35.03479" y="65.834647" style="stroke: #000000; stroke-width: 0.5"/>
      </g>
     </g>
     <g id="line2d_33">
      <g>
       <use xlink:href="#m3bb18900d5" x="389.291602" y="65.834647" style="stroke: #000000; stroke-width: 0.5"/>
      </g>
     </g>
     <g id="text_13">
      <!-- $\mathdefault{0.6}$ -->
      <g transform="translate(18.584822 68.874206) scale(0.09 -0.09)">
       <defs>
        <path id="NimbusRomNo9L-Regu-36" d="M 2854 4391 
C 2125 4327 1754 4205 1286 3879 
C 595 3386 218 2656 218 1802 
C 218 1248 390 688 666 370 
C 909 89 1254 -64 1651 -64 
C 2445 -64 2995 541 2995 1421 
C 2995 2236 2528 2752 1792 2752 
C 1510 2752 1376 2707 973 2464 
C 1146 3431 1862 4122 2867 4288 
L 2854 4391 
z
M 1549 2458 
C 2099 2458 2419 2000 2419 1204 
C 2419 504 2170 116 1722 116 
C 1158 116 813 714 813 1700 
C 813 2025 864 2203 992 2299 
C 1126 2400 1325 2458 1549 2458 
z
" transform="scale(0.015625)"/>
       </defs>
       <use xlink:href="#NimbusRomNo9L-Regu-30" transform="scale(0.996264)"/>
       <use xlink:href="#CMMI10-3a" transform="translate(49.8132 0) scale(0.996264)"/>
       <use xlink:href="#NimbusRomNo9L-Regu-36" transform="translate(77.408707 0) scale(0.996264)"/>
      </g>
     </g>
    </g>
    <g id="ytick_5">
     <g id="line2d_34">
      <path d="M 35.03479 31.047623 
L 389.291602 31.047623 
" clip-path="url(#p42f37be28e)" style="fill: none; stroke-dasharray: 0.6,0.99; stroke-dashoffset: 0; stroke: #bfbfbf; stroke-opacity: 0.25; stroke-width: 0.6"/>
     </g>
     <g id="line2d_35">
      <g>
       <use xlink:href="#m2776400178" x="35.03479" y="31.047623" style="stroke: #000000; stroke-width: 0.5"/>
      </g>
     </g>
     <g id="line2d_36">
      <g>
       <use xlink:href="#m3bb18900d5" x="389.291602" y="31.047623" style="stroke: #000000; stroke-width: 0.5"/>
      </g>
     </g>
     <g id="text_14">
      <!-- $\mathdefault{0.8}$ -->
      <g transform="translate(18.584822 34.087181) scale(0.09 -0.09)">
       <defs>
        <path id="NimbusRomNo9L-Regu-38" d="M 1856 2400 
C 2490 2740 2714 3008 2714 3444 
C 2714 3968 2253 4352 1613 4352 
C 915 4352 397 3924 397 3341 
C 397 2925 518 2740 1190 2151 
C 499 1626 358 1428 358 992 
C 358 372 864 -64 1587 -64 
C 2355 -64 2848 359 2848 1018 
C 2848 1511 2630 1824 1856 2400 
z
M 1741 1741 
C 2208 1408 2362 1178 2362 820 
C 2362 404 2074 116 1658 116 
C 1171 116 845 487 845 1044 
C 845 1453 986 1722 1357 2023 
L 1741 1741 
z
M 1670 2516 
C 1101 2887 870 3181 870 3540 
C 870 3911 1158 4173 1562 4173 
C 1997 4173 2272 3892 2272 3450 
C 2272 3085 2093 2797 1728 2554 
C 1696 2535 1696 2535 1670 2516 
z
" transform="scale(0.015625)"/>
       </defs>
       <use xlink:href="#NimbusRomNo9L-Regu-30" transform="scale(0.996264)"/>
       <use xlink:href="#CMMI10-3a" transform="translate(49.8132 0) scale(0.996264)"/>
       <use xlink:href="#NimbusRomNo9L-Regu-38" transform="translate(77.408707 0) scale(0.996264)"/>
      </g>
     </g>
    </g>
    <g id="text_15">
     <!-- Coupling $\eta$ -->
     <g transform="translate(8.780945 118.780142) rotate(-90) scale(0.13 -0.13)">
      <defs>
       <path id="NimbusRomNo9L-Regu-43" d="M 3968 2906 
L 3910 4352 
L 3776 4352 
C 3738 4218 3635 4141 3507 4141 
C 3450 4141 3354 4160 3258 4199 
C 2944 4301 2624 4352 2323 4352 
C 1798 4352 1267 4154 870 3802 
C 422 3405 179 2810 179 2106 
C 179 1511 371 960 698 596 
C 1082 180 1670 -64 2304 -64 
C 3027 -64 3661 231 4051 749 
L 3936 864 
C 3462 410 3040 218 2509 218 
C 2106 218 1747 346 1472 589 
C 1120 903 922 1479 922 2189 
C 922 3348 1517 4096 2445 4096 
C 2810 4096 3142 3962 3398 3706 
C 3603 3501 3699 3322 3821 2906 
L 3968 2906 
z
" transform="scale(0.015625)"/>
       <path id="NimbusRomNo9L-Regu-6f" d="M 1600 2944 
C 768 2944 186 2330 186 1446 
C 186 582 781 -64 1587 -64 
C 2394 -64 3008 614 3008 1498 
C 3008 2336 2419 2944 1600 2944 
z
M 1517 2765 
C 2054 2765 2432 2150 2432 1274 
C 2432 550 2144 115 1664 115 
C 1414 115 1178 269 1043 525 
C 864 858 762 1306 762 1760 
C 762 2368 1062 2765 1517 2765 
z
" transform="scale(0.015625)"/>
       <path id="NimbusRomNo9L-Regu-75" d="M 3066 320 
L 3034 320 
C 2739 320 2669 390 2669 685 
L 2669 2880 
L 1658 2880 
L 1658 2758 
C 2054 2758 2131 2694 2131 2375 
L 2131 875 
C 2131 697 2099 607 2010 537 
C 1837 397 1638 320 1446 320 
C 1197 320 992 537 992 805 
L 992 2880 
L 58 2880 
L 58 2778 
C 365 2778 454 2682 454 2387 
L 454 770 
C 454 263 762 -64 1229 -64 
C 1466 -64 1715 38 1888 211 
L 2163 486 
L 2163 -45 
L 2189 -58 
C 2509 70 2739 141 3066 230 
L 3066 320 
z
" transform="scale(0.015625)"/>
       <path id="NimbusRomNo9L-Regu-70" d="M 58 2516 
C 115 2522 160 2522 218 2522 
C 435 2522 480 2458 480 2155 
L 480 -855 
C 480 -1189 410 -1261 32 -1299 
L 32 -1408 
L 1581 -1408 
L 1581 -1293 
C 1101 -1293 1018 -1222 1018 -816 
L 1018 199 
C 1242 -13 1395 -77 1664 -77 
C 2419 -77 3008 643 3008 1575 
C 3008 2372 2560 2944 1939 2944 
C 1581 2944 1299 2784 1018 2438 
L 1018 2931 
L 979 2944 
C 634 2810 410 2726 58 2618 
L 58 2516 
z
M 1018 2136 
C 1018 2329 1376 2560 1670 2560 
C 2144 2560 2458 2071 2458 1324 
C 2458 611 2144 128 1683 128 
C 1382 128 1018 359 1018 552 
L 1018 2136 
z
" transform="scale(0.015625)"/>
       <path id="NimbusRomNo9L-Regu-6c" d="M 122 4000 
L 160 4000 
C 230 4000 307 4000 358 4000 
C 563 4000 627 3910 627 3610 
L 627 557 
C 627 211 538 128 134 96 
L 134 0 
L 1645 0 
L 1645 109 
C 1242 109 1165 173 1165 528 
L 1165 4371 
L 1139 4384 
C 806 4275 563 4211 122 4103 
L 122 4000 
z
" transform="scale(0.015625)"/>
       <path id="NimbusRomNo9L-Regu-6e" d="M 102 2579 
C 141 2598 205 2605 275 2605 
C 454 2605 512 2509 512 2195 
L 512 608 
C 512 243 442 154 115 128 
L 115 32 
L 1472 32 
L 1472 128 
C 1146 154 1050 230 1050 461 
L 1050 2259 
C 1357 2547 1498 2624 1709 2624 
C 2022 2624 2176 2426 2176 2003 
L 2176 666 
C 2176 262 2093 154 1773 128 
L 1773 32 
L 3104 32 
L 3104 128 
C 2790 160 2714 237 2714 550 
L 2714 2016 
C 2714 2618 2432 2976 1958 2976 
C 1664 2976 1466 2867 1030 2458 
L 1030 2963 
L 986 2976 
C 672 2861 454 2790 102 2688 
L 102 2579 
z
" transform="scale(0.015625)"/>
       <path id="NimbusRomNo9L-Regu-67" d="M 3008 2496 
L 3008 2746 
L 2515 2746 
C 2387 2746 2291 2763 2163 2802 
L 2022 2847 
C 1850 2903 1677 2931 1510 2931 
C 915 2931 442 2467 442 1881 
C 442 1476 614 1230 1037 1018 
C 915 906 800 799 762 768 
C 550 588 467 463 467 338 
C 467 206 544 131 806 6 
C 352 -329 179 -543 179 -781 
C 179 -1124 678 -1408 1286 -1408 
C 1766 -1408 2266 -1238 2598 -962 
C 2842 -759 2950 -548 2950 -299 
C 2950 108 2650 384 2176 384 
L 1350 384 
C 1011 384 851 443 851 548 
C 851 678 1062 908 1235 960 
C 1293 953 1338 947 1357 947 
C 1478 934 1562 928 1600 928 
C 1837 928 2093 1026 2291 1203 
C 2502 1387 2598 1617 2598 1945 
C 2598 2135 2566 2286 2477 2496 
L 3008 2496 
z
M 941 -13 
C 1152 -58 1664 -96 1978 -96 
C 2560 -96 2771 -180 2771 -414 
C 2771 -791 2285 -1043 1562 -1043 
C 998 -1043 627 -855 627 -570 
C 627 -420 672 -336 941 -13 
z
M 973 2145 
C 973 2526 1152 2752 1446 2752 
C 1645 2752 1811 2642 1914 2449 
C 2029 2223 2106 1927 2106 1675 
C 2106 1314 1920 1088 1626 1088 
C 1242 1088 973 1507 973 2126 
L 973 2145 
z
" transform="scale(0.015625)"/>
       <path id="StandardSymL-68" d="M 762 3 
L 1325 3 
L 1325 2317 
C 1555 2660 1779 2819 2061 2819 
C 2426 2819 2650 2571 2650 2164 
L 2650 -626 
C 2650 -842 2688 -1083 2778 -1408 
L 3373 -1408 
C 3270 -1096 3232 -931 3232 -772 
L 3232 2349 
C 3232 2876 2848 3264 2317 3264 
C 1939 3264 1670 3092 1325 2616 
C 1293 2803 1261 2884 1203 2971 
C 1094 3113 909 3200 717 3200 
C 461 3200 218 3043 96 2793 
C 26 2642 0 2510 0 2279 
L 154 2279 
C 192 2663 282 2844 435 2844 
C 627 2844 768 2597 768 2255 
L 762 3 
z
" transform="scale(0.015625)"/>
      </defs>
      <use xlink:href="#NimbusRomNo9L-Regu-43" transform="scale(0.996264)"/>
      <use xlink:href="#NimbusRomNo9L-Regu-6f" transform="translate(66.450031 0) scale(0.996264)"/>
      <use xlink:href="#NimbusRomNo9L-Regu-75" transform="translate(116.263232 0) scale(0.996264)"/>
      <use xlink:href="#NimbusRomNo9L-Regu-70" transform="translate(166.076432 0) scale(0.996264)"/>
      <use xlink:href="#NimbusRomNo9L-Regu-6c" transform="translate(215.889633 0) scale(0.996264)"/>
      <use xlink:href="#NimbusRomNo9L-Regu-69" transform="translate(243.584802 0) scale(0.996264)"/>
      <use xlink:href="#NimbusRomNo9L-Regu-6e" transform="translate(271.279972 0) scale(0.996264)"/>
      <use xlink:href="#NimbusRomNo9L-Regu-67" transform="translate(321.093172 0) scale(0.996264)"/>
      <use xlink:href="#StandardSymL-68" transform="translate(395.812973 0) scale(0.996264)"/>
     </g>
    </g>
   </g>
   <g id="line2d_37">
    <path d="M 51.137372 8.366447 
L 55.173107 8.478343 
L 59.208842 8.811354 
L 63.244577 9.367443 
L 67.280312 10.145212 
L 71.316047 11.139256 
L 75.351782 12.340087 
L 80.194663 14.035381 
L 85.037545 15.982051 
L 89.880427 18.151054 
L 95.530456 20.9272 
L 101.180485 23.936381 
L 107.637661 27.631903 
L 114.094837 31.578499 
L 121.35916 36.288126 
L 129.43063 41.798527 
L 139.92354 49.255207 
L 165.752244 67.737811 
L 175.438008 74.328589 
L 184.316625 80.111005 
L 193.195241 85.635133 
L 202.073858 90.905545 
L 210.952475 95.925919 
L 219.831092 100.692723 
L 228.709709 105.19867 
L 237.588326 109.439497 
L 246.466942 113.417995 
L 255.345559 117.142773 
L 264.224176 120.623972 
L 273.102793 123.870611 
L 281.98141 126.891783 
L 291.667174 129.944426 
L 301.352937 132.762096 
L 311.845848 135.57274 
L 322.338759 138.153465 
L 333.638817 140.696504 
L 344.938875 143.014873 
L 357.04608 145.272624 
L 369.960431 147.447663 
L 373.189019 147.956514 
L 373.189019 147.956514 
" clip-path="url(#p42f37be28e)" style="fill: none; stroke: #1f77b4; stroke-width: 1.8; stroke-linecap: square"/>
   </g>
   <g id="line2d_38">
    <path d="M 51.137372 8.213897 
L 52.751666 8.440011 
L 54.36596 8.83128 
L 56.787401 9.712236 
L 59.208842 10.927792 
L 61.630283 12.462846 
L 64.051724 14.307807 
L 66.473165 16.455527 
L 68.894606 18.896113 
L 71.316047 21.612059 
L 74.544635 25.614235 
L 77.773222 29.976225 
L 81.808957 35.803247 
L 87.458986 44.395026 
L 106.023367 72.983245 
L 111.673396 81.081437 
L 116.516278 87.64983 
L 121.35916 93.841997 
L 126.202042 99.647314 
L 131.044924 105.070697 
L 135.887805 110.127725 
L 140.730687 114.836578 
L 145.573569 119.210692 
L 150.416451 123.259556 
L 155.259333 126.993241 
L 160.102215 130.42468 
L 164.945097 133.569083 
L 169.787979 136.44259 
L 174.630861 139.062303 
L 179.473743 141.447475 
L 185.123772 143.962363 
L 190.7738 146.220783 
L 196.423829 148.252174 
L 202.881005 150.328689 
L 209.338181 152.177948 
L 216.602504 154.024695 
L 223.866827 155.653453 
L 231.938297 157.234981 
L 240.816914 158.73346 
L 250.502677 160.127635 
L 260.995588 161.406977 
L 273.102793 162.644765 
L 286.017145 163.739941 
L 300.545791 164.74821 
L 317.495877 165.691654 
L 336.867405 166.538541 
L 359.46752 167.292713 
L 373.189019 167.655312 
L 373.189019 167.655312 
" clip-path="url(#p42f37be28e)" style="fill: none; stroke: #ff7f0e; stroke-width: 1.8; stroke-linecap: square"/>
   </g>
   <g id="line2d_39">
    <path d="M 51.137372 8.269124 
L 52.751666 8.638617 
L 54.36596 9.328665 
L 55.980254 10.336208 
L 57.594548 11.656801 
L 59.208842 13.282423 
L 60.823136 15.19973 
L 62.43743 17.38935 
L 64.858871 21.129298 
L 67.280312 25.331902 
L 70.5089 31.500622 
L 74.544635 39.865187 
L 80.194663 52.243899 
L 88.266133 69.922765 
L 92.301868 78.2657 
L 96.337603 86.14879 
L 100.373338 93.564714 
L 104.409073 100.489806 
L 107.637661 105.650339 
L 110.866249 110.463134 
L 114.094837 114.932973 
L 117.323425 119.072502 
L 120.552013 122.898392 
L 123.780601 126.430483 
L 127.009189 129.690604 
L 131.044924 133.415114 
L 135.080658 136.782513 
L 139.116393 139.820268 
L 143.152128 142.551157 
L 147.187863 144.99986 
L 151.223598 147.196139 
L 155.259333 149.170554 
L 160.102215 151.283656 
L 164.945097 153.151354 
L 170.595126 155.061716 
L 176.245155 156.724937 
L 182.702331 158.371478 
L 189.159506 159.788488 
L 196.423829 161.148306 
L 204.495299 162.412865 
L 213.373916 163.562406 
L 223.05968 164.58933 
L 234.359738 165.548645 
L 247.274089 166.401524 
L 261.802735 167.131344 
L 279.559969 167.789917 
L 301.352937 168.36649 
L 329.603082 168.878457 
L 365.117549 169.285227 
L 373.189019 169.352618 
L 373.189019 169.352618 
" clip-path="url(#p42f37be28e)" style="fill: none; stroke: #2ca02c; stroke-width: 1.8; stroke-linecap: square"/>
   </g>
   <g id="line2d_40">
    <path d="M 51.137372 8.175148 
L 51.944519 8.3267 
L 52.751666 8.717283 
L 53.558813 9.341013 
L 54.36596 10.190916 
L 55.173107 11.260243 
L 55.980254 12.543361 
L 57.594548 15.731469 
L 59.208842 19.704268 
L 60.823136 24.369538 
L 63.244577 32.382636 
L 65.666018 41.232665 
L 75.351782 77.742637 
L 78.580369 88.600115 
L 81.00181 96.097853 
L 83.423251 102.998576 
L 85.844692 109.299783 
L 88.266133 115.033867 
L 90.687574 120.245588 
L 93.109015 124.973079 
L 95.530456 129.243013 
L 97.951897 133.082436 
L 100.373338 136.527648 
L 102.794779 139.620549 
L 105.21622 142.401099 
L 107.637661 144.903179 
L 110.059102 147.155787 
L 113.28769 149.816788 
L 116.516278 152.135069 
L 119.744866 154.152229 
L 122.973454 155.904542 
L 126.202042 157.428877 
L 130.237777 159.067285 
L 134.273511 160.458463 
L 139.116393 161.856202 
L 143.959275 163.01266 
L 149.609304 164.120663 
L 156.06648 165.139525 
L 163.330803 166.045531 
L 171.402273 166.827057 
L 181.088037 167.533295 
L 192.388094 168.130782 
L 206.91674 168.666032 
L 226.288268 169.134826 
L 250.502677 169.489355 
L 285.209998 169.75562 
L 344.938875 169.964806 
L 373.189019 170.014866 
L 373.189019 170.014866 
" clip-path="url(#p42f37be28e)" style="fill: none; stroke: #d62728; stroke-width: 1.8; stroke-linecap: square"/>
   </g>
   <g id="line2d_41">
    <path d="M 51.137372 8.378261 
L 51.944519 8.737668 
L 52.751666 9.719795 
L 53.558813 11.314384 
L 54.36596 13.493108 
L 55.173107 16.207365 
L 56.787401 22.976099 
L 58.401695 31.07057 
L 60.823136 44.712128 
L 67.280312 82.376559 
L 69.701753 94.768508 
L 72.123194 105.7109 
L 73.737488 112.165222 
L 75.351782 117.967577 
L 76.966075 123.164516 
L 78.580369 127.808417 
L 80.194663 131.953799 
L 81.808957 135.657872 
L 83.423251 138.973347 
L 85.037545 141.942745 
L 87.458986 145.822337 
L 89.880427 149.098481 
L 92.301868 151.860911 
L 94.723309 154.197913 
L 97.14475 156.185911 
L 99.566191 157.885654 
L 101.987632 159.344078 
L 105.21622 160.975057 
L 108.444808 162.315304 
L 111.673396 163.428252 
L 115.709131 164.565868 
L 119.744866 165.478256 
L 124.587748 166.344991 
L 130.237777 167.118815 
L 136.694952 167.772141 
L 144.766422 168.350283 
L 155.259333 168.84606 
L 168.980832 169.25482 
L 187.545213 169.569443 
L 217.409651 169.827895 
L 268.259911 170.018757 
L 367.53899 170.123421 
L 373.189019 170.126173 
L 373.189019 170.126173 
" clip-path="url(#p42f37be28e)" style="fill: none; stroke: #9467bd; stroke-width: 1.8; stroke-linecap: square"/>
   </g>
   <g id="line2d_42">
    <path d="M 51.137372 8.831932 
L 51.944519 9.342525 
L 52.751666 10.784691 
L 53.558813 13.092849 
L 54.36596 16.154864 
L 55.173107 19.855781 
L 56.787401 28.795651 
L 58.401695 39.192876 
L 65.666018 88.759014 
L 68.087459 102.453419 
L 69.701753 110.417024 
L 71.316047 117.443201 
L 72.930341 123.618116 
L 74.544635 129.045458 
L 76.158929 133.806986 
L 77.773222 137.967819 
L 79.387516 141.596792 
L 81.00181 144.767926 
L 82.616104 147.544384 
L 84.230398 149.976869 
L 85.844692 152.109473 
L 87.458986 153.98219 
L 89.880427 156.381608 
L 92.301868 158.373711 
L 94.723309 160.027685 
L 97.14475 161.402634 
L 99.566191 162.55415 
L 102.794779 163.81809 
L 106.023367 164.834748 
L 110.059102 165.834214 
L 114.094837 166.605241 
L 118.937719 167.313391 
L 125.394895 168.004018 
L 132.659217 168.546942 
L 142.344981 169.027202 
L 154.452186 169.39012 
L 173.016567 169.696473 
L 202.073858 169.920463 
L 253.731265 170.077282 
L 373.189019 170.158154 
L 373.189019 170.158154 
" clip-path="url(#p42f37be28e)" style="fill: none; stroke: #8c564b; stroke-width: 1.8; stroke-linecap: square"/>
   </g>
   <g id="line2d_43">
    <path d="M 51.137372 8.10432 
L 51.944519 11.969869 
L 52.751666 23.619624 
L 54.36596 58.172968 
L 55.980254 91.49121 
L 56.787401 105.109715 
L 57.594548 116.493307 
L 58.401695 125.871256 
L 59.208842 133.556174 
L 60.015989 139.853374 
L 60.823136 144.992517 
L 61.630283 149.17678 
L 62.43743 152.58614 
L 63.244577 155.366193 
L 64.051724 157.635361 
L 64.858871 159.495081 
L 65.666018 161.028681 
L 66.473165 162.302954 
L 68.087459 164.260572 
L 69.701753 165.642157 
L 71.316047 166.637382 
L 72.930341 167.36427 
L 75.351782 168.126966 
L 77.773222 168.644263 
L 81.00181 169.098094 
L 85.037545 169.444423 
L 91.494721 169.738605 
L 101.987632 169.95678 
L 121.35916 170.094499 
L 173.016567 170.164831 
L 373.189019 170.19072 
L 373.189019 170.19072 
" clip-path="url(#p42f37be28e)" style="fill: none; stroke: #e377c2; stroke-width: 1.8; stroke-linecap: square"/>
   </g>
   <g id="patch_3">
    <path d="M 35.03479 178.29504 
L 35.03479 -0 
" style="fill: none; stroke: #000000; stroke-width: 0.7; stroke-linejoin: miter; stroke-linecap: square"/>
   </g>
   <g id="patch_4">
    <path d="M 389.291602 178.29504 
L 389.291602 -0 
" style="fill: none; stroke: #000000; stroke-width: 0.7; stroke-linejoin: miter; stroke-linecap: square"/>
   </g>
   <g id="patch_5">
    <path d="M 35.03479 178.29504 
L 389.291602 178.29504 
" style="fill: none; stroke: #000000; stroke-width: 0.7; stroke-linejoin: miter; stroke-linecap: square"/>
   </g>
   <g id="patch_6">
    <path d="M 35.03479 -0 
L 389.291602 -0 
" style="fill: none; stroke: #000000; stroke-width: 0.7; stroke-linejoin: miter; stroke-linecap: square"/>
   </g>
   <g id="legend_1">
    <g id="patch_7">
     <path d="M 337.587043 86.644618 
L 386.091602 86.644618 
L 386.091602 3.2 
L 337.587043 3.2 
z
" style="fill: #ffffff; opacity: 0.8; stroke: #cccccc; stroke-linejoin: miter"/>
    </g>
    <g id="text_16">
     <!-- Temp $(\mu K)$ -->
     <g transform="translate(340.787043 13.124782) scale(0.09 -0.09)">
      <defs>
       <path id="NimbusRomNo9L-Regu-54" d="M 1626 3968 
L 1626 751 
C 1626 204 1555 134 1024 134 
L 1024 0 
L 2893 0 
L 2893 134 
C 2368 134 2278 217 2278 687 
L 2278 3968 
L 2624 3968 
C 3354 3968 3494 3853 3642 3149 
L 3795 3149 
L 3757 4237 
L 147 4237 
L 109 3149 
L 262 3149 
C 416 3846 563 3968 1280 3968 
L 1626 3968 
z
" transform="scale(0.015625)"/>
       <path id="CMR10-28" d="M 2118 -1536 
C 2118 -1517 2118 -1504 2010 -1395 
C 1210 -584 1005 632 1005 1616 
C 1005 2735 1248 3855 2035 4658 
C 2118 4735 2118 4748 2118 4767 
C 2118 4812 2093 4832 2054 4832 
C 1990 4832 1414 4395 1037 3577 
C 710 2870 634 2156 634 1616 
C 634 1114 704 336 1056 -391 
C 1440 -1182 1990 -1600 2054 -1600 
C 2093 -1600 2118 -1581 2118 -1536 
z
" transform="scale(0.015625)"/>
       <path id="NimbusRomNo9L-ReguItal-4b" d="M 4621 4160 
L 3200 4160 
L 3200 4058 
C 3277 4052 3347 4039 3373 4039 
C 3526 4026 3590 3988 3590 3918 
C 3590 3765 3238 3420 2669 3026 
L 1696 2351 
L 2035 3596 
C 2131 3916 2304 4045 2682 4045 
L 2682 4160 
L 934 4160 
L 934 4058 
C 1331 4020 1427 3969 1427 3785 
C 1427 3695 1402 3548 1357 3390 
L 570 574 
C 454 192 422 160 45 102 
L 45 0 
L 1632 0 
L 1632 102 
C 1229 147 1171 185 1171 382 
C 1171 446 1184 504 1222 631 
L 1261 764 
L 1658 2217 
L 2432 888 
C 2586 626 2675 403 2675 281 
C 2675 186 2586 135 2381 115 
C 2349 115 2278 115 2195 102 
L 2195 0 
L 3955 0 
L 3955 102 
C 3552 141 3514 160 3334 459 
L 2221 2389 
L 4141 3829 
C 4320 3962 4467 4033 4621 4058 
L 4621 4160 
z
" transform="scale(0.015625)"/>
       <path id="CMR10-29" d="M 1850 1616 
C 1850 2118 1779 2896 1427 3622 
C 1043 4414 493 4832 429 4832 
C 390 4832 365 4806 365 4767 
C 365 4748 365 4735 486 4620 
C 1114 3983 1478 2960 1478 1616 
C 1478 516 1242 -617 448 -1427 
C 365 -1504 365 -1517 365 -1536 
C 365 -1575 390 -1600 429 -1600 
C 493 -1600 1069 -1163 1446 -346 
C 1773 362 1850 1075 1850 1616 
z
" transform="scale(0.015625)"/>
      </defs>
      <use xlink:href="#NimbusRomNo9L-Regu-54" transform="scale(0.996264)"/>
      <use xlink:href="#NimbusRomNo9L-Regu-65" transform="translate(53.898284 0) scale(0.996264)"/>
      <use xlink:href="#NimbusRomNo9L-Regu-6d" transform="translate(98.131853 0) scale(0.996264)"/>
      <use xlink:href="#NimbusRomNo9L-Regu-70" transform="translate(175.640223 0) scale(0.996264)"/>
      <use xlink:href="#CMR10-28" transform="translate(250.360024 0) scale(0.996264)"/>
      <use xlink:href="#StandardSymL-6d" transform="translate(291.504484 0) scale(0.996264)"/>
      <use xlink:href="#NimbusRomNo9L-ReguItal-4b" transform="translate(357.156893 0) scale(0.996264)"/>
      <use xlink:href="#CMR10-29" transform="translate(429.085631 0) scale(0.996264)"/>
     </g>
    </g>
    <g id="line2d_44">
     <path d="M 341.680418 20.566376 
L 348.880418 20.566376 
L 356.080418 20.566376 
" style="fill: none; stroke: #1f77b4; stroke-width: 1.8; stroke-linecap: square"/>
    </g>
    <g id="text_17">
     <!-- 1.0 -->
     <g transform="translate(360.080418 23.366376) scale(0.08 -0.08)">
      <defs>
       <path id="NimbusRomNo9L-Regu-2e" d="M 800 646 
C 608 646 448 480 448 281 
C 448 96 608 -64 794 -64 
C 992 -64 1158 96 1158 281 
C 1158 480 992 646 800 646 
z
" transform="scale(0.015625)"/>
      </defs>
      <use xlink:href="#NimbusRomNo9L-Regu-31" transform="scale(0.996264)"/>
      <use xlink:href="#NimbusRomNo9L-Regu-2e" transform="translate(49.8132 0) scale(0.996264)"/>
      <use xlink:href="#NimbusRomNo9L-Regu-30" transform="translate(74.719801 0) scale(0.996264)"/>
     </g>
    </g>
    <g id="line2d_45">
     <path d="M 341.680418 30.291839 
L 348.880418 30.291839 
L 356.080418 30.291839 
" style="fill: none; stroke: #ff7f0e; stroke-width: 1.8; stroke-linecap: square"/>
    </g>
    <g id="text_18">
     <!-- 5.0 -->
     <g transform="translate(360.080418 33.091839) scale(0.08 -0.08)">
      <use xlink:href="#NimbusRomNo9L-Regu-35" transform="scale(0.996264)"/>
      <use xlink:href="#NimbusRomNo9L-Regu-2e" transform="translate(49.8132 0) scale(0.996264)"/>
      <use xlink:href="#NimbusRomNo9L-Regu-30" transform="translate(74.719801 0) scale(0.996264)"/>
     </g>
    </g>
    <g id="line2d_46">
     <path d="M 341.680418 40.017302 
L 348.880418 40.017302 
L 356.080418 40.017302 
" style="fill: none; stroke: #2ca02c; stroke-width: 1.8; stroke-linecap: square"/>
    </g>
    <g id="text_19">
     <!-- 10.0 -->
     <g transform="translate(360.080418 42.817302) scale(0.08 -0.08)">
      <use xlink:href="#NimbusRomNo9L-Regu-31" transform="scale(0.996264)"/>
      <use xlink:href="#NimbusRomNo9L-Regu-30" transform="translate(49.8132 0) scale(0.996264)"/>
      <use xlink:href="#NimbusRomNo9L-Regu-2e" transform="translate(99.626401 0) scale(0.996264)"/>
      <use xlink:href="#NimbusRomNo9L-Regu-30" transform="translate(124.533001 0) scale(0.996264)"/>
     </g>
    </g>
    <g id="line2d_47">
     <path d="M 341.680418 49.742765 
L 348.880418 49.742765 
L 356.080418 49.742765 
" style="fill: none; stroke: #d62728; stroke-width: 1.8; stroke-linecap: square"/>
    </g>
    <g id="text_20">
     <!-- 30.0 -->
     <g transform="translate(360.080418 52.542765) scale(0.08 -0.08)">
      <use xlink:href="#NimbusRomNo9L-Regu-33" transform="scale(0.996264)"/>
      <use xlink:href="#NimbusRomNo9L-Regu-30" transform="translate(49.8132 0) scale(0.996264)"/>
      <use xlink:href="#NimbusRomNo9L-Regu-2e" transform="translate(99.626401 0) scale(0.996264)"/>
      <use xlink:href="#NimbusRomNo9L-Regu-30" transform="translate(124.533001 0) scale(0.996264)"/>
     </g>
    </g>
    <g id="line2d_48">
     <path d="M 341.680418 59.468229 
L 348.880418 59.468229 
L 356.080418 59.468229 
" style="fill: none; stroke: #9467bd; stroke-width: 1.8; stroke-linecap: square"/>
    </g>
    <g id="text_21">
     <!-- 70.0 -->
     <g transform="translate(360.080418 62.268229) scale(0.08 -0.08)">
      <defs>
       <path id="NimbusRomNo9L-Regu-37" d="M 2874 4250 
L 506 4250 
L 128 3310 
L 237 3258 
C 512 3693 627 3776 979 3776 
L 2368 3776 
L 1101 -32 
L 1517 -32 
L 2874 4148 
L 2874 4250 
z
" transform="scale(0.015625)"/>
      </defs>
      <use xlink:href="#NimbusRomNo9L-Regu-37" transform="scale(0.996264)"/>
      <use xlink:href="#NimbusRomNo9L-Regu-30" transform="translate(49.8132 0) scale(0.996264)"/>
      <use xlink:href="#NimbusRomNo9L-Regu-2e" transform="translate(99.626401 0) scale(0.996264)"/>
      <use xlink:href="#NimbusRomNo9L-Regu-30" transform="translate(124.533001 0) scale(0.996264)"/>
     </g>
    </g>
    <g id="line2d_49">
     <path d="M 341.680418 69.193692 
L 348.880418 69.193692 
L 356.080418 69.193692 
" style="fill: none; stroke: #8c564b; stroke-width: 1.8; stroke-linecap: square"/>
    </g>
    <g id="text_22">
     <!-- 100.0 -->
     <g transform="translate(360.080418 71.993692) scale(0.08 -0.08)">
      <use xlink:href="#NimbusRomNo9L-Regu-31" transform="scale(0.996264)"/>
      <use xlink:href="#NimbusRomNo9L-Regu-30" transform="translate(49.8132 0) scale(0.996264)"/>
      <use xlink:href="#NimbusRomNo9L-Regu-30" transform="translate(99.626401 0) scale(0.996264)"/>
      <use xlink:href="#NimbusRomNo9L-Regu-2e" transform="translate(149.439601 0) scale(0.996264)"/>
      <use xlink:href="#NimbusRomNo9L-Regu-30" transform="translate(174.346202 0) scale(0.996264)"/>
     </g>
    </g>
    <g id="line2d_50">
     <path d="M 341.680418 78.919155 
L 348.880418 78.919155 
L 356.080418 78.919155 
" style="fill: none; stroke: #e377c2; stroke-width: 1.8; stroke-linecap: square"/>
    </g>
    <g id="text_23">
     <!-- 1000.0 -->
     <g transform="translate(360.080418 81.719155) scale(0.08 -0.08)">
      <use xlink:href="#NimbusRomNo9L-Regu-31" transform="scale(0.996264)"/>
      <use xlink:href="#NimbusRomNo9L-Regu-30" transform="translate(49.8132 0) scale(0.996264)"/>
      <use xlink:href="#NimbusRomNo9L-Regu-30" transform="translate(99.626401 0) scale(0.996264)"/>
      <use xlink:href="#NimbusRomNo9L-Regu-30" transform="translate(149.439601 0) scale(0.996264)"/>
      <use xlink:href="#NimbusRomNo9L-Regu-2e" transform="translate(199.252802 0) scale(0.996264)"/>
      <use xlink:href="#NimbusRomNo9L-Regu-30" transform="translate(224.159402 0) scale(0.996264)"/>
     </g>
    </g>
   </g>
  </g>
 </g>
 <defs>
  <clipPath id="p42f37be28e">
   <rect x="35.03479" y="-0" width="354.256812" height="178.29504"/>
  </clipPath>
 </defs>
</svg>
